<?xml version="1.0" encoding="UTF-8"?><svg id="Layer_2" xmlns="http://www.w3.org/2000/svg" viewBox="0 0 157.16 126.21"><defs><style>.cls-1{fill:#894533;}</style></defs><g id="Capa_1"><g><path class="cls-1" d="M78.15,51.37c-7.49,0-14.98,0-22.47,0-4.76,0-7.86,3.01-7.87,7.77-.03,15.09-.04,30.18,0,45.27,.01,4.73,3.15,7.78,7.89,7.78,14.93,.01,29.86-.01,44.79,.02,2.65,0,4.82-.84,6.55-2.87,1.1-1.28,2.54-1.43,3.59-.47,1.03,.93,1.06,2.25,.02,3.52-2.7,3.3-6.25,4.75-10.45,4.54-1.48-.07-2.07,.25-1.91,1.85,.16,1.62,.06,3.27,.02,4.9-.04,1.58-.86,2.48-2.23,2.54-1.42,.06-2.44-.88-2.5-2.46-.07-1.9-.05-3.8,0-5.7,.01-.74-.07-1.14-.99-1.12-3.53,.05-7.07,.04-10.6,0-.76,0-1.01,.21-.99,.98,.05,1.85,.04,3.69,0,5.54-.04,1.79-.9,2.75-2.36,2.76-1.47,.01-2.36-.95-2.4-2.72-.04-1.79-.05-3.59,0-5.38,.03-.85-.16-1.19-1.11-1.18-3.48,.06-6.96,.05-10.44,0-.86-.01-1.06,.28-1.04,1.08,.05,1.79,.04,3.59,0,5.38-.03,1.82-.97,2.86-2.48,2.82-1.47-.04-2.25-.99-2.27-2.82-.02-1.79-.04-3.59,.01-5.38,.03-.82-.22-1.09-1.06-1.08-1.68,.02-3.37,.11-5.04-.24-5.38-1.12-9.35-5.56-9.72-11.02-.12-1.79-.1-3.59-.07-5.38,.01-.81-.22-1.11-1.07-1.08-1.74,.06-3.48,.04-5.22,0-1.59-.03-2.6-.98-2.6-2.37,0-1.38,1.02-2.34,2.6-2.37,1.74-.04,3.48-.05,5.22,0,.84,.03,1.07-.25,1.06-1.07-.04-3.48-.05-6.96,0-10.45,.01-.92-.31-1.17-1.19-1.13-1.69,.06-3.38,.04-5.06,.01-1.63-.03-2.61-.91-2.63-2.31-.02-1.37,.98-2.38,2.56-2.43,1.74-.06,3.48-.05,5.22,0,.8,.02,1.11-.17,1.1-1.04-.05-3.48-.05-6.96,0-10.45,.02-.98-.4-1.13-1.23-1.1-1.63,.05-3.27,.04-4.91,0-1.76-.04-2.75-.93-2.75-2.38,0-1.43,1.02-2.34,2.76-2.39,1.48-.04,2.96-.1,4.43,.02,1.28,.1,1.68-.28,1.75-1.6,.32-5.78,4.24-10.25,9.86-11.39,1.61-.33,3.26-.2,4.89-.17,.84,.02,1.1-.26,1.08-1.09-.05-1.85-.04-3.69,0-5.54,.03-1.7,.99-2.76,2.4-2.73,1.33,.03,2.3,1.09,2.34,2.67,.05,1.85,.06,3.69,0,5.54-.03,.91,.27,1.16,1.16,1.15,3.43-.05,6.86-.05,10.29,0,.93,.01,1.17-.31,1.14-1.18-.05-1.79-.04-3.59,0-5.38,.04-1.72,.97-2.78,2.37-2.79,1.39,0,2.35,1.07,2.39,2.77,.04,1.69,.08,3.38-.01,5.06-.06,1.13,.19,1.57,1.45,1.53,3.27-.1,6.54-.07,9.81-.01,.99,.02,1.41-.19,1.35-1.29-.1-1.74-.05-3.48-.02-5.22,.03-1.77,1.04-2.91,2.48-2.85,1.4,.06,2.25,1.1,2.27,2.86,.02,1.53,.11,3.07-.03,4.59-.13,1.5,.27,2.06,1.86,1.91,2.69-.24,5.24,.36,7.53,1.85,3.56,2.33,5.47,5.66,5.65,9.87,.05,1.26,.46,1.46,1.55,1.41,1.79-.08,3.59-.05,5.38-.01,1.74,.04,2.78,.94,2.81,2.34,.03,1.48-1.02,2.4-2.87,2.42-1.9,.03-3.8,.03-5.7,0-.75-.01-1.15,.09-1.14,1,.05,3.53,.05,7.07,0,10.6-.01,.93,.39,1,1.13,.98,1.79-.04,3.59-.02,5.38-.01,2.07,.01,3.22,.89,3.19,2.44-.02,1.52-1.08,2.31-3.11,2.32-1.79,0-3.59,.06-5.38-.02-1.02-.05-1.21,.31-1.21,1.25,0,3.2-.05,3.21,3.17,3.2,5.43,0,10.87,.05,16.3-.02,9.85-.12,17.58-6.73,19.33-16.45,1.82-10.12-5.6-20.58-15.78-22.23-.52-.08-1.04-.21-1.56-.24-1.67-.1-2.46-1.04-2.58-2.62-.23-2.86-.93-5.6-2.05-8.24-6.14-14.42-23.59-20.37-37.27-12.72-2.49,1.39-3.47,1.13-4.79-1.37-6.38-12.1-19.29-19.17-33.31-17.38-14.67,1.88-25.65,12.17-28.65,26.28-.86,4.06-.96,8.15-.19,12.26,.48,2.57-.34,3.59-2.88,3.72-9.06,.45-16.72,7.59-18.16,16.92-1.32,8.55,4.01,17.58,12.23,20.74,2.39,.92,4.85,1.37,7.41,1.35,3.32-.03,6.65-.02,9.97,0,1.88,0,2.92,.85,2.94,2.35,.02,1.53-.97,2.42-2.86,2.38-4.74-.11-9.53,.52-14.22-.34-10.2-1.86-16.97-7.91-19.55-17.88-2.6-10.02,.61-18.5,8.55-25.12,3-2.51,6.52-4.06,10.37-4.75,1.05-.19,1.25-.52,1.16-1.5-.89-9.36,1.47-17.87,6.9-25.5,15.68-22.03,48.74-21.05,63.11,1.87,.61,.97,1.04,1.09,2.08,.61,18.34-8.4,39.97,3.02,43.52,22.96,.19,1.08,.65,1.53,1.71,1.77,11.79,2.68,19.58,13.35,18.82,25.71-.69,11.15-10.03,20.93-21.49,21.99-5.13,.47-10.33,.15-15.5,.18-1.74,.01-3.5,.15-5.22-.04-1.78-.19-1.44,.89-1.51,1.92-.08,1.13,.13,1.7,1.48,1.59,1.84-.14,3.69-.06,5.54-.03,1.67,.03,2.73,1.02,2.68,2.45-.04,1.38-1.04,2.27-2.67,2.3-1.79,.03-3.59,.09-5.38-.02-1.26-.08-1.8,.19-1.67,1.58,.12,1.23-.59,2.13-1.8,2.47-1.02,.28-1.86-.12-2.5-.94-.53-.69-.42-1.5-.42-2.28,0-11.5,0-23,0-34.5,0-2.16,.03-4.33,0-6.49-.07-4.5-3.22-7.65-7.7-7.66-7.6-.02-15.19,0-22.79,0Z"/><path class="cls-1" d="M88.12,74.32c0,1.55-.92,2.64-2.28,2.69-1.33,.05-2.29-.92-2.47-2.53-.32-2.83-2.48-4.81-5.03-4.61-2.61,.21-4.59,2.43-4.46,5.01,.12,2.33,1.94,4.25,4.34,4.44,2.08,.16,4.08,.5,5.81,1.76,3.01,2.21,4.45,5.2,4.03,8.9-.41,3.57-2.39,6.16-5.69,7.57-1.05,.45-1.39,.93-1.37,2.03,.03,1.69-1.01,2.77-2.39,2.74-1.4-.02-2.35-1.07-2.31-2.82,.02-1.06-.31-1.5-1.3-1.93-3.54-1.51-5.53-4.27-5.84-8.13-.14-1.72,.75-2.81,2.17-2.91,1.45-.1,2.37,.83,2.56,2.57,.27,2.52,1.97,4.28,4.31,4.48,2.36,.19,4.32-1.17,5-3.48,.75-2.58-.92-5.29-3.64-5.82-1.03-.2-2.11-.17-3.13-.41-3.98-.95-6.97-4.43-7.28-8.37-.33-4.2,1.89-7.93,5.83-9.55,.98-.4,1.34-.85,1.31-1.93-.05-1.79,.86-2.77,2.3-2.8,1.44-.03,2.42,.97,2.4,2.71,0,1.09,.27,1.62,1.36,2.05,3.46,1.37,5.78,4.85,5.77,8.34Z"/></g></g></svg>