<?xml version="1.0" encoding="UTF-8"?><svg id="Layer_2" xmlns="http://www.w3.org/2000/svg" viewBox="0 0 1059.15 724.34"><defs><style>.cls-1{fill:#e59f3c;}.cls-2{fill:#0d2175;}.cls-3{fill:#fff;stroke:#e59f3c;}.cls-3,.cls-4{stroke-miterlimit:10;stroke-width:4px;}.cls-4{fill:none;stroke:#1f2dd9;}</style></defs><g id="Capa_1"><g><g><path class="cls-2" d="M0,353.22c0-1.57,.99-2.53,2.37-2.53s2.37,.96,2.37,2.53v17.69c0,1.57-.99,2.53-2.37,2.53s-2.37-.96-2.37-2.53v-17.69Z"/><path class="cls-2" d="M9.76,359.88c0-1.5,.99-2.43,2.27-2.43,1.06,0,1.76,.48,2.11,1.41,.93-1.09,2.18-1.63,3.81-1.63,3.87,0,6.37,2.56,6.37,6.94v6.85c0,1.5-.96,2.43-2.27,2.43s-2.27-.93-2.27-2.43v-6.5c0-1.79-.83-3.07-2.59-3.07-1.92,0-2.88,1.34-2.88,4v5.57c.19,3.2-4.74,3.2-4.54,0v-11.14Z"/><path class="cls-2" d="M37.73,371.04c-.58,1.63-1.63,2.43-3.14,2.43s-2.46-.8-3.14-2.43l-4.19-10.4c-.54-1.41,.1-2.72,1.38-3.1,1.25-.38,2.43,.29,2.91,1.73l3.04,8.03,3.04-8.03c.48-1.44,1.73-2.11,2.98-1.73,1.25,.38,1.82,1.66,1.28,3.1l-4.16,10.4Z"/><path class="cls-2" d="M56.13,366.6h-8.03c.26,1.7,1.57,2.88,3.52,2.88,1.09,0,2.02-.32,2.82-.96,1.25-.9,2.4-.61,3.2,.45,.74,.9,.51,2.18-.67,3.1-1.38,1.06-3.14,1.57-5.21,1.57-2.4,0-4.35-.74-5.92-2.21-1.57-1.5-2.34-3.46-2.34-5.89s.7-4.38,2.14-5.95c1.44-1.57,3.3-2.37,5.57-2.37,1.57,0,2.94,.38,4.13,1.12,2.4,1.5,3.33,3.62,3.33,5.76,0,1.66-.83,2.5-2.53,2.5Zm-7.81-3.04h5.63c-.1-1.31-1.15-2.34-2.66-2.34-1.63,0-2.69,.96-2.98,2.34Z"/><path class="cls-2" d="M62.53,368.87c.86-.96,1.86-.99,3.01-.06,.86,.67,2.02,1.02,3.42,1.02,.99,0,1.76-.35,1.76-.96,0-.51-.35-.77-1.41-1.06l-1.76-.51c-3.49-.99-5.12-2.59-5.12-5.12,0-1.5,.58-2.69,1.76-3.58,1.18-.93,2.62-1.38,4.32-1.38,1.82,0,3.36,.38,4.64,1.18,1.15,.77,1.44,1.92,.83,2.91-.67,1.02-1.76,1.31-3.01,.58-.83-.54-1.73-.8-2.66-.8s-1.47,.35-1.47,.86c0,.48,.35,.67,1.12,.9l2.02,.54c3.2,.9,5.15,2.27,5.15,5.18s-2.56,5.06-6.56,5.06c-2.4,0-4.29-.58-5.66-1.73-1.06-.93-1.18-2.14-.38-3.04Z"/><path class="cls-2" d="M87.49,371.27c0,1.18-.86,2.08-2.43,2.08h-.42c-3.65,0-5.47-1.86-5.47-5.6v-5.95h-.58c-1.41,0-2.27-.9-2.27-2.08s.86-2.11,2.27-2.11h.58v-2.11c-.19-3.2,4.74-3.2,4.51,0v2.11h1.54c1.41,0,2.27,.93,2.27,2.11s-.86,2.08-2.27,2.08h-1.54v5.41c0,1.31,.54,1.82,1.6,1.92,1.44,.16,2.21,.96,2.21,2.14Z"/><path class="cls-2" d="M91.26,359.88c0-1.5,.99-2.43,2.27-2.43,1.06,0,1.76,.48,2.11,1.41,.93-1.09,2.24-1.63,3.87-1.63,1.82,0,3.26,.64,4.35,1.89,1.25-1.25,2.82-1.89,4.7-1.89,4.19,0,6.56,2.5,6.56,6.94v6.85c.19,3.2-4.74,3.2-4.54,0v-6.66c0-1.76-.83-2.91-2.4-2.91-1.7,0-2.72,1.31-2.72,3.49v6.08c.19,3.2-4.74,3.2-4.54,0v-6.66c0-1.76-.83-2.91-2.4-2.91-1.79,0-2.72,1.38-2.72,3.81v5.76c.19,3.2-4.74,3.2-4.54,0v-11.14Z"/><path class="cls-2" d="M131.2,366.6h-8.03c.26,1.7,1.57,2.88,3.52,2.88,1.09,0,2.02-.32,2.82-.96,1.25-.9,2.4-.61,3.2,.45,.74,.9,.51,2.18-.67,3.1-1.38,1.06-3.14,1.57-5.22,1.57-2.4,0-4.35-.74-5.92-2.21-1.57-1.5-2.34-3.46-2.34-5.89s.7-4.38,2.14-5.95c1.44-1.57,3.3-2.37,5.57-2.37,1.57,0,2.94,.38,4.13,1.12,2.4,1.5,3.33,3.62,3.33,5.76,0,1.66-.83,2.5-2.53,2.5Zm-7.81-3.04h5.63c-.1-1.31-1.15-2.34-2.66-2.34-1.63,0-2.69,.96-2.98,2.34Z"/><path class="cls-2" d="M137.6,359.88c0-1.5,.99-2.43,2.27-2.43,1.06,0,1.76,.48,2.11,1.41,.93-1.09,2.18-1.63,3.81-1.63,3.87,0,6.37,2.56,6.37,6.94v6.85c0,1.5-.96,2.43-2.27,2.43s-2.27-.93-2.27-2.43v-6.5c0-1.79-.83-3.07-2.59-3.07-1.92,0-2.88,1.34-2.88,4v5.57c.19,3.2-4.74,3.2-4.54,0v-11.14Z"/><path class="cls-2" d="M165.18,371.27c0,1.18-.86,2.08-2.43,2.08h-.42c-3.65,0-5.47-1.86-5.47-5.6v-5.95h-.58c-1.41,0-2.27-.9-2.27-2.08s.86-2.11,2.27-2.11h.58v-2.11c-.19-3.2,4.74-3.2,4.51,0v2.11h1.54c1.41,0,2.27,.93,2.27,2.11s-.86,2.08-2.27,2.08h-1.54v5.41c0,1.31,.54,1.82,1.6,1.92,1.44,.16,2.21,.96,2.21,2.14Z"/></g><g><path class="cls-2" d="M652.46,451.81c0-1.76,1.12-2.84,2.66-2.84s2.66,1.08,2.66,2.84v17.63h9.07c1.62,0,2.63,1.04,2.63,2.48s-1.01,2.45-2.63,2.45h-10.97c-2.16,0-3.42-1.26-3.42-3.42v-19.14Z"/><path class="cls-2" d="M686.5,466.85h-9.03c.29,1.91,1.76,3.24,3.96,3.24,1.22,0,2.27-.36,3.17-1.08,1.4-1.01,2.7-.68,3.6,.5,.83,1.01,.58,2.45-.76,3.49-1.55,1.19-3.53,1.76-5.87,1.76-2.7,0-4.89-.83-6.66-2.48-1.76-1.69-2.63-3.89-2.63-6.62s.79-4.93,2.41-6.69,3.71-2.66,6.26-2.66c1.76,0,3.31,.43,4.64,1.26,2.7,1.69,3.74,4.07,3.74,6.48,0,1.87-.94,2.81-2.84,2.81Zm-8.78-3.42h6.33c-.11-1.48-1.29-2.63-2.99-2.63-1.83,0-3.02,1.08-3.35,2.63Z"/><path class="cls-2" d="M694.63,476.14c.9-.97,2.12-1.01,3.67-.04,1.04,.61,2.05,.94,3.06,.94,2.7,0,4.42-1.58,4.42-3.92v-.47c-1.01,.9-2.45,1.33-4.28,1.33-2.52,0-4.61-.79-6.22-2.38s-2.41-3.74-2.41-6.44,.83-4.89,2.52-6.48c1.69-1.58,3.71-2.37,6.12-2.37,1.87,0,3.38,.61,4.5,1.87,.36-1.12,1.15-1.65,2.38-1.65,1.47,0,2.55,1.01,2.55,2.73v13.28c0,2.73-.86,4.97-2.55,6.66-1.69,1.69-3.99,2.55-6.98,2.55-2.52,0-4.64-.65-6.4-1.94-1.33-1.01-1.33-2.66-.36-3.67Zm7.34-15.18c-2.16,0-3.89,1.73-3.89,4.21s1.73,4.17,3.89,4.17,3.92-1.73,3.92-4.17-1.73-4.21-3.92-4.21Z"/><path class="cls-2" d="M723.12,456.31c2.19,0,3.99,.65,5.4,1.91,1.4,1.26,2.09,2.95,2.09,5.14v8.46c0,1.69-1.12,2.73-2.55,2.73-1.19,0-1.98-.54-2.37-1.62-1.22,1.22-2.74,1.84-4.5,1.84s-3.17-.5-4.28-1.51c-1.12-1.04-1.66-2.34-1.66-3.92,0-1.83,.65-3.2,1.98-4.14s3.02-1.44,5-1.51l3.24-.14c0-1.8-.9-2.7-2.7-2.7-1.08,0-2.05,.29-2.95,.9-1.33,.9-2.63,.79-3.38-.22-.83-.97-.58-2.41,.61-3.38,1.55-1.22,3.6-1.83,6.08-1.83Zm-.68,14.14c1.04,0,2.05-.36,3.02-1.08v-2.09l-2.27,.18c-1.87,.11-2.81,.61-2.81,1.58,0,.86,.75,1.4,2.05,1.4Z"/><path class="cls-2" d="M741.14,471.82c.21,3.6-5.33,3.6-5.11,0v-20.08c-.22-3.6,5.32-3.6,5.11,0v20.08Z"/></g><g><path class="cls-2" d="M225.34,462.36c-.97,1.15-2.41,1.29-3.81,.14-1.47-1.29-3.24-1.94-5.33-1.94-1.98,0-3.71,.72-5.22,2.16-1.48,1.4-2.23,3.35-2.23,5.79s.76,4.46,2.23,5.9,3.31,2.16,5.5,2.16c2.05,0,3.85-.65,5.43-1.98,1.4-1.12,2.84-.97,3.81,.14,1.01,1.04,.9,2.63-.4,3.78-2.3,2.05-5.22,3.06-8.71,3.06-3.85,0-7.05-1.19-9.61-3.56-2.52-2.38-3.78-5.5-3.78-9.39s1.26-7.09,3.78-9.46c2.52-2.41,5.65-3.6,9.43-3.6,3.27,0,6.12,1.01,8.49,3.02,1.29,1.15,1.4,2.73,.4,3.78Z"/><path class="cls-2" d="M230.08,472.37c0-2.63,.9-4.82,2.66-6.58,1.8-1.76,4.03-2.66,6.66-2.66s4.86,.9,6.62,2.66c1.8,1.76,2.7,3.96,2.7,6.58s-.9,4.82-2.66,6.58-3.99,2.63-6.66,2.63-4.89-.86-6.66-2.63c-1.76-1.76-2.66-3.96-2.66-6.58Zm5.22,0c0,1.3,.4,2.38,1.15,3.2,.76,.83,1.76,1.26,2.95,1.26s2.2-.43,2.95-1.26c.76-.83,1.15-1.91,1.15-3.2s-.4-2.38-1.15-3.2-1.76-1.26-2.95-1.26-2.19,.43-2.95,1.26c-.75,.83-1.15,1.91-1.15,3.2Z"/><path class="cls-2" d="M252.97,466.11c0-1.69,1.12-2.74,2.55-2.74,1.19,0,1.98,.54,2.38,1.58,1.04-1.22,2.45-1.83,4.28-1.83,4.35,0,7.16,2.88,7.16,7.81v7.7c0,1.69-1.08,2.73-2.55,2.73s-2.55-1.04-2.55-2.73v-7.3c0-2.02-.94-3.45-2.91-3.45-2.16,0-3.24,1.51-3.24,4.5v6.26c.22,3.6-5.33,3.6-5.11,0v-12.52Z"/><path class="cls-2" d="M274.19,476.22c.97-1.08,2.09-1.12,3.38-.07,.97,.75,2.27,1.15,3.85,1.15,1.12,0,1.98-.4,1.98-1.08,0-.58-.4-.86-1.58-1.19l-1.98-.58c-3.92-1.12-5.76-2.91-5.76-5.76,0-1.69,.65-3.02,1.98-4.03,1.33-1.04,2.95-1.55,4.86-1.55,2.05,0,3.78,.43,5.22,1.33,1.29,.86,1.62,2.16,.94,3.27-.76,1.15-1.98,1.47-3.38,.65-.94-.61-1.94-.9-2.99-.9s-1.66,.4-1.66,.97c0,.54,.4,.76,1.26,1.01l2.27,.61c3.6,1.01,5.79,2.55,5.79,5.83s-2.88,5.68-7.38,5.68c-2.7,0-4.82-.65-6.37-1.94-1.19-1.04-1.33-2.41-.43-3.42Z"/><path class="cls-2" d="M308.01,478.63c0,1.69-1.12,2.73-2.55,2.73-1.15,0-1.94-.54-2.34-1.58-1.01,1.19-2.45,1.8-4.35,1.8-4.32,0-6.73-2.77-6.73-7.77v-7.7c-.22-3.6,5.33-3.6,5.11,0v7.3c0,2.3,.9,3.45,2.7,3.45,2.27,0,3.06-1.58,3.06-4.5v-6.26c-.22-3.6,5.33-3.6,5.11,0v12.52Z"/><path class="cls-2" d="M318.8,478.63c.22,3.6-5.33,3.6-5.11,0v-20.08c-.22-3.6,5.33-3.6,5.11,0v20.08Z"/><path class="cls-2" d="M334.06,478.92c0,1.33-.97,2.34-2.73,2.34h-.47c-4.1,0-6.15-2.09-6.15-6.3v-6.69h-.65c-1.58,0-2.55-1.01-2.55-2.34s.97-2.37,2.55-2.37h.65v-2.38c-.22-3.6,5.33-3.6,5.07,0v2.38h1.73c1.58,0,2.55,1.04,2.55,2.37s-.97,2.34-2.55,2.34h-1.73v6.08c0,1.47,.61,2.05,1.8,2.16,1.62,.18,2.48,1.08,2.48,2.41Z"/><path class="cls-2" d="M341.04,455.56c1.69,0,2.99,1.29,2.99,2.99s-1.37,2.95-2.99,2.95-2.95-1.33-2.95-2.95,1.33-2.99,2.95-2.99Zm0,25.8c-1.48,0-2.55-1.04-2.55-2.73v-12.52c0-1.69,1.08-2.74,2.55-2.74s2.55,1.04,2.55,2.74v12.52c0,1.69-1.08,2.73-2.55,2.73Z"/><path class="cls-2" d="M349.45,466.11c0-1.69,1.12-2.74,2.55-2.74,1.19,0,1.98,.54,2.38,1.58,1.04-1.22,2.45-1.83,4.28-1.83,4.35,0,7.16,2.88,7.16,7.81v7.7c0,1.69-1.08,2.73-2.55,2.73s-2.55-1.04-2.55-2.73v-7.3c0-2.02-.94-3.45-2.91-3.45-2.16,0-3.24,1.51-3.24,4.5v6.26c.22,3.6-5.33,3.6-5.11,0v-12.52Z"/><path class="cls-2" d="M371.4,482.94c.9-.97,2.12-1.01,3.67-.04,1.04,.61,2.05,.94,3.06,.94,2.7,0,4.43-1.58,4.43-3.92v-.47c-1.01,.9-2.45,1.33-4.28,1.33-2.52,0-4.61-.79-6.22-2.38-1.62-1.58-2.41-3.74-2.41-6.44s.83-4.89,2.52-6.48c1.69-1.58,3.71-2.37,6.12-2.37,1.87,0,3.38,.61,4.5,1.87,.36-1.12,1.15-1.66,2.38-1.66,1.47,0,2.55,1.01,2.55,2.73v13.28c0,2.73-.86,4.96-2.55,6.66s-3.99,2.55-6.98,2.55c-2.52,0-4.64-.65-6.4-1.94-1.33-1.01-1.33-2.66-.36-3.67Zm7.34-15.18c-2.16,0-3.89,1.73-3.89,4.21s1.73,4.17,3.89,4.17,3.92-1.73,3.92-4.17-1.73-4.21-3.92-4.21Z"/></g><g><path class="cls-2" d="M652.28,221.4c-2.16,0-3.42-1.26-3.42-3.42v-18.35c0-2.16,1.26-3.42,3.42-3.42h4.89c3.6,0,6.8,.9,9.54,2.77,2.77,1.83,4.53,5.29,4.53,9.64s-1.76,7.88-4.5,9.86c-2.74,1.91-6.01,2.91-9.57,2.91h-4.89Zm1.94-20.26v15.33h2.16c6.3,0,9.43-2.63,9.43-7.84s-3.17-7.48-9.46-7.48h-2.12Z"/><path class="cls-2" d="M678.4,195.78c1.69,0,2.99,1.29,2.99,2.99s-1.37,2.95-2.99,2.95-2.95-1.33-2.95-2.95,1.33-2.99,2.95-2.99Zm0,25.8c-1.48,0-2.55-1.04-2.55-2.73v-12.52c0-1.69,1.08-2.74,2.55-2.74s2.55,1.04,2.55,2.74v12.52c0,1.69-1.08,2.73-2.55,2.73Z"/><path class="cls-2" d="M687.14,223.16c.9-.97,2.12-1.01,3.67-.04,1.04,.61,2.05,.94,3.06,.94,2.7,0,4.43-1.58,4.43-3.92v-.47c-1.01,.9-2.45,1.33-4.28,1.33-2.52,0-4.61-.79-6.22-2.38s-2.41-3.74-2.41-6.44,.83-4.89,2.52-6.48c1.69-1.58,3.71-2.37,6.12-2.37,1.87,0,3.38,.61,4.5,1.87,.36-1.12,1.15-1.66,2.38-1.66,1.47,0,2.55,1.01,2.55,2.73v13.28c0,2.73-.86,4.96-2.55,6.66-1.69,1.69-3.99,2.55-6.98,2.55-2.52,0-4.64-.65-6.4-1.94-1.33-1.01-1.33-2.66-.36-3.67Zm7.34-15.18c-2.16,0-3.89,1.73-3.89,4.21s1.73,4.17,3.89,4.17,3.92-1.73,3.92-4.17-1.73-4.21-3.92-4.21Z"/><path class="cls-2" d="M711.79,195.78c1.69,0,2.99,1.29,2.99,2.99s-1.37,2.95-2.99,2.95-2.95-1.33-2.95-2.95,1.33-2.99,2.95-2.99Zm0,25.8c-1.47,0-2.55-1.04-2.55-2.73v-12.52c0-1.69,1.08-2.74,2.55-2.74s2.55,1.04,2.55,2.74v12.52c0,1.69-1.08,2.73-2.55,2.73Z"/><path class="cls-2" d="M729.81,219.13c0,1.33-.97,2.34-2.73,2.34h-.47c-4.1,0-6.15-2.09-6.15-6.3v-6.69h-.65c-1.58,0-2.55-1.01-2.55-2.34s.97-2.37,2.55-2.37h.65v-2.38c-.22-3.6,5.33-3.6,5.07,0v2.38h1.73c1.58,0,2.55,1.04,2.55,2.37s-.97,2.34-2.55,2.34h-1.73v6.08c0,1.47,.61,2.05,1.8,2.16,1.62,.18,2.48,1.08,2.48,2.41Z"/><path class="cls-2" d="M741.04,203.34c2.2,0,3.99,.65,5.4,1.91s2.09,2.95,2.09,5.15v8.46c0,1.69-1.12,2.73-2.55,2.73-1.19,0-1.98-.54-2.38-1.62-1.22,1.22-2.73,1.83-4.5,1.83s-3.17-.5-4.28-1.51c-1.12-1.04-1.66-2.34-1.66-3.92,0-1.83,.65-3.2,1.98-4.14s3.02-1.44,5-1.51l3.24-.14c0-1.8-.9-2.7-2.7-2.7-1.08,0-2.05,.29-2.95,.9-1.33,.9-2.63,.79-3.38-.22-.83-.97-.58-2.41,.61-3.38,1.55-1.22,3.6-1.83,6.08-1.83Zm-.68,14.14c1.04,0,2.05-.36,3.02-1.08v-2.09l-2.27,.18c-1.87,.11-2.81,.61-2.81,1.58,0,.86,.76,1.4,2.05,1.4Z"/><path class="cls-2" d="M759.06,218.84c.22,3.6-5.33,3.6-5.11,0v-20.08c-.22-3.6,5.33-3.6,5.11,0v20.08Z"/><path class="cls-2" d="M632.12,253.49l6.44-12.63c.61-1.22,1.62-1.83,3.06-1.83,1.91,0,3.02,1.22,3.02,3.2v19.68c0,1.76-1.12,2.84-2.66,2.84s-2.66-1.08-2.66-2.84v-11.66l-4.28,8.17c-.65,1.22-1.62,1.83-2.91,1.83s-2.27-.61-2.88-1.8l-4.28-8.2v11.66c0,1.76-1.12,2.84-2.66,2.84s-2.66-1.08-2.66-2.84v-19.68c0-1.98,1.12-3.2,3.02-3.2,1.4,0,2.45,.61,3.06,1.83l6.4,12.63Z"/><path class="cls-2" d="M657.05,246.51c2.19,0,3.99,.65,5.4,1.91,1.4,1.26,2.09,2.95,2.09,5.15v8.46c0,1.69-1.12,2.74-2.55,2.74-1.19,0-1.98-.54-2.37-1.62-1.22,1.22-2.73,1.83-4.5,1.83s-3.17-.5-4.28-1.51c-1.12-1.04-1.66-2.34-1.66-3.92,0-1.83,.65-3.2,1.98-4.14s3.02-1.44,5-1.51l3.24-.14c0-1.8-.9-2.7-2.7-2.7-1.08,0-2.05,.29-2.95,.9-1.33,.9-2.63,.79-3.38-.22-.83-.97-.58-2.41,.61-3.38,1.55-1.22,3.6-1.83,6.08-1.83Zm-.68,14.14c1.04,0,2.05-.36,3.02-1.08v-2.09l-2.27,.18c-1.87,.11-2.81,.61-2.81,1.58,0,.86,.75,1.4,2.05,1.4Z"/><path class="cls-2" d="M682.74,249.35c0,1.4-.97,2.38-2.23,2.38-.25,0-.79-.07-1.12-.07-2.45,0-4.32,1.98-4.32,5.54v4.82c.22,3.6-5.33,3.6-5.11,0v-12.52c0-1.69,1.12-2.73,2.55-2.73,1.33,0,2.3,.86,2.48,2.12,1.01-1.4,2.73-2.2,4.28-2.2,.61,0,1.08,.04,1.44,.14,1.15,.29,2.01,1.19,2.01,2.52Z"/><path class="cls-2" d="M692.3,258.09l-1.58,1.55v2.37c.22,3.6-5.33,3.6-5.11,0v-20.08c-.22-3.6,5.33-3.6,5.11,0v10.94l5.36-5.11c1.19-1.12,2.66-1.33,3.71-.47,1.04,.86,1.15,2.52-.11,3.78l-3.78,3.49,4.61,5.83c1.04,1.44,.79,2.95-.36,3.85-1.12,.86-2.81,.61-3.78-.79l-4.07-5.36Z"/><path class="cls-2" d="M717.92,257.05h-9.03c.29,1.91,1.76,3.24,3.96,3.24,1.22,0,2.27-.36,3.17-1.08,1.4-1.01,2.7-.68,3.6,.5,.83,1.01,.58,2.45-.76,3.49-1.55,1.19-3.53,1.76-5.87,1.76-2.7,0-4.89-.83-6.66-2.48-1.76-1.69-2.63-3.89-2.63-6.62s.79-4.93,2.41-6.69c1.62-1.76,3.71-2.66,6.26-2.66,1.76,0,3.31,.43,4.64,1.26,2.7,1.69,3.74,4.07,3.74,6.48,0,1.87-.94,2.81-2.84,2.81Zm-8.78-3.42h6.33c-.11-1.48-1.29-2.63-2.99-2.63-1.83,0-3.02,1.08-3.35,2.63Z"/><path class="cls-2" d="M734.72,262.3c0,1.33-.97,2.34-2.73,2.34h-.47c-4.1,0-6.15-2.09-6.15-6.3v-6.69h-.65c-1.58,0-2.55-1.01-2.55-2.34s.97-2.38,2.55-2.38h.65v-2.38c-.21-3.6,5.33-3.6,5.07,0v2.38h1.73c1.58,0,2.55,1.04,2.55,2.38s-.97,2.34-2.55,2.34h-1.73v6.08c0,1.48,.61,2.05,1.8,2.16,1.62,.18,2.48,1.08,2.48,2.41Z"/><path class="cls-2" d="M741.7,238.95c1.69,0,2.99,1.3,2.99,2.99s-1.37,2.95-2.99,2.95-2.95-1.33-2.95-2.95,1.33-2.99,2.95-2.99Zm0,25.8c-1.47,0-2.55-1.04-2.55-2.74v-12.52c0-1.69,1.08-2.73,2.55-2.73s2.55,1.04,2.55,2.73v12.52c0,1.69-1.08,2.74-2.55,2.74Z"/><path class="cls-2" d="M750.12,249.5c0-1.69,1.12-2.73,2.55-2.73,1.19,0,1.98,.54,2.37,1.58,1.04-1.22,2.45-1.83,4.28-1.83,4.35,0,7.16,2.88,7.16,7.81v7.7c0,1.69-1.08,2.74-2.55,2.74s-2.55-1.04-2.55-2.74v-7.3c0-2.01-.94-3.45-2.92-3.45-2.16,0-3.24,1.51-3.24,4.5v6.26c.21,3.6-5.33,3.6-5.11,0v-12.52Z"/><path class="cls-2" d="M772.06,266.33c.9-.97,2.12-1.01,3.67-.04,1.04,.61,2.05,.94,3.06,.94,2.7,0,4.43-1.58,4.43-3.92v-.47c-1.01,.9-2.45,1.33-4.28,1.33-2.52,0-4.61-.79-6.22-2.38-1.62-1.58-2.41-3.74-2.41-6.44s.83-4.89,2.52-6.48c1.69-1.58,3.71-2.38,6.12-2.38,1.87,0,3.38,.61,4.5,1.87,.36-1.12,1.15-1.66,2.38-1.66,1.48,0,2.55,1.01,2.55,2.73v13.28c0,2.73-.86,4.97-2.55,6.66-1.69,1.69-3.99,2.55-6.98,2.55-2.52,0-4.64-.65-6.4-1.94-1.33-1.01-1.33-2.66-.36-3.67Zm7.34-15.18c-2.16,0-3.89,1.73-3.89,4.21s1.73,4.17,3.89,4.17,3.92-1.73,3.92-4.17-1.73-4.21-3.92-4.21Z"/></g><g><path class="cls-2" d="M475.46,536.86c1.44,0,2.33,.93,2.33,2.21s-.9,2.18-2.33,2.18h-4.42v15.65c0,1.57-1.02,2.53-2.4,2.53s-2.37-.96-2.37-2.53v-15.65h-4.38c-1.44,0-2.34-.93-2.34-2.18s.9-2.21,2.34-2.21h13.57Z"/><path class="cls-2" d="M489.89,552.57h-8.03c.26,1.7,1.57,2.88,3.52,2.88,1.09,0,2.02-.32,2.82-.96,1.25-.9,2.4-.61,3.2,.45,.74,.9,.51,2.18-.67,3.1-1.38,1.06-3.14,1.57-5.22,1.57-2.4,0-4.35-.74-5.92-2.21-1.57-1.5-2.33-3.46-2.33-5.89s.7-4.38,2.14-5.95c1.44-1.57,3.3-2.37,5.57-2.37,1.57,0,2.94,.38,4.13,1.12,2.4,1.5,3.33,3.62,3.33,5.76,0,1.66-.83,2.5-2.53,2.5Zm-7.81-3.04h5.63c-.1-1.31-1.15-2.34-2.66-2.34-1.63,0-2.69,.96-2.98,2.34Z"/><path class="cls-2" d="M504,547.42c-2.27,0-3.81,1.66-3.81,4s1.54,4,3.81,4c.86,0,1.73-.35,2.59-1.02,1.25-.9,2.4-.61,3.2,.45,.74,.9,.51,2.18-.67,3.1-1.47,1.12-3.23,1.66-5.28,1.66-2.37,0-4.35-.77-5.92-2.34-1.57-1.57-2.37-3.52-2.37-5.86s.8-4.29,2.37-5.86c1.6-1.57,3.58-2.37,5.92-2.37,1.82,0,3.42,.48,4.77,1.47,1.18,.93,1.5,2.27,.83,3.17-.74,1.02-1.89,1.28-3.14,.42-.74-.54-1.5-.83-2.3-.83Z"/><path class="cls-2" d="M514.3,539.13c-.19-3.2,4.74-3.2,4.54,0v5.41c.86-.9,2.08-1.34,3.65-1.34,3.87,0,6.37,2.56,6.37,6.94v6.85c0,1.5-.96,2.43-2.27,2.43s-2.27-.93-2.27-2.43v-6.5c0-1.79-.83-3.07-2.59-3.07-1.92,0-2.88,1.22-2.88,3.65v5.92c.19,3.2-4.74,3.2-4.54,0v-17.86Z"/><path class="cls-2" d="M417.68,595.39c0,1.5-.99,2.43-2.27,2.43-1.09,0-1.79-.48-2.11-1.47-.8,.99-2.5,1.66-4.19,1.66-2.21,0-4.1-.74-5.6-2.24s-2.24-3.49-2.24-5.95,.74-4.42,2.24-5.92c1.5-1.54,3.39-2.3,5.6-2.3,1.63,0,2.98,.45,4.03,1.38v-5.44c-.19-3.2,4.74-3.2,4.54,0v17.85Zm-4.48-5.57c0-1.18-.35-2.18-1.06-2.94-.67-.77-1.54-1.15-2.59-1.15s-1.92,.38-2.62,1.15c-.67,.77-1.02,1.76-1.02,2.94s.35,2.18,1.02,2.94c.7,.77,1.57,1.15,2.62,1.15s1.92-.38,2.59-1.15c.7-.77,1.06-1.76,1.06-2.94Z"/><path class="cls-2" d="M434.1,590.97h-8.03c.26,1.7,1.57,2.88,3.52,2.88,1.09,0,2.02-.32,2.82-.96,1.25-.9,2.4-.61,3.2,.45,.74,.9,.51,2.18-.67,3.1-1.38,1.06-3.14,1.57-5.22,1.57-2.4,0-4.35-.74-5.92-2.21-1.57-1.5-2.34-3.46-2.34-5.89s.7-4.38,2.14-5.95c1.44-1.57,3.29-2.37,5.57-2.37,1.57,0,2.94,.38,4.13,1.12,2.4,1.5,3.33,3.62,3.33,5.76,0,1.66-.83,2.5-2.53,2.5Zm-7.81-3.04h5.63c-.1-1.31-1.15-2.34-2.66-2.34-1.63,0-2.69,.96-2.98,2.34Z"/><path class="cls-2" d="M449.58,595.42c-.58,1.63-1.63,2.43-3.14,2.43s-2.46-.8-3.14-2.43l-4.19-10.4c-.54-1.41,.1-2.72,1.38-3.1,1.25-.38,2.43,.29,2.91,1.73l3.04,8.03,3.04-8.03c.48-1.44,1.73-2.11,2.98-1.73,1.25,.38,1.82,1.66,1.28,3.1l-4.16,10.4Z"/><path class="cls-2" d="M467.99,590.97h-8.03c.26,1.7,1.57,2.88,3.52,2.88,1.09,0,2.02-.32,2.82-.96,1.25-.9,2.4-.61,3.2,.45,.74,.9,.51,2.18-.67,3.1-1.38,1.06-3.14,1.57-5.22,1.57-2.4,0-4.35-.74-5.92-2.21-1.57-1.5-2.34-3.46-2.34-5.89s.7-4.38,2.14-5.95c1.44-1.57,3.3-2.37,5.57-2.37,1.57,0,2.94,.38,4.13,1.12,2.4,1.5,3.33,3.62,3.33,5.76,0,1.66-.83,2.5-2.53,2.5Zm-7.81-3.04h5.63c-.1-1.31-1.15-2.34-2.66-2.34-1.63,0-2.69,.96-2.98,2.34Z"/><path class="cls-2" d="M478.93,595.39c.19,3.2-4.74,3.2-4.54,0v-17.85c-.19-3.2,4.74-3.2,4.54,0v17.85Z"/><path class="cls-2" d="M482.71,589.82c0-2.34,.8-4.29,2.37-5.86,1.6-1.57,3.58-2.37,5.92-2.37s4.32,.8,5.89,2.37c1.6,1.57,2.4,3.52,2.4,5.86s-.8,4.29-2.37,5.86-3.55,2.34-5.92,2.34-4.35-.77-5.92-2.34c-1.57-1.57-2.37-3.52-2.37-5.86Zm4.64,0c0,1.15,.35,2.11,1.02,2.85s1.57,1.12,2.62,1.12,1.95-.38,2.62-1.12,1.02-1.7,1.02-2.85-.35-2.11-1.02-2.85-1.57-1.12-2.62-1.12-1.95,.38-2.62,1.12-1.02,1.7-1.02,2.85Z"/><path class="cls-2" d="M503.06,584.22c0-1.54,.99-2.43,2.27-2.43,1.09,0,1.79,.48,2.11,1.47,.8-.99,2.5-1.66,4.19-1.66,2.21,0,4.06,.77,5.57,2.27s2.27,3.49,2.27,5.95-.77,4.42-2.27,5.92-3.36,2.27-5.57,2.27c-1.63,0-2.98-.45-4.03-1.38v4.96c.19,3.2-4.74,3.2-4.54,0v-17.38Zm4.48,5.6c0,1.18,.35,2.18,1.02,2.94,.71,.77,1.57,1.15,2.62,1.15s1.92-.38,2.59-1.15c.7-.77,1.06-1.76,1.06-2.94s-.35-2.18-1.06-2.94c-.67-.77-1.54-1.15-2.59-1.15s-1.92,.38-2.62,1.15c-.67,.77-1.02,1.76-1.02,2.94Z"/><path class="cls-2" d="M523.22,584.25c0-1.5,.99-2.43,2.27-2.43,1.06,0,1.76,.48,2.11,1.41,.93-1.09,2.24-1.63,3.87-1.63,1.82,0,3.26,.64,4.35,1.89,1.25-1.25,2.82-1.89,4.7-1.89,4.19,0,6.56,2.5,6.56,6.94v6.85c.19,3.2-4.74,3.2-4.54,0v-6.66c0-1.76-.83-2.91-2.4-2.91-1.7,0-2.72,1.31-2.72,3.49v6.08c.19,3.2-4.74,3.2-4.54,0v-6.66c0-1.76-.83-2.91-2.4-2.91-1.79,0-2.72,1.38-2.72,3.81v5.76c.19,3.2-4.74,3.2-4.54,0v-11.13Z"/><path class="cls-2" d="M563.15,590.97h-8.03c.26,1.7,1.57,2.88,3.52,2.88,1.09,0,2.02-.32,2.82-.96,1.25-.9,2.4-.61,3.2,.45,.74,.9,.51,2.18-.67,3.1-1.38,1.06-3.14,1.57-5.22,1.57-2.4,0-4.35-.74-5.92-2.21-1.57-1.5-2.33-3.46-2.33-5.89s.7-4.38,2.14-5.95c1.44-1.57,3.3-2.37,5.57-2.37,1.57,0,2.94,.38,4.13,1.12,2.4,1.5,3.33,3.62,3.33,5.76,0,1.66-.83,2.5-2.53,2.5Zm-7.81-3.04h5.63c-.1-1.31-1.15-2.34-2.66-2.34-1.63,0-2.69,.96-2.98,2.34Z"/><path class="cls-2" d="M569.55,584.25c0-1.5,.99-2.43,2.27-2.43,1.06,0,1.76,.48,2.11,1.41,.93-1.09,2.18-1.63,3.81-1.63,3.87,0,6.37,2.56,6.37,6.94v6.85c0,1.5-.96,2.43-2.27,2.43s-2.27-.93-2.27-2.43v-6.5c0-1.79-.83-3.07-2.59-3.07-1.92,0-2.88,1.34-2.88,4v5.57c.19,3.2-4.74,3.2-4.54,0v-11.13Z"/><path class="cls-2" d="M597.13,595.64c0,1.18-.86,2.08-2.43,2.08h-.42c-3.65,0-5.47-1.86-5.47-5.6v-5.95h-.58c-1.41,0-2.27-.9-2.27-2.08s.86-2.11,2.27-2.11h.58v-2.11c-.19-3.2,4.74-3.2,4.51,0v2.11h1.54c1.41,0,2.27,.93,2.27,2.11s-.86,2.08-2.27,2.08h-1.54v5.41c0,1.31,.54,1.82,1.6,1.92,1.44,.16,2.21,.96,2.21,2.14Z"/></g><g><path class="cls-2" d="M416.7,126.64c0-1.57,.99-2.53,2.37-2.53s2.37,.96,2.37,2.53v17.69c0,1.57-.99,2.53-2.37,2.53s-2.37-.96-2.37-2.53v-17.69Z"/><path class="cls-2" d="M426.46,133.29c0-1.5,.99-2.43,2.27-2.43,1.06,0,1.76,.48,2.11,1.41,.93-1.09,2.18-1.63,3.81-1.63,3.87,0,6.37,2.56,6.37,6.94v6.85c0,1.5-.96,2.43-2.27,2.43s-2.27-.93-2.27-2.43v-6.5c0-1.79-.83-3.07-2.59-3.07-1.92,0-2.88,1.34-2.88,4v5.57c.19,3.2-4.74,3.2-4.54,0v-11.14Z"/><path class="cls-2" d="M452.86,134.86c-2.27,0-3.81,1.66-3.81,4s1.54,4,3.81,4c.86,0,1.73-.35,2.59-1.02,1.25-.9,2.4-.61,3.2,.45,.74,.9,.51,2.18-.67,3.1-1.47,1.12-3.23,1.66-5.28,1.66-2.37,0-4.35-.77-5.92-2.34-1.57-1.57-2.37-3.52-2.37-5.86s.8-4.29,2.37-5.86c1.6-1.57,3.58-2.37,5.92-2.37,1.82,0,3.42,.48,4.77,1.47,1.18,.93,1.5,2.27,.83,3.17-.74,1.02-1.89,1.28-3.14,.42-.74-.54-1.5-.83-2.3-.83Z"/><path class="cls-2" d="M476.99,144.43c0,1.5-.99,2.43-2.27,2.43-1.02,0-1.73-.48-2.08-1.41-.9,1.06-2.18,1.6-3.87,1.6-3.84,0-5.98-2.46-5.98-6.91v-6.85c-.19-3.2,4.74-3.2,4.54,0v6.5c0,2.05,.8,3.07,2.4,3.07,2.02,0,2.72-1.41,2.72-4v-5.57c-.19-3.2,4.74-3.2,4.54,0v11.14Z"/><path class="cls-2" d="M482.04,126.58c-.19-3.2,4.74-3.2,4.54,0v5.44c1.06-.93,2.4-1.38,4.03-1.38,2.21,0,4.06,.77,5.57,2.3,1.5,1.5,2.27,3.49,2.27,5.92s-.77,4.45-2.27,5.95-3.36,2.24-5.57,2.24c-1.7,0-3.39-.67-4.19-1.66-.32,.99-1.02,1.47-2.11,1.47-1.28,0-2.27-.93-2.27-2.43v-17.86Zm4.48,12.29c0,1.18,.35,2.18,1.02,2.94,.7,.77,1.57,1.15,2.62,1.15s1.92-.38,2.59-1.15c.7-.77,1.06-1.76,1.06-2.94s-.35-2.18-1.06-2.94c-.67-.77-1.54-1.15-2.59-1.15s-1.92,.38-2.62,1.15c-.67,.77-1.02,1.76-1.02,2.94Z"/><path class="cls-2" d="M508.44,130.64c1.95,0,3.55,.58,4.8,1.7s1.86,2.62,1.86,4.58v7.52c0,1.5-.99,2.43-2.27,2.43-1.06,0-1.76-.48-2.11-1.44-1.09,1.09-2.43,1.63-4,1.63s-2.82-.45-3.81-1.34c-.99-.93-1.47-2.08-1.47-3.49,0-1.63,.58-2.85,1.76-3.68,1.18-.83,2.69-1.28,4.45-1.34l2.88-.13c0-1.6-.8-2.4-2.4-2.4-.96,0-1.82,.26-2.62,.8-1.18,.8-2.34,.7-3.01-.19-.74-.86-.51-2.14,.54-3.01,1.38-1.09,3.2-1.63,5.41-1.63Zm-.61,12.57c.93,0,1.82-.32,2.69-.96v-1.86l-2.02,.16c-1.66,.1-2.5,.54-2.5,1.41,0,.77,.67,1.25,1.82,1.25Z"/><path class="cls-2" d="M528.28,144.69c0,1.18-.86,2.08-2.43,2.08h-.42c-3.65,0-5.47-1.86-5.47-5.6v-5.95h-.58c-1.41,0-2.27-.9-2.27-2.08s.86-2.11,2.27-2.11h.58v-2.11c-.19-3.2,4.74-3.2,4.51,0v2.11h1.54c1.41,0,2.27,.93,2.27,2.11s-.86,2.08-2.27,2.08h-1.54v5.41c0,1.31,.54,1.82,1.6,1.92,1.44,.16,2.21,.96,2.21,2.14Z"/><path class="cls-2" d="M534.49,123.92c1.5,0,2.66,1.15,2.66,2.66s-1.22,2.62-2.66,2.62-2.62-1.18-2.62-2.62,1.18-2.66,2.62-2.66Zm0,22.94c-1.31,0-2.27-.93-2.27-2.43v-11.14c0-1.5,.96-2.43,2.27-2.43s2.27,.93,2.27,2.43v11.14c0,1.5-.96,2.43-2.27,2.43Z"/><path class="cls-2" d="M541.98,133.29c0-1.5,.99-2.43,2.27-2.43,1.06,0,1.76,.48,2.11,1.41,.93-1.09,2.18-1.63,3.81-1.63,3.87,0,6.37,2.56,6.37,6.94v6.85c0,1.5-.96,2.43-2.27,2.43s-2.27-.93-2.27-2.43v-6.5c0-1.79-.83-3.07-2.59-3.07-1.92,0-2.88,1.34-2.88,4v5.57c.19,3.2-4.74,3.2-4.54,0v-11.14Z"/><path class="cls-2" d="M561.5,148.27c.8-.86,1.89-.9,3.26-.03,.93,.54,1.82,.83,2.72,.83,2.4,0,3.94-1.41,3.94-3.49v-.42c-.9,.8-2.18,1.18-3.81,1.18-2.24,0-4.1-.7-5.54-2.11-1.44-1.41-2.14-3.33-2.14-5.73s.74-4.35,2.24-5.76,3.3-2.11,5.44-2.11c1.66,0,3.01,.54,4,1.66,.32-.99,1.02-1.47,2.11-1.47,1.31,0,2.27,.9,2.27,2.43v11.81c0,2.43-.77,4.42-2.27,5.92s-3.55,2.27-6.21,2.27c-2.24,0-4.13-.58-5.7-1.73-1.18-.9-1.18-2.37-.32-3.26Zm6.53-13.5c-1.92,0-3.46,1.54-3.46,3.74s1.54,3.71,3.46,3.71,3.49-1.54,3.49-3.71-1.54-3.74-3.49-3.74Z"/></g><g><path class="cls-2" d="M414.42,363.24v5.33c0,1.76-1.15,2.84-2.7,2.84s-2.66-1.08-2.66-2.84v-19.11c0-2.16,1.26-3.42,3.42-3.42h6.8c2.99,0,5.36,.76,7.16,2.27,1.8,1.51,2.7,3.56,2.7,6.15s-.9,4.75-2.73,6.37c-1.83,1.62-4.21,2.41-7.12,2.41h-4.86Zm0-12.27v7.34h3.92c3.63,0,5.47-1.26,5.47-3.74s-1.76-3.6-5.47-3.6h-3.92Z"/><path class="cls-2" d="M439.5,353.17c2.2,0,3.99,.65,5.4,1.91s2.09,2.95,2.09,5.15v8.46c0,1.69-1.12,2.73-2.55,2.73-1.19,0-1.98-.54-2.38-1.62-1.22,1.22-2.73,1.83-4.5,1.83s-3.17-.5-4.28-1.51c-1.12-1.04-1.66-2.34-1.66-3.92,0-1.84,.65-3.2,1.98-4.14,1.33-.93,3.02-1.44,5-1.51l3.24-.14c0-1.8-.9-2.7-2.7-2.7-1.08,0-2.05,.29-2.95,.9-1.33,.9-2.63,.79-3.38-.22-.83-.97-.58-2.41,.61-3.38,1.55-1.22,3.6-1.83,6.08-1.83Zm-.68,14.14c1.04,0,2.05-.36,3.02-1.08v-2.09l-2.27,.18c-1.87,.11-2.81,.61-2.81,1.58,0,.86,.76,1.4,2.05,1.4Z"/><path class="cls-2" d="M465.19,356.01c0,1.4-.97,2.37-2.23,2.37-.25,0-.79-.07-1.12-.07-2.45,0-4.32,1.98-4.32,5.54v4.82c.22,3.6-5.33,3.6-5.11,0v-12.52c0-1.69,1.12-2.73,2.55-2.73,1.33,0,2.3,.86,2.48,2.12,1.01-1.4,2.73-2.2,4.28-2.2,.61,0,1.08,.04,1.44,.14,1.15,.29,2.01,1.19,2.01,2.52Z"/><path class="cls-2" d="M478.68,368.96c0,1.33-.97,2.34-2.74,2.34h-.47c-4.1,0-6.15-2.09-6.15-6.3v-6.69h-.65c-1.58,0-2.55-1.01-2.55-2.34s.97-2.38,2.55-2.38h.65v-2.38c-.22-3.6,5.33-3.6,5.07,0v2.38h1.73c1.58,0,2.55,1.04,2.55,2.38s-.97,2.34-2.55,2.34h-1.73v6.08c0,1.47,.61,2.05,1.8,2.16,1.62,.18,2.48,1.08,2.48,2.41Z"/><path class="cls-2" d="M482.92,356.15c0-1.69,1.12-2.73,2.55-2.73,1.19,0,1.98,.54,2.38,1.58,1.04-1.22,2.45-1.83,4.28-1.83,4.35,0,7.16,2.88,7.16,7.81v7.7c0,1.69-1.08,2.73-2.55,2.73s-2.55-1.04-2.55-2.73v-7.3c0-2.01-.94-3.45-2.92-3.45-2.16,0-3.24,1.51-3.24,4.5v6.26c.22,3.6-5.33,3.6-5.11,0v-12.52Z"/><path class="cls-2" d="M517.35,363.71h-9.03c.29,1.91,1.76,3.24,3.96,3.24,1.22,0,2.27-.36,3.17-1.08,1.4-1.01,2.7-.68,3.6,.5,.83,1.01,.58,2.45-.75,3.49-1.55,1.19-3.53,1.76-5.87,1.76-2.7,0-4.89-.83-6.66-2.48-1.76-1.69-2.63-3.89-2.63-6.62s.79-4.93,2.41-6.69c1.62-1.76,3.71-2.66,6.26-2.66,1.76,0,3.31,.43,4.64,1.26,2.7,1.69,3.74,4.07,3.74,6.48,0,1.87-.94,2.81-2.84,2.81Zm-8.78-3.42h6.33c-.11-1.47-1.3-2.63-2.99-2.63-1.83,0-3.02,1.08-3.35,2.63Z"/><path class="cls-2" d="M537.32,356.01c0,1.4-.97,2.37-2.23,2.37-.25,0-.79-.07-1.12-.07-2.45,0-4.32,1.98-4.32,5.54v4.82c.22,3.6-5.33,3.6-5.11,0v-12.52c0-1.69,1.12-2.73,2.55-2.73,1.33,0,2.3,.86,2.48,2.12,1.01-1.4,2.73-2.2,4.28-2.2,.61,0,1.08,.04,1.44,.14,1.15,.29,2.01,1.19,2.01,2.52Z"/><path class="cls-2" d="M542.93,345.61c1.69,0,2.99,1.3,2.99,2.99s-1.37,2.95-2.99,2.95-2.95-1.33-2.95-2.95,1.33-2.99,2.95-2.99Zm0,25.8c-1.47,0-2.55-1.04-2.55-2.73v-12.52c0-1.69,1.08-2.73,2.55-2.73s2.55,1.04,2.55,2.73v12.52c0,1.69-1.08,2.73-2.55,2.73Z"/><path class="cls-2" d="M551.35,356.15c0-1.69,1.12-2.73,2.55-2.73,1.19,0,1.98,.54,2.38,1.58,1.04-1.22,2.45-1.83,4.28-1.83,4.35,0,7.16,2.88,7.16,7.81v7.7c0,1.69-1.08,2.73-2.55,2.73s-2.55-1.04-2.55-2.73v-7.3c0-2.01-.94-3.45-2.91-3.45-2.16,0-3.24,1.51-3.24,4.5v6.26c.22,3.6-5.33,3.6-5.11,0v-12.52Z"/><path class="cls-2" d="M573.29,372.99c.9-.97,2.12-1.01,3.67-.04,1.04,.61,2.05,.94,3.06,.94,2.7,0,4.43-1.58,4.43-3.92v-.47c-1.01,.9-2.45,1.33-4.28,1.33-2.52,0-4.61-.79-6.22-2.37s-2.41-3.74-2.41-6.44,.83-4.89,2.52-6.48,3.71-2.38,6.12-2.38c1.87,0,3.38,.61,4.5,1.87,.36-1.12,1.15-1.66,2.38-1.66,1.48,0,2.55,1.01,2.55,2.74v13.28c0,2.73-.86,4.96-2.55,6.66-1.69,1.69-3.99,2.55-6.98,2.55-2.52,0-4.64-.65-6.4-1.94-1.33-1.01-1.33-2.66-.36-3.67Zm7.34-15.18c-2.16,0-3.88,1.73-3.88,4.21s1.73,4.17,3.88,4.17,3.92-1.73,3.92-4.17-1.73-4.21-3.92-4.21Z"/></g><g><path class="cls-2" d="M837.75,114.58c.54-1.44,1.57-2.14,3.04-2.14s2.53,.7,3.07,2.11l6.85,17.47c.54,1.41-.13,2.59-1.41,3.01-1.38,.42-2.37-.1-2.98-1.57l-1.18-2.88h-8.67l-1.15,2.88c-.54,1.44-1.73,1.95-2.98,1.57-1.28-.42-1.95-1.6-1.41-3.01l6.82-17.44Zm3.07,4.45l-2.78,7.33h5.57l-2.78-7.33Z"/><path class="cls-2" d="M861.24,123.15c-2.27,0-3.81,1.66-3.81,4s1.54,4,3.81,4c.86,0,1.73-.35,2.59-1.02,1.25-.9,2.4-.61,3.2,.45,.74,.9,.51,2.18-.67,3.1-1.47,1.12-3.23,1.66-5.28,1.66-2.37,0-4.35-.77-5.92-2.34-1.57-1.57-2.37-3.52-2.37-5.86s.8-4.29,2.37-5.86c1.6-1.57,3.58-2.37,5.92-2.37,1.82,0,3.42,.48,4.77,1.47,1.18,.93,1.5,2.27,.83,3.17-.74,1.02-1.89,1.28-3.14,.42-.74-.54-1.5-.83-2.3-.83Z"/><path class="cls-2" d="M878.52,123.15c-2.27,0-3.81,1.66-3.81,4s1.54,4,3.81,4c.86,0,1.73-.35,2.59-1.02,1.25-.9,2.4-.61,3.2,.45,.74,.9,.51,2.18-.67,3.1-1.47,1.12-3.23,1.66-5.28,1.66-2.37,0-4.35-.77-5.92-2.34s-2.37-3.52-2.37-5.86,.8-4.29,2.37-5.86c1.6-1.57,3.58-2.37,5.92-2.37,1.82,0,3.42,.48,4.77,1.47,1.18,.93,1.5,2.27,.83,3.17-.74,1.02-1.89,1.28-3.13,.42-.74-.54-1.5-.83-2.3-.83Z"/><path class="cls-2" d="M900.03,128.3h-8.03c.26,1.7,1.57,2.88,3.52,2.88,1.09,0,2.02-.32,2.82-.96,1.25-.9,2.4-.61,3.2,.45,.74,.9,.51,2.18-.67,3.1-1.38,1.06-3.14,1.57-5.22,1.57-2.4,0-4.35-.74-5.92-2.21-1.57-1.5-2.33-3.46-2.33-5.89s.7-4.38,2.14-5.95c1.44-1.57,3.3-2.37,5.57-2.37,1.57,0,2.94,.38,4.13,1.12,2.4,1.5,3.33,3.62,3.33,5.76,0,1.66-.83,2.5-2.53,2.5Zm-7.81-3.04h5.63c-.1-1.31-1.15-2.34-2.66-2.34-1.63,0-2.69,.96-2.98,2.34Z"/><path class="cls-2" d="M910.97,132.72c.19,3.2-4.74,3.2-4.54,0v-17.85c-.19-3.2,4.74-3.2,4.54,0v17.85Z"/><path class="cls-2" d="M927.39,128.3h-8.03c.26,1.7,1.57,2.88,3.52,2.88,1.09,0,2.02-.32,2.82-.96,1.25-.9,2.4-.61,3.2,.45,.74,.9,.51,2.18-.67,3.1-1.38,1.06-3.14,1.57-5.22,1.57-2.4,0-4.35-.74-5.92-2.21-1.57-1.5-2.33-3.46-2.33-5.89s.7-4.38,2.14-5.95c1.44-1.57,3.3-2.37,5.57-2.37,1.57,0,2.94,.38,4.13,1.12,2.4,1.5,3.33,3.62,3.33,5.76,0,1.66-.83,2.5-2.53,2.5Zm-7.81-3.04h5.63c-.1-1.31-1.15-2.34-2.66-2.34-1.63,0-2.69,.96-2.98,2.34Z"/><path class="cls-2" d="M945.15,121.46c0,1.25-.86,2.11-1.98,2.11-.22,0-.7-.06-.99-.06-2.18,0-3.84,1.76-3.84,4.93v4.29c.19,3.2-4.74,3.2-4.54,0v-11.14c0-1.5,.99-2.43,2.27-2.43,1.18,0,2.05,.77,2.21,1.89,.9-1.25,2.43-1.95,3.81-1.95,.54,0,.96,.03,1.28,.13,1.02,.26,1.79,1.06,1.79,2.24Z"/><path class="cls-2" d="M953.56,118.93c1.95,0,3.55,.58,4.8,1.7,1.25,1.12,1.86,2.62,1.86,4.58v7.52c0,1.5-.99,2.43-2.27,2.43-1.06,0-1.76-.48-2.11-1.44-1.09,1.09-2.43,1.63-4,1.63s-2.82-.45-3.81-1.34c-.99-.93-1.47-2.08-1.47-3.49,0-1.63,.58-2.85,1.76-3.68,1.18-.83,2.69-1.28,4.45-1.34l2.88-.13c0-1.6-.8-2.4-2.4-2.4-.96,0-1.82,.26-2.62,.8-1.18,.8-2.34,.7-3.01-.19-.74-.86-.51-2.14,.54-3.01,1.38-1.09,3.2-1.63,5.41-1.63Zm-.61,12.58c.93,0,1.82-.32,2.69-.96v-1.86l-2.02,.16c-1.66,.1-2.5,.54-2.5,1.41,0,.77,.67,1.25,1.82,1.25Z"/><path class="cls-2" d="M973.4,132.97c0,1.18-.86,2.08-2.43,2.08h-.42c-3.65,0-5.47-1.86-5.47-5.6v-5.95h-.58c-1.41,0-2.27-.9-2.27-2.08s.86-2.11,2.27-2.11h.58v-2.11c-.19-3.2,4.74-3.2,4.51,0v2.11h1.54c1.41,0,2.27,.93,2.27,2.11s-.86,2.08-2.27,2.08h-1.54v5.41c0,1.31,.54,1.82,1.6,1.92,1.44,.16,2.21,.96,2.21,2.14Z"/><path class="cls-2" d="M979.61,112.21c1.5,0,2.66,1.15,2.66,2.66s-1.22,2.62-2.66,2.62-2.62-1.18-2.62-2.62,1.18-2.66,2.62-2.66Zm0,22.94c-1.31,0-2.27-.93-2.27-2.43v-11.14c0-1.5,.96-2.43,2.27-2.43s2.27,.93,2.27,2.43v11.14c0,1.5-.96,2.43-2.27,2.43Z"/><path class="cls-2" d="M987.1,121.58c0-1.5,.99-2.43,2.27-2.43,1.06,0,1.76,.48,2.11,1.41,.93-1.09,2.18-1.63,3.81-1.63,3.87,0,6.37,2.56,6.37,6.94v6.85c0,1.5-.96,2.43-2.27,2.43s-2.27-.93-2.27-2.43v-6.5c0-1.79-.83-3.07-2.59-3.07-1.92,0-2.88,1.34-2.88,4v5.57c.19,3.2-4.74,3.2-4.54,0v-11.14Z"/><path class="cls-2" d="M1006.62,136.56c.8-.86,1.89-.9,3.26-.03,.93,.54,1.82,.83,2.72,.83,2.4,0,3.94-1.41,3.94-3.49v-.42c-.9,.8-2.18,1.18-3.81,1.18-2.24,0-4.1-.7-5.54-2.11s-2.14-3.33-2.14-5.73,.74-4.35,2.24-5.76c1.5-1.41,3.3-2.11,5.44-2.11,1.66,0,3.01,.54,4,1.66,.32-.99,1.02-1.47,2.11-1.47,1.31,0,2.27,.9,2.27,2.43v11.81c0,2.43-.77,4.42-2.27,5.92s-3.55,2.27-6.21,2.27c-2.24,0-4.13-.58-5.7-1.73-1.18-.9-1.18-2.37-.32-3.26Zm6.53-13.5c-1.92,0-3.46,1.54-3.46,3.74s1.54,3.71,3.46,3.71,3.49-1.54,3.49-3.71-1.54-3.74-3.49-3.74Z"/></g><g><path class="cls-2" d="M874.47,330.77c1.62,0,2.63,1.04,2.63,2.48s-1.01,2.45-2.63,2.45h-4.96v17.59c0,1.76-1.15,2.84-2.7,2.84s-2.66-1.08-2.66-2.84v-17.59h-4.93c-1.62,0-2.63-1.04-2.63-2.45s1.01-2.48,2.63-2.48h15.25Z"/><path class="cls-2" d="M885.26,337.89c2.19,0,3.99,.65,5.4,1.91,1.4,1.26,2.09,2.95,2.09,5.15v8.46c0,1.69-1.12,2.73-2.55,2.73-1.19,0-1.98-.54-2.37-1.62-1.22,1.22-2.74,1.83-4.5,1.83s-3.17-.5-4.28-1.51c-1.12-1.04-1.66-2.34-1.66-3.92,0-1.83,.65-3.2,1.98-4.14s3.02-1.44,5-1.51l3.24-.14c0-1.8-.9-2.7-2.7-2.7-1.08,0-2.05,.29-2.95,.9-1.33,.9-2.63,.79-3.38-.22-.83-.97-.58-2.41,.61-3.38,1.55-1.22,3.6-1.84,6.08-1.84Zm-.68,14.14c1.04,0,2.05-.36,3.02-1.08v-2.09l-2.27,.18c-1.87,.11-2.81,.61-2.81,1.58,0,.86,.75,1.4,2.05,1.4Z"/><path class="cls-2" d="M903.29,353.4c.21,3.6-5.33,3.6-5.11,0v-20.08c-.22-3.6,5.32-3.6,5.11,0v20.08Z"/><path class="cls-2" d="M921.74,348.44h-9.03c.29,1.91,1.76,3.24,3.96,3.24,1.22,0,2.27-.36,3.17-1.08,1.4-1.01,2.7-.68,3.6,.5,.83,1.01,.58,2.45-.76,3.49-1.55,1.19-3.53,1.76-5.86,1.76-2.7,0-4.89-.83-6.66-2.48-1.76-1.69-2.63-3.89-2.63-6.62s.79-4.93,2.41-6.69,3.71-2.66,6.26-2.66c1.76,0,3.31,.43,4.64,1.26,2.7,1.69,3.74,4.07,3.74,6.48,0,1.87-.94,2.81-2.84,2.81Zm-8.78-3.42h6.33c-.11-1.48-1.3-2.63-2.99-2.63-1.84,0-3.02,1.08-3.35,2.63Z"/><path class="cls-2" d="M928.94,340.88c0-1.69,1.12-2.73,2.55-2.73,1.19,0,1.98,.54,2.38,1.58,1.04-1.22,2.45-1.84,4.28-1.84,4.35,0,7.16,2.88,7.16,7.81v7.7c0,1.69-1.08,2.73-2.55,2.73s-2.55-1.04-2.55-2.73v-7.3c0-2.01-.94-3.45-2.92-3.45-2.16,0-3.24,1.51-3.24,4.5v6.26c.22,3.6-5.33,3.6-5.11,0v-12.52Z"/><path class="cls-2" d="M959.95,353.69c0,1.33-.97,2.34-2.73,2.34h-.47c-4.1,0-6.15-2.09-6.15-6.3v-6.69h-.65c-1.58,0-2.55-1.01-2.55-2.34s.97-2.38,2.55-2.38h.65v-2.37c-.22-3.6,5.33-3.6,5.07,0v2.37h1.73c1.58,0,2.55,1.04,2.55,2.38s-.97,2.34-2.55,2.34h-1.73v6.08c0,1.47,.61,2.05,1.8,2.16,1.62,.18,2.48,1.08,2.48,2.41Z"/></g><g><polyline class="cls-4" points="160.87 235.13 226.89 356.16 156.83 470.63 28.84 472.78"/><polyline class="cls-4" points="825.42 10.68 772.61 120.7 636.18 120.7 563.8 11.76"/><polygon class="cls-4" points="562.83 241.12 429.47 241.12 362.79 355.85 432.26 470.58 562.83 470.58 629.51 355.85 562.83 241.12"/><polygon class="cls-4" points="362.79 353.96 227.25 353.96 159.47 467.74 227.25 581.53 368.92 581.53 432.26 470.58 362.79 353.96"/><polygon class="cls-4" points="564.36 470.58 434.07 470.58 368.92 581.53 434.07 692.47 564.36 692.47 629.51 581.53 564.36 470.58"/><polygon class="cls-4" points="770.46 120.7 634.13 120.7 562.52 239.12 629.51 355.85 770.46 353.96 838.63 237.33 770.46 120.7"/><polygon class="cls-4" points="978.12 237.33 839.03 237.33 769.48 355.85 839.03 474.37 978.12 474.37 1047.67 355.85 978.12 237.33"/><circle class="cls-1" cx="158.96" cy="239.28" r="15.93"/><circle class="cls-1" cx="432.26" cy="708.41" r="15.93"/><circle class="cls-1" cx="567.96" cy="708.41" r="15.93"/><circle class="cls-1" cx="970.64" cy="474.37" r="15.93"/><circle class="cls-1" cx="1043.21" cy="355.85" r="15.93"/><circle class="cls-1" cx="824.81" cy="21.51" r="15.93"/><circle class="cls-1" cx="21.03" cy="472.78" r="15.93"/><circle class="cls-3" cx="222.63" cy="590.92" r="15.93"/><circle class="cls-3" cx="839.03" cy="474.37" r="15.93"/><circle class="cls-3" cx="976.81" cy="237.33" r="15.93"/><circle class="cls-3" cx="634.22" cy="581.53" r="15.93"/></g><polyline class="cls-4" points="424.7 229.65 368.92 120.7 437.77 11.76 563.8 11.76"/><circle class="cls-3" cx="432.26" cy="241.12" r="15.93"/><circle class="cls-1" cx="567.45" cy="15.93" r="15.93"/></g></g></svg>