<?xml version="1.0" encoding="UTF-8"?><svg id="Layer_2" xmlns="http://www.w3.org/2000/svg" viewBox="0 0 606.05 97.44"><defs><style>.cls-1,.cls-2{fill:#fff;}.cls-3{fill:#8e402b;}.cls-4{fill:#0d2175;}.cls-5{letter-spacing:-.02em;}.cls-6{letter-spacing:-.01em;}.cls-2{font-family:MaaxRounded-Medium, 'Maax Rounded';font-size:92.06px;}</style></defs><g id="Capa_1"><g><g><path class="cls-4" d="M62.47,12.47h-29.08C15.24,12.47,.18,26.97,0,45.12c-.18,18.33,14.68,33.3,32.97,33.3H105.97c3.49,0,6.32-2.83,6.32-6.32V18.79c0-3.49-2.83-6.32-6.32-6.32H62.47Z"/><path class="cls-1" d="M79.63,66.22c-11.46,0-20.78-9.32-20.78-20.78s9.32-20.78,20.78-20.78,20.78,9.32,20.78,20.78-9.32,20.78-20.78,20.78Zm0-35.23c-7.97,0-14.45,6.48-14.45,14.45s6.48,14.45,14.45,14.45,14.45-6.48,14.45-14.45-6.48-14.45-14.45-14.45Z"/><path class="cls-3" d="M79.63,54.93c-1.75,0-3.16-1.42-3.16-3.16v-12.65c0-1.75,1.42-3.16,3.16-3.16s3.16,1.42,3.16,3.16v12.65c0,1.75-1.42,3.16-3.16,3.16Z"/><path class="cls-1" d="M50.59,42.28h-16c-1.75,0-3.16,1.42-3.16,3.16s1.42,3.16,3.16,3.16h12.48c-1.45,6.45-7.22,11.29-14.1,11.29-7.97,0-14.45-6.48-14.45-14.45s6.48-14.45,14.45-14.45c3.38,0,6.67,1.2,9.27,3.37,1.34,1.12,3.33,.94,4.45-.39,1.12-1.34,.95-3.33-.39-4.45-3.73-3.13-8.46-4.85-13.33-4.85-11.46,0-20.78,9.32-20.78,20.78s9.32,20.78,20.78,20.78c5.61,0,10.71-2.24,14.45-5.87v2.71c0,1.75,1.42,3.16,3.16,3.16s3.16-1.42,3.16-3.16v-17.62c0-1.75-1.42-3.16-3.16-3.16Z"/></g><text class="cls-2" transform="translate(117.5 78.3)"><tspan class="cls-5" x="0" y="0">V</tspan><tspan class="cls-6" x="60.94" y="0">E</tspan><tspan class="cls-5" x="120.59" y="0">NTURES</tspan></text></g></g></svg>