<?xml version="1.0" encoding="UTF-8"?><svg id="Layer_2" xmlns="http://www.w3.org/2000/svg" viewBox="0 0 297.18 32.97"><defs><style>.cls-1{fill:#fff;}.cls-2{fill:#8e402b;}.cls-3{fill:#0d2175;}</style></defs><g id="Capa_1"><g><g><path class="cls-3" d="M30.82,0h-14.34C7.52,0,.09,7.15,0,16.1s7.24,16.43,16.26,16.43H52.27c1.72,0,3.12-1.4,3.12-3.12V3.12C55.39,1.4,54,0,52.27,0H30.82Z"/><path class="cls-1" d="M39.28,26.51c-5.65,0-10.25-4.6-10.25-10.25s4.6-10.25,10.25-10.25,10.25,4.6,10.25,10.25-4.6,10.25-10.25,10.25Zm0-17.38c-3.93,0-7.13,3.2-7.13,7.13s3.2,7.13,7.13,7.13,7.13-3.2,7.13-7.13-3.2-7.13-7.13-7.13Z"/><path class="cls-2" d="M39.28,20.94c-.86,0-1.56-.7-1.56-1.56v-6.24c0-.86,.7-1.56,1.56-1.56s1.56,.7,1.56,1.56v6.24c0,.86-.7,1.56-1.56,1.56Z"/><path class="cls-1" d="M24.95,14.71h-7.89c-.86,0-1.56,.7-1.56,1.56s.7,1.56,1.56,1.56h6.16c-.71,3.18-3.56,5.57-6.96,5.57-3.93,0-7.13-3.2-7.13-7.13s3.2-7.13,7.13-7.13c1.67,0,3.29,.59,4.57,1.66,.66,.55,1.64,.47,2.2-.19,.55-.66,.47-1.64-.19-2.2-1.84-1.54-4.17-2.39-6.57-2.39-5.65,0-10.25,4.6-10.25,10.25s4.6,10.25,10.25,10.25c2.77,0,5.28-1.11,7.13-2.9v1.34c0,.86,.7,1.56,1.56,1.56s1.56-.7,1.56-1.56v-8.69c0-.86-.7-1.56-1.56-1.56Z"/></g><g><path class="cls-1" d="M73.99,25.79L82.39,2.23c.5-1.41,2.13-2.18,3.54-1.63,1.41,.5,2.04,2.09,1.5,3.5l-9.54,25.61c-.68,2-2,3-3.95,3s-3.13-.95-3.81-2.91L60.55,4.09c-.54-1.41,.09-3,1.5-3.5,1.41-.54,3.04,.23,3.54,1.63l8.4,23.57Z"/><path class="cls-1" d="M92.11,3.5c0-1.63,1.27-2.86,2.86-2.86h17.53c1.32,0,2.45,1.09,2.45,2.5,0,1.32-1.09,2.41-2.5,2.41h-14.94V13.76h14.21c1.32,0,2.45,1.09,2.45,2.5s-1.14,2.45-2.45,2.45h-14.21v8.85h14.94c1.41,0,2.5,1.09,2.5,2.41,0,1.41-1.14,2.5-2.45,2.5h-17.53c-1.59,0-2.86-1.23-2.86-2.86V3.5Z"/><path class="cls-1" d="M126.94,10.04V29.79c.27,3.86-5.72,3.86-5.4,0V4.09c0-2.36,1.45-3.68,3.45-3.68,1.23,0,2.13,.45,2.77,1.36l14.99,21.39V3.32c-.23-3.86,5.77-3.86,5.45,0V29.02c0,2.36-1.45,3.68-3.45,3.68-1.23,0-2.13-.45-2.77-1.36l-15.03-21.3Z"/><path class="cls-1" d="M175.34,.64c3.72-.23,3.72,5.13,0,4.9h-7.36V30.02c0,1.5-1.23,2.68-2.72,2.68s-2.68-1.18-2.68-2.68V5.54h-7.13c-3.72,.23-3.72-5.13,0-4.9h19.89Z"/><path class="cls-1" d="M207.81,18.35c0,9.49-5,14.62-12.85,14.62s-12.85-5.13-12.85-14.62V3.09c0-1.5,1.23-2.68,2.72-2.68s2.72,1.14,2.72,2.63v15.35c0,6.45,2.45,9.67,7.4,9.67s7.4-3.22,7.4-9.72V3.09c0-1.5,1.23-2.68,2.72-2.68s2.72,1.18,2.72,2.68v15.26Z"/><path class="cls-1" d="M226.29,21.62h-6.58v8.4c0,1.5-1.23,2.68-2.72,2.68s-2.68-1.18-2.68-2.68V3.5c0-1.63,1.27-2.86,2.86-2.86h9.26c7.49,0,12.12,3.86,12.12,10.4,0,4.68-2.36,8.08-6.49,9.67l4.72,7.58c.95,1.77,.59,3.04-.73,3.91-1.54,.95-2.82,.64-3.86-1l-5.9-9.58Zm-6.58-16.08v11.13h6.04c4.95,0,7.4-1.86,7.4-5.59s-2.45-5.54-7.4-5.54h-6.04Z"/><path class="cls-1" d="M244.32,3.5c0-1.63,1.27-2.86,2.86-2.86h17.53c1.32,0,2.45,1.09,2.45,2.5,0,1.32-1.09,2.41-2.5,2.41h-14.94V13.76h14.21c1.32,0,2.45,1.09,2.45,2.5s-1.14,2.45-2.45,2.45h-14.21v8.85h14.94c1.41,0,2.5,1.09,2.5,2.41,0,1.41-1.14,2.5-2.45,2.5h-17.53c-1.59,0-2.86-1.23-2.86-2.86V3.5Z"/><path class="cls-1" d="M273.52,24.98c.95-1.14,2.72-1.32,3.86-.27,.77,.68,1.45,1.23,2,1.63,1.09,.73,3.59,1.73,6.31,1.73,3.86,0,6.04-1.73,6.04-4.22s-1.73-3.95-5.22-4.54l-3.86-.64c-6.04-1.09-9.54-4.31-9.54-9.45,0-2.72,1.09-4.9,3.27-6.58s4.81-2.5,7.95-2.5c1.68,0,3.18,.23,4.59,.64s2.41,.82,3.09,1.23,1.45,.91,2.32,1.59c1.23,.95,1.41,2.68,.45,3.81s-2.63,1.27-3.77,.32c-2.13-1.77-4.4-2.68-6.9-2.68-3.63,0-5.54,1.86-5.54,4.04s1.77,3.72,5.27,4.31l3.18,.54c6.86,1.09,10.17,4.59,10.17,9.81,0,2.72-1.09,4.95-3.27,6.68-2.18,1.68-5.13,2.54-8.9,2.54-1.82,0-3.5-.27-5.09-.77-1.54-.5-2.68-1-3.36-1.45-.68-.5-1.54-1.14-2.54-1.95-1.23-.95-1.45-2.68-.5-3.81Z"/></g></g></g></svg>