<?xml version="1.0" encoding="UTF-8"?><svg id="Layer_2" xmlns="http://www.w3.org/2000/svg" viewBox="0 0 326.33 370.02"><defs><style>.cls-1{fill:#e59f3c;}.cls-2{fill:#0d2175;}.cls-3{fill:#fff;stroke:#e59f3c;}.cls-3,.cls-4{stroke-miterlimit:10;stroke-width:2px;}.cls-4{fill:none;stroke:#1f2dd9;}</style></defs><g id="Capa_2"><g><polygon class="cls-4" points="82.91 140.43 31.44 140.43 5.7 185.01 31.44 229.58 82.91 229.58 108.65 185.01 82.91 140.43"/><polygon class="cls-4" points="159.63 95.85 108.16 95.85 82.42 140.43 108.16 185.01 159.63 185.01 185.37 140.43 159.63 95.85"/><polyline class="cls-4" points="82.42 51.28 108.16 95.85 159.63 95.85 185.37 51.28 159.63 6.7"/><polygon class="cls-4" points="159.63 185.01 108.16 185.01 82.42 229.58 108.16 274.16 159.63 274.16 185.37 229.58 159.63 185.01"/><polyline class="cls-4" points="159.63 363.31 185.37 318.74 159.63 274.16 108.16 274.16 82.42 318.74"/><polygon class="cls-4" points="236.71 140.43 185.24 140.43 159.51 185.01 185.24 229.58 236.71 229.58 262.45 185.01 236.71 140.43"/><polyline class="cls-4" points="313.92 185.01 262.45 185.01 236.71 229.58 262.45 274.16 313.92 274.16"/><polyline class="cls-4" points="236.71 51.28 185.24 51.28 159.51 95.85 185.24 140.43 236.71 140.43 262.45 95.85"/><polygon class="cls-4" points="236.71 229.58 185.24 229.58 159.51 274.16 185.24 318.74 236.71 318.74 262.45 274.16 236.71 229.58"/><g><path class="cls-2" d="M27.84,183.26c0-.56,.36-.91,.85-.91s.85,.34,.85,.91v6.34c0,.56-.36,.91-.85,.91s-.85-.34-.85-.91v-6.34Z"/><path class="cls-2" d="M31.33,185.65c0-.54,.36-.87,.81-.87,.38,0,.63,.17,.76,.5,.33-.39,.78-.58,1.36-.58,1.39,0,2.28,.92,2.28,2.49v2.45c0,.54-.34,.87-.81,.87s-.81-.33-.81-.87v-2.33c0-.64-.3-1.1-.93-1.1-.69,0-1.03,.48-1.03,1.43v1.99c.07,1.15-1.7,1.15-1.63,0v-3.99Z"/><path class="cls-2" d="M41.34,189.65c-.21,.58-.58,.87-1.12,.87s-.88-.29-1.12-.87l-1.5-3.72c-.19-.5,.03-.97,.49-1.11,.45-.14,.87,.1,1.04,.62l1.09,2.88,1.09-2.88c.17-.52,.62-.76,1.07-.62,.45,.14,.65,.6,.46,1.11l-1.49,3.72Z"/><path class="cls-2" d="M47.93,188.05h-2.88c.09,.61,.56,1.03,1.26,1.03,.39,0,.72-.11,1.01-.34,.45-.32,.86-.22,1.15,.16,.26,.32,.18,.78-.24,1.11-.49,.38-1.12,.56-1.87,.56-.86,0-1.56-.26-2.12-.79-.56-.54-.84-1.24-.84-2.11s.25-1.57,.77-2.13c.52-.56,1.18-.85,1.99-.85,.56,0,1.05,.14,1.48,.4,.86,.54,1.19,1.29,1.19,2.06,0,.6-.3,.89-.91,.89Zm-2.8-1.09h2.02c-.03-.47-.41-.84-.95-.84-.58,0-.96,.34-1.07,.84Z"/><path class="cls-2" d="M50.22,188.87c.31-.34,.66-.36,1.08-.02,.31,.24,.72,.37,1.23,.37,.36,0,.63-.13,.63-.34,0-.18-.13-.28-.5-.38l-.63-.18c-1.25-.36-1.83-.93-1.83-1.83,0-.54,.21-.96,.63-1.28,.42-.33,.94-.49,1.55-.49,.65,0,1.2,.14,1.66,.42,.41,.28,.52,.69,.3,1.04-.24,.37-.63,.47-1.08,.21-.3-.19-.62-.29-.95-.29s-.53,.13-.53,.31c0,.17,.13,.24,.4,.32l.72,.19c1.15,.32,1.85,.81,1.85,1.86s-.92,1.81-2.35,1.81c-.86,0-1.54-.21-2.03-.62-.38-.33-.42-.77-.14-1.09Z"/><path class="cls-2" d="M59.15,189.73c0,.42-.31,.74-.87,.74h-.15c-1.31,0-1.96-.66-1.96-2.01v-2.13h-.21c-.5,0-.81-.32-.81-.74s.31-.76,.81-.76h.21v-.76c-.07-1.15,1.7-1.15,1.62,0v.76h.55c.5,0,.81,.33,.81,.76s-.31,.74-.81,.74h-.55v1.94c0,.47,.19,.65,.57,.69,.52,.06,.79,.34,.79,.77Z"/><path class="cls-2" d="M60.5,185.65c0-.54,.36-.87,.81-.87,.38,0,.63,.17,.76,.5,.33-.39,.8-.58,1.39-.58,.65,0,1.17,.23,1.56,.68,.45-.45,1.01-.68,1.68-.68,1.5,0,2.35,.89,2.35,2.49v2.45c.07,1.15-1.7,1.15-1.63,0v-2.38c0-.63-.3-1.04-.86-1.04-.61,0-.97,.47-.97,1.25v2.18c.07,1.15-1.7,1.15-1.63,0v-2.38c0-.63-.3-1.04-.86-1.04-.64,0-.97,.49-.97,1.36v2.06c.07,1.15-1.7,1.15-1.63,0v-3.99Z"/><path class="cls-2" d="M74.8,188.05h-2.88c.09,.61,.56,1.03,1.26,1.03,.39,0,.72-.11,1.01-.34,.45-.32,.86-.22,1.15,.16,.26,.32,.18,.78-.24,1.11-.49,.38-1.12,.56-1.87,.56-.86,0-1.56-.26-2.12-.79-.56-.54-.84-1.24-.84-2.11s.25-1.57,.77-2.13c.52-.56,1.18-.85,1.99-.85,.56,0,1.05,.14,1.48,.4,.86,.54,1.19,1.29,1.19,2.06,0,.6-.3,.89-.91,.89Zm-2.8-1.09h2.02c-.03-.47-.41-.84-.95-.84-.58,0-.96,.34-1.07,.84Z"/><path class="cls-2" d="M77.09,185.65c0-.54,.36-.87,.81-.87,.38,0,.63,.17,.76,.5,.33-.39,.78-.58,1.36-.58,1.39,0,2.28,.92,2.28,2.49v2.45c0,.54-.34,.87-.81,.87s-.81-.33-.81-.87v-2.33c0-.64-.3-1.1-.93-1.1-.69,0-1.03,.48-1.03,1.43v1.99c.07,1.15-1.7,1.15-1.63,0v-3.99Z"/><path class="cls-2" d="M86.96,189.73c0,.42-.31,.74-.87,.74h-.15c-1.31,0-1.96-.66-1.96-2.01v-2.13h-.21c-.5,0-.81-.32-.81-.74s.31-.76,.81-.76h.21v-.76c-.07-1.15,1.7-1.15,1.62,0v.76h.55c.5,0,.81,.33,.81,.76s-.31,.74-.81,.74h-.55v1.94c0,.47,.19,.65,.57,.69,.52,.06,.79,.34,.79,.77Z"/></g><g><path class="cls-2" d="M195.15,92.53c0-.63,.4-1.02,.95-1.02s.95,.39,.95,1.02v6.31h3.25c.58,0,.94,.37,.94,.89s-.36,.88-.94,.88h-3.93c-.77,0-1.22-.45-1.22-1.22v-6.85Z"/><path class="cls-2" d="M207.33,97.92h-3.23c.1,.68,.63,1.16,1.42,1.16,.44,0,.81-.13,1.13-.39,.5-.36,.97-.24,1.29,.18,.3,.36,.21,.88-.27,1.25-.55,.43-1.26,.63-2.1,.63-.97,0-1.75-.3-2.38-.89-.63-.61-.94-1.39-.94-2.37s.28-1.76,.86-2.4,1.33-.95,2.24-.95c.63,0,1.19,.15,1.66,.45,.97,.61,1.34,1.46,1.34,2.32,0,.67-.33,1-1.02,1Zm-3.14-1.22h2.27c-.04-.53-.46-.94-1.07-.94-.66,0-1.08,.39-1.2,.94Z"/><path class="cls-2" d="M210.24,101.24c.32-.35,.76-.36,1.31-.01,.37,.22,.73,.33,1.09,.33,.97,0,1.58-.57,1.58-1.4v-.17c-.36,.32-.88,.48-1.53,.48-.9,0-1.65-.28-2.23-.85s-.86-1.34-.86-2.31,.3-1.75,.9-2.32c.6-.57,1.33-.85,2.19-.85,.67,0,1.21,.22,1.61,.67,.13-.4,.41-.59,.85-.59,.53,0,.91,.36,.91,.98v4.75c0,.98-.31,1.78-.91,2.38-.6,.61-1.43,.91-2.5,.91-.9,0-1.66-.23-2.29-.7-.48-.36-.48-.95-.13-1.31Zm2.63-5.43c-.77,0-1.39,.62-1.39,1.51s.62,1.49,1.39,1.49,1.4-.62,1.4-1.49-.62-1.51-1.4-1.51Z"/><path class="cls-2" d="M220.44,94.14c.79,0,1.43,.23,1.93,.68,.5,.45,.75,1.06,.75,1.84v3.03c0,.61-.4,.98-.91,.98-.42,0-.71-.19-.85-.58-.44,.44-.98,.66-1.61,.66s-1.13-.18-1.53-.54c-.4-.37-.59-.84-.59-1.4,0-.66,.23-1.15,.71-1.48,.48-.33,1.08-.52,1.79-.54l1.16-.05c0-.64-.32-.97-.97-.97-.39,0-.73,.1-1.06,.32-.48,.32-.94,.28-1.21-.08-.3-.35-.21-.86,.22-1.21,.55-.44,1.29-.66,2.18-.66Zm-.24,5.06c.37,0,.73-.13,1.08-.39v-.75l-.81,.06c-.67,.04-1,.22-1,.57,0,.31,.27,.5,.73,.5Z"/><path class="cls-2" d="M226.89,99.7c.08,1.29-1.91,1.29-1.83,0v-7.19c-.08-1.29,1.91-1.29,1.83,0v7.19Z"/></g><g><path class="cls-2" d="M108.65,225.43c-.35,.41-.86,.46-1.37,.05-.53-.46-1.16-.7-1.91-.7-.71,0-1.33,.26-1.87,.77-.53,.5-.8,1.2-.8,2.07s.27,1.6,.8,2.11c.53,.52,1.19,.77,1.97,.77,.73,0,1.38-.23,1.94-.71,.5-.4,1.02-.35,1.37,.05,.36,.37,.32,.94-.14,1.35-.82,.73-1.87,1.09-3.12,1.09-1.38,0-2.52-.43-3.44-1.27-.9-.85-1.35-1.97-1.35-3.36s.45-2.54,1.35-3.39c.9-.86,2.02-1.29,3.37-1.29,1.17,0,2.19,.36,3.04,1.08,.46,.41,.5,.98,.14,1.35Z"/><path class="cls-2" d="M110.35,229.01c0-.94,.32-1.73,.95-2.36,.64-.63,1.44-.95,2.38-.95s1.74,.32,2.37,.95c.64,.63,.97,1.42,.97,2.36s-.32,1.73-.95,2.36c-.63,.63-1.43,.94-2.38,.94s-1.75-.31-2.38-.94c-.63-.63-.95-1.42-.95-2.36Zm1.87,0c0,.46,.14,.85,.41,1.15s.63,.45,1.06,.45,.79-.15,1.06-.45,.41-.68,.41-1.15-.14-.85-.41-1.15c-.27-.3-.63-.45-1.06-.45s-.79,.15-1.06,.45c-.27,.3-.41,.68-.41,1.15Z"/><path class="cls-2" d="M118.54,226.77c0-.61,.4-.98,.91-.98,.42,0,.71,.19,.85,.57,.37-.44,.88-.66,1.53-.66,1.56,0,2.56,1.03,2.56,2.79v2.76c0,.61-.39,.98-.91,.98s-.91-.37-.91-.98v-2.61c0-.72-.33-1.24-1.04-1.24-.77,0-1.16,.54-1.16,1.61v2.24c.08,1.29-1.91,1.29-1.83,0v-4.48Z"/><path class="cls-2" d="M126.14,230.38c.35-.39,.75-.4,1.21-.03,.35,.27,.81,.41,1.38,.41,.4,0,.71-.14,.71-.39,0-.21-.14-.31-.57-.43l-.71-.21c-1.4-.4-2.06-1.04-2.06-2.06,0-.61,.23-1.08,.71-1.44,.48-.37,1.06-.55,1.74-.55,.73,0,1.35,.15,1.87,.48,.46,.31,.58,.77,.33,1.17-.27,.41-.71,.53-1.21,.23-.33-.22-.7-.32-1.07-.32s-.59,.14-.59,.35c0,.19,.14,.27,.45,.36l.81,.22c1.29,.36,2.07,.91,2.07,2.09s-1.03,2.03-2.64,2.03c-.97,0-1.73-.23-2.28-.7-.42-.37-.48-.86-.15-1.22Z"/><path class="cls-2" d="M138.24,231.25c0,.61-.4,.98-.91,.98-.41,0-.7-.19-.84-.57-.36,.42-.88,.64-1.56,.64-1.55,0-2.41-.99-2.41-2.78v-2.76c-.08-1.29,1.91-1.29,1.83,0v2.61c0,.82,.32,1.24,.97,1.24,.81,0,1.09-.57,1.09-1.61v-2.24c-.08-1.29,1.91-1.29,1.83,0v4.48Z"/><path class="cls-2" d="M142.11,231.25c.08,1.29-1.91,1.29-1.83,0v-7.19c-.08-1.29,1.91-1.29,1.83,0v7.19Z"/><path class="cls-2" d="M147.56,231.35c0,.48-.35,.84-.98,.84h-.17c-1.47,0-2.2-.75-2.2-2.25v-2.4h-.23c-.57,0-.91-.36-.91-.84s.35-.85,.91-.85h.23v-.85c-.08-1.29,1.91-1.29,1.82,0v.85h.62c.57,0,.91,.37,.91,.85s-.35,.84-.91,.84h-.62v2.18c0,.53,.22,.73,.64,.77,.58,.06,.89,.39,.89,.86Z"/><path class="cls-2" d="M150.06,222.99c.61,0,1.07,.46,1.07,1.07s-.49,1.06-1.07,1.06-1.06-.48-1.06-1.06,.48-1.07,1.06-1.07Zm0,9.23c-.53,0-.91-.37-.91-.98v-4.48c0-.61,.39-.98,.91-.98s.91,.37,.91,.98v4.48c0,.61-.39,.98-.91,.98Z"/><path class="cls-2" d="M153.07,226.77c0-.61,.4-.98,.91-.98,.42,0,.71,.19,.85,.57,.37-.44,.88-.66,1.53-.66,1.56,0,2.56,1.03,2.56,2.79v2.76c0,.61-.39,.98-.91,.98s-.91-.37-.91-.98v-2.61c0-.72-.33-1.24-1.04-1.24-.77,0-1.16,.54-1.16,1.61v2.24c.08,1.29-1.91,1.29-1.83,0v-4.48Z"/><path class="cls-2" d="M160.93,232.79c.32-.35,.76-.36,1.31-.01,.37,.22,.73,.33,1.09,.33,.97,0,1.58-.57,1.58-1.4v-.17c-.36,.32-.88,.48-1.53,.48-.9,0-1.65-.28-2.23-.85-.58-.57-.86-1.34-.86-2.31s.3-1.75,.9-2.32c.6-.57,1.33-.85,2.19-.85,.67,0,1.21,.22,1.61,.67,.13-.4,.41-.59,.85-.59,.53,0,.91,.36,.91,.98v4.75c0,.98-.31,1.78-.91,2.38-.61,.61-1.43,.91-2.5,.91-.9,0-1.66-.23-2.29-.7-.48-.36-.48-.95-.13-1.31Zm2.63-5.43c-.77,0-1.39,.62-1.39,1.51s.62,1.49,1.39,1.49,1.4-.62,1.4-1.49-.62-1.51-1.4-1.51Z"/></g><g><path class="cls-2" d="M115.43,44.18c-.77,0-1.22-.45-1.22-1.22v-6.57c0-.77,.45-1.22,1.22-1.22h1.75c1.29,0,2.43,.32,3.41,.99,.99,.66,1.62,1.89,1.62,3.45s-.63,2.82-1.61,3.53c-.98,.68-2.15,1.04-3.43,1.04h-1.75Zm.7-7.25v5.49h.77c2.25,0,3.37-.94,3.37-2.81s-1.13-2.68-3.39-2.68h-.76Z"/><path class="cls-2" d="M124.78,35.01c.6,0,1.07,.46,1.07,1.07s-.49,1.06-1.07,1.06-1.06-.48-1.06-1.06,.48-1.07,1.06-1.07Zm0,9.23c-.53,0-.91-.37-.91-.98v-4.48c0-.61,.39-.98,.91-.98s.91,.37,.91,.98v4.48c0,.61-.39,.98-.91,.98Z"/><path class="cls-2" d="M127.91,44.81c.32-.35,.76-.36,1.31-.01,.37,.22,.73,.33,1.09,.33,.97,0,1.58-.57,1.58-1.4v-.17c-.36,.32-.88,.48-1.53,.48-.9,0-1.65-.28-2.23-.85-.58-.57-.86-1.34-.86-2.31s.3-1.75,.9-2.32c.6-.57,1.33-.85,2.19-.85,.67,0,1.21,.22,1.61,.67,.13-.4,.41-.59,.85-.59,.53,0,.91,.36,.91,.98v4.75c0,.98-.31,1.78-.91,2.38-.61,.61-1.43,.91-2.5,.91-.9,0-1.66-.23-2.29-.7-.48-.36-.48-.95-.13-1.31Zm2.63-5.43c-.77,0-1.39,.62-1.39,1.51s.62,1.49,1.39,1.49,1.4-.62,1.4-1.49-.62-1.51-1.4-1.51Z"/><path class="cls-2" d="M136.73,35.01c.61,0,1.07,.46,1.07,1.07s-.49,1.06-1.07,1.06-1.06-.48-1.06-1.06,.48-1.07,1.06-1.07Zm0,9.23c-.53,0-.91-.37-.91-.98v-4.48c0-.61,.39-.98,.91-.98s.91,.37,.91,.98v4.48c0,.61-.39,.98-.91,.98Z"/><path class="cls-2" d="M143.18,43.37c0,.48-.35,.84-.98,.84h-.17c-1.47,0-2.2-.75-2.2-2.25v-2.4h-.23c-.57,0-.91-.36-.91-.84s.35-.85,.91-.85h.23v-.85c-.08-1.29,1.91-1.29,1.82,0v.85h.62c.57,0,.91,.37,.91,.85s-.35,.84-.91,.84h-.62v2.18c0,.53,.22,.73,.64,.77,.58,.06,.89,.39,.89,.86Z"/><path class="cls-2" d="M147.2,37.72c.79,0,1.43,.23,1.93,.68,.5,.45,.75,1.06,.75,1.84v3.03c0,.61-.4,.98-.91,.98-.42,0-.71-.19-.85-.58-.44,.44-.98,.66-1.61,.66s-1.13-.18-1.53-.54c-.4-.37-.59-.84-.59-1.4,0-.66,.23-1.15,.71-1.48,.48-.33,1.08-.52,1.79-.54l1.16-.05c0-.64-.32-.97-.97-.97-.39,0-.73,.1-1.06,.32-.48,.32-.94,.28-1.21-.08-.3-.35-.21-.86,.22-1.21,.55-.44,1.29-.66,2.18-.66Zm-.24,5.06c.37,0,.73-.13,1.08-.39v-.75l-.81,.06c-.67,.04-1,.22-1,.57,0,.31,.27,.5,.73,.5Z"/><path class="cls-2" d="M153.65,43.27c.08,1.29-1.91,1.29-1.83,0v-7.19c-.08-1.29,1.91-1.29,1.83,0v7.19Z"/><path class="cls-2" d="M108.22,55.67l2.31-4.52c.22-.44,.58-.66,1.09-.66,.68,0,1.08,.44,1.08,1.15v7.04c0,.63-.4,1.02-.95,1.02s-.95-.39-.95-1.02v-4.17l-1.53,2.92c-.23,.44-.58,.66-1.04,.66s-.81-.22-1.03-.64l-1.53-2.94v4.17c0,.63-.4,1.02-.95,1.02s-.95-.39-.95-1.02v-7.04c0-.71,.4-1.15,1.08-1.15,.5,0,.88,.22,1.09,.66l2.29,4.52Z"/><path class="cls-2" d="M117.14,53.17c.79,0,1.43,.23,1.93,.68,.5,.45,.75,1.06,.75,1.84v3.03c0,.61-.4,.98-.91,.98-.43,0-.71-.19-.85-.58-.44,.44-.98,.66-1.61,.66s-1.13-.18-1.53-.54c-.4-.37-.59-.84-.59-1.4,0-.66,.23-1.15,.71-1.48,.48-.33,1.08-.52,1.79-.54l1.16-.05c0-.64-.32-.97-.97-.97-.39,0-.73,.1-1.06,.32-.48,.32-.94,.28-1.21-.08-.3-.35-.21-.86,.22-1.21,.55-.44,1.29-.66,2.18-.66Zm-.24,5.06c.37,0,.73-.13,1.08-.39v-.75l-.81,.06c-.67,.04-1,.22-1,.57,0,.31,.27,.5,.73,.5Z"/><path class="cls-2" d="M126.33,54.19c0,.5-.35,.85-.8,.85-.09,0-.28-.03-.4-.03-.88,0-1.55,.71-1.55,1.98v1.73c.08,1.29-1.91,1.29-1.83,0v-4.48c0-.61,.4-.98,.91-.98,.48,0,.82,.31,.89,.76,.36-.5,.98-.79,1.53-.79,.22,0,.39,.01,.52,.05,.41,.1,.72,.43,.72,.9Z"/><path class="cls-2" d="M129.76,57.32l-.57,.55v.85c.08,1.29-1.91,1.29-1.83,0v-7.19c-.08-1.29,1.91-1.29,1.83,0v3.92l1.92-1.83c.42-.4,.95-.48,1.33-.17s.41,.9-.04,1.35l-1.35,1.25,1.65,2.09c.37,.52,.28,1.06-.13,1.38-.4,.31-1,.22-1.35-.28l-1.46-1.92Z"/><path class="cls-2" d="M138.92,56.94h-3.23c.1,.68,.63,1.16,1.42,1.16,.44,0,.81-.13,1.13-.39,.5-.36,.97-.24,1.29,.18,.3,.36,.21,.88-.27,1.25-.55,.42-1.26,.63-2.1,.63-.97,0-1.75-.3-2.38-.89-.63-.61-.94-1.39-.94-2.37s.28-1.76,.86-2.4,1.33-.95,2.24-.95c.63,0,1.19,.15,1.66,.45,.97,.61,1.34,1.46,1.34,2.32,0,.67-.33,1-1.02,1Zm-3.14-1.22h2.27c-.04-.53-.46-.94-1.07-.94-.66,0-1.08,.39-1.2,.94Z"/><path class="cls-2" d="M144.94,58.82c0,.48-.35,.84-.98,.84h-.17c-1.47,0-2.2-.75-2.2-2.25v-2.4h-.23c-.57,0-.91-.36-.91-.84s.35-.85,.91-.85h.23v-.85c-.08-1.29,1.91-1.29,1.82,0v.85h.62c.57,0,.91,.37,.91,.85s-.35,.84-.91,.84h-.62v2.18c0,.53,.22,.73,.64,.77,.58,.06,.89,.39,.89,.86Z"/><path class="cls-2" d="M147.44,50.47c.6,0,1.07,.46,1.07,1.07s-.49,1.06-1.07,1.06-1.06-.48-1.06-1.06,.48-1.07,1.06-1.07Zm0,9.23c-.53,0-.91-.37-.91-.98v-4.48c0-.61,.39-.98,.91-.98s.91,.37,.91,.98v4.48c0,.61-.39,.98-.91,.98Z"/><path class="cls-2" d="M150.45,54.24c0-.61,.4-.98,.91-.98,.42,0,.71,.19,.85,.57,.37-.44,.88-.66,1.53-.66,1.56,0,2.56,1.03,2.56,2.79v2.76c0,.61-.39,.98-.91,.98s-.91-.37-.91-.98v-2.61c0-.72-.33-1.24-1.04-1.24-.77,0-1.16,.54-1.16,1.61v2.24c.08,1.29-1.91,1.29-1.83,0v-4.48Z"/><path class="cls-2" d="M158.3,60.27c.32-.35,.76-.36,1.31-.01,.37,.22,.73,.33,1.09,.33,.97,0,1.58-.57,1.58-1.4v-.17c-.36,.32-.88,.48-1.53,.48-.9,0-1.65-.28-2.23-.85s-.86-1.34-.86-2.31,.3-1.75,.9-2.32c.6-.57,1.33-.85,2.19-.85,.67,0,1.21,.22,1.61,.67,.13-.4,.41-.59,.85-.59,.53,0,.91,.36,.91,.98v4.75c0,.98-.31,1.78-.91,2.38-.6,.61-1.43,.91-2.5,.91-.9,0-1.66-.23-2.29-.7-.48-.36-.48-.95-.13-1.31Zm2.63-5.43c-.77,0-1.39,.62-1.39,1.51s.62,1.49,1.39,1.49,1.4-.62,1.4-1.49-.62-1.51-1.4-1.51Z"/></g><g><path class="cls-2" d="M202.48,173.34c.52,0,.84,.33,.84,.79s-.32,.78-.84,.78h-1.58v5.6c0,.56-.37,.91-.86,.91s-.85-.34-.85-.91v-5.6h-1.57c-.52,0-.84-.33-.84-.78s.32-.79,.84-.79h4.86Z"/><path class="cls-2" d="M207.64,178.96h-2.88c.09,.61,.56,1.03,1.26,1.03,.39,0,.72-.11,1.01-.34,.45-.32,.86-.22,1.15,.16,.26,.32,.18,.78-.24,1.11-.49,.38-1.12,.56-1.87,.56-.86,0-1.56-.26-2.12-.79-.56-.54-.84-1.24-.84-2.11s.25-1.57,.77-2.13c.52-.56,1.18-.85,1.99-.85,.56,0,1.05,.14,1.48,.4,.86,.54,1.19,1.29,1.19,2.06,0,.6-.3,.89-.91,.89Zm-2.8-1.09h2.02c-.03-.47-.41-.84-.95-.84-.58,0-.96,.34-1.07,.84Z"/><path class="cls-2" d="M212.69,177.12c-.81,0-1.36,.6-1.36,1.43s.55,1.43,1.36,1.43c.31,0,.62-.13,.93-.37,.45-.32,.86-.22,1.15,.16,.26,.32,.18,.78-.24,1.11-.53,.4-1.16,.6-1.89,.6-.85,0-1.56-.27-2.12-.84s-.85-1.26-.85-2.1,.29-1.54,.85-2.1c.57-.56,1.28-.85,2.12-.85,.65,0,1.23,.17,1.71,.53,.42,.33,.54,.81,.3,1.13-.26,.37-.68,.46-1.12,.15-.26-.19-.54-.3-.83-.3Z"/><path class="cls-2" d="M216.38,174.15c-.07-1.15,1.7-1.15,1.63,0v1.94c.31-.32,.74-.48,1.31-.48,1.39,0,2.28,.92,2.28,2.49v2.45c0,.54-.34,.87-.81,.87s-.81-.33-.81-.87v-2.33c0-.64-.3-1.1-.93-1.1-.69,0-1.03,.44-1.03,1.31v2.12c.07,1.15-1.7,1.15-1.63,0v-6.39Z"/><path class="cls-2" d="M181.8,194.29c0,.54-.35,.87-.81,.87-.39,0-.64-.17-.76-.53-.29,.36-.89,.6-1.5,.6-.79,0-1.47-.26-2.01-.8s-.8-1.25-.8-2.13,.26-1.58,.8-2.12c.54-.55,1.21-.83,2.01-.83,.58,0,1.07,.16,1.44,.49v-1.95c-.07-1.15,1.7-1.15,1.63,0v6.39Zm-1.6-1.99c0-.42-.13-.78-.38-1.05-.24-.27-.55-.41-.93-.41s-.69,.14-.94,.41c-.24,.28-.37,.63-.37,1.05s.13,.78,.37,1.05c.25,.27,.56,.41,.94,.41s.69-.14,.93-.41c.25-.28,.38-.63,.38-1.05Z"/><path class="cls-2" d="M187.68,192.71h-2.88c.09,.61,.56,1.03,1.26,1.03,.39,0,.72-.11,1.01-.34,.45-.32,.86-.22,1.15,.16,.26,.32,.18,.78-.24,1.11-.49,.38-1.12,.56-1.87,.56-.86,0-1.56-.26-2.12-.79-.56-.54-.84-1.24-.84-2.11s.25-1.57,.77-2.13c.52-.56,1.18-.85,1.99-.85,.56,0,1.05,.14,1.48,.4,.86,.54,1.19,1.29,1.19,2.06,0,.6-.3,.89-.91,.89Zm-2.8-1.09h2.02c-.03-.47-.41-.84-.95-.84-.58,0-.96,.34-1.07,.84Z"/><path class="cls-2" d="M193.22,194.3c-.21,.58-.58,.87-1.12,.87s-.88-.29-1.12-.87l-1.5-3.72c-.19-.5,.03-.97,.49-1.11,.45-.14,.87,.1,1.04,.62l1.09,2.88,1.09-2.88c.17-.52,.62-.76,1.07-.62,.45,.14,.65,.6,.46,1.11l-1.49,3.72Z"/><path class="cls-2" d="M199.81,192.71h-2.88c.09,.61,.56,1.03,1.26,1.03,.39,0,.72-.11,1.01-.34,.45-.32,.86-.22,1.15,.16,.26,.32,.18,.78-.24,1.11-.49,.38-1.12,.56-1.87,.56-.86,0-1.56-.26-2.12-.79-.56-.54-.84-1.24-.84-2.11s.25-1.57,.77-2.13c.52-.56,1.18-.85,1.99-.85,.56,0,1.05,.14,1.48,.4,.86,.54,1.19,1.29,1.19,2.06,0,.6-.3,.89-.91,.89Zm-2.8-1.09h2.02c-.03-.47-.41-.84-.95-.84-.58,0-.96,.34-1.07,.84Z"/><path class="cls-2" d="M203.72,194.29c.07,1.15-1.7,1.15-1.63,0v-6.39c-.07-1.15,1.7-1.15,1.63,0v6.39Z"/><path class="cls-2" d="M205.07,192.29c0-.84,.29-1.54,.85-2.1,.57-.56,1.28-.85,2.12-.85s1.55,.29,2.11,.85c.57,.56,.86,1.26,.86,2.1s-.29,1.54-.85,2.1-1.27,.84-2.12,.84-1.56-.27-2.12-.84-.85-1.26-.85-2.1Zm1.66,0c0,.41,.13,.76,.37,1.02,.24,.26,.56,.4,.94,.4s.7-.14,.94-.4c.24-.26,.37-.61,.37-1.02s-.13-.76-.37-1.02c-.24-.26-.56-.4-.94-.4s-.7,.14-.94,.4c-.24,.26-.37,.61-.37,1.02Z"/><path class="cls-2" d="M212.35,190.29c0-.55,.36-.87,.81-.87,.39,0,.64,.17,.76,.53,.29-.36,.89-.6,1.5-.6,.79,0,1.46,.28,1.99,.81s.81,1.25,.81,2.13-.28,1.58-.81,2.12-1.2,.81-1.99,.81c-.58,0-1.07-.16-1.44-.49v1.78c.07,1.15-1.7,1.15-1.63,0v-6.22Zm1.6,2.01c0,.42,.13,.78,.37,1.05,.25,.27,.56,.41,.94,.41s.69-.14,.93-.41c.25-.28,.38-.63,.38-1.05s-.13-.78-.38-1.05c-.24-.27-.55-.41-.93-.41s-.69,.14-.94,.41c-.24,.28-.37,.63-.37,1.05Z"/><path class="cls-2" d="M219.57,190.3c0-.54,.36-.87,.81-.87,.38,0,.63,.17,.76,.5,.33-.39,.8-.58,1.39-.58,.65,0,1.17,.23,1.56,.68,.45-.45,1.01-.68,1.68-.68,1.5,0,2.35,.89,2.35,2.49v2.45c.07,1.15-1.7,1.15-1.63,0v-2.38c0-.63-.3-1.04-.86-1.04-.61,0-.97,.47-.97,1.25v2.18c.07,1.15-1.7,1.15-1.63,0v-2.38c0-.63-.3-1.04-.86-1.04-.64,0-.97,.49-.97,1.36v2.06c.07,1.15-1.7,1.15-1.63,0v-3.99Z"/><path class="cls-2" d="M233.86,192.71h-2.88c.09,.61,.56,1.03,1.26,1.03,.39,0,.72-.11,1.01-.34,.45-.32,.86-.22,1.15,.16,.26,.32,.18,.78-.24,1.11-.49,.38-1.12,.56-1.87,.56-.86,0-1.56-.26-2.12-.79-.56-.54-.84-1.24-.84-2.11s.25-1.57,.77-2.13c.52-.56,1.18-.85,1.99-.85,.56,0,1.05,.14,1.48,.4,.86,.54,1.19,1.29,1.19,2.06,0,.6-.3,.89-.91,.89Zm-2.8-1.09h2.02c-.03-.47-.41-.84-.95-.84-.58,0-.96,.34-1.07,.84Z"/><path class="cls-2" d="M236.15,190.3c0-.54,.36-.87,.81-.87,.38,0,.63,.17,.76,.5,.33-.39,.78-.58,1.36-.58,1.39,0,2.28,.92,2.28,2.49v2.45c0,.54-.34,.87-.81,.87s-.81-.33-.81-.87v-2.33c0-.64-.3-1.1-.93-1.1-.69,0-1.03,.48-1.03,1.43v1.99c.07,1.15-1.7,1.15-1.63,0v-3.99Z"/><path class="cls-2" d="M246.03,194.38c0,.42-.31,.74-.87,.74h-.15c-1.31,0-1.96-.66-1.96-2.01v-2.13h-.21c-.5,0-.81-.32-.81-.74s.31-.76,.81-.76h.21v-.76c-.07-1.15,1.7-1.15,1.62,0v.76h.55c.5,0,.81,.33,.81,.76s-.31,.74-.81,.74h-.55v1.94c0,.47,.19,.65,.57,.69,.52,.06,.79,.34,.79,.77Z"/></g><g><path class="cls-2" d="M105.46,315.85c0-.56,.36-.91,.85-.91s.85,.34,.85,.91v6.34c0,.56-.36,.91-.85,.91s-.85-.34-.85-.91v-6.34Z"/><path class="cls-2" d="M108.95,318.23c0-.54,.36-.87,.81-.87,.38,0,.63,.17,.76,.5,.33-.39,.78-.58,1.36-.58,1.39,0,2.28,.92,2.28,2.49v2.45c0,.54-.34,.87-.81,.87s-.81-.33-.81-.87v-2.33c0-.64-.3-1.1-.93-1.1-.69,0-1.03,.48-1.03,1.43v1.99c.07,1.15-1.7,1.15-1.63,0v-3.99Z"/><path class="cls-2" d="M118.4,318.79c-.81,0-1.36,.6-1.36,1.43s.55,1.43,1.36,1.43c.31,0,.62-.13,.93-.37,.45-.32,.86-.22,1.15,.16,.26,.32,.18,.78-.24,1.11-.53,.4-1.16,.6-1.89,.6-.85,0-1.56-.27-2.12-.84s-.85-1.26-.85-2.1,.29-1.54,.85-2.1c.57-.56,1.28-.85,2.12-.85,.65,0,1.23,.17,1.71,.53,.42,.33,.54,.81,.3,1.13-.26,.37-.68,.46-1.12,.15-.26-.19-.54-.3-.83-.3Z"/><path class="cls-2" d="M127.04,322.22c0,.54-.36,.87-.81,.87-.37,0-.62-.17-.74-.5-.32,.38-.78,.57-1.39,.57-1.38,0-2.14-.88-2.14-2.48v-2.45c-.07-1.15,1.7-1.15,1.63,0v2.33c0,.73,.29,1.1,.86,1.1,.72,0,.97-.5,.97-1.43v-1.99c-.07-1.15,1.7-1.15,1.63,0v3.99Z"/><path class="cls-2" d="M128.85,315.82c-.07-1.15,1.7-1.15,1.63,0v1.95c.38-.33,.86-.49,1.44-.49,.79,0,1.46,.28,1.99,.83,.54,.54,.81,1.25,.81,2.12s-.28,1.59-.81,2.13-1.2,.8-1.99,.8c-.61,0-1.21-.24-1.5-.6-.11,.36-.37,.53-.76,.53-.46,0-.81-.33-.81-.87v-6.39Zm1.6,4.4c0,.42,.13,.78,.37,1.05,.25,.27,.56,.41,.94,.41s.69-.14,.93-.41c.25-.28,.38-.63,.38-1.05s-.13-.78-.38-1.05c-.24-.27-.55-.41-.93-.41s-.69,.14-.94,.41c-.24,.28-.37,.63-.37,1.05Z"/><path class="cls-2" d="M138.3,317.28c.7,0,1.27,.21,1.72,.61,.45,.4,.67,.94,.67,1.64v2.69c0,.54-.36,.87-.81,.87-.38,0-.63-.17-.76-.52-.39,.39-.87,.58-1.43,.58s-1.01-.16-1.36-.48c-.35-.33-.53-.74-.53-1.25,0-.58,.21-1.02,.63-1.32,.42-.3,.96-.46,1.59-.48l1.03-.05c0-.57-.29-.86-.86-.86-.34,0-.65,.09-.94,.29-.42,.29-.84,.25-1.08-.07-.26-.31-.18-.77,.19-1.08,.49-.39,1.15-.58,1.94-.58Zm-.22,4.5c.33,0,.65-.11,.96-.34v-.66l-.72,.06c-.6,.03-.89,.19-.89,.5,0,.28,.24,.45,.65,.45Z"/><path class="cls-2" d="M145.4,322.31c0,.42-.31,.74-.87,.74h-.15c-1.31,0-1.96-.66-1.96-2.01v-2.13h-.21c-.5,0-.81-.32-.81-.74s.31-.76,.81-.76h.21v-.76c-.07-1.15,1.7-1.15,1.62,0v.76h.55c.5,0,.81,.33,.81,.76s-.31,.74-.81,.74h-.55v1.94c0,.47,.19,.65,.57,.69,.52,.06,.79,.34,.79,.77Z"/><path class="cls-2" d="M147.62,314.87c.54,0,.95,.41,.95,.95s-.44,.94-.95,.94-.94-.42-.94-.94,.42-.95,.94-.95Zm0,8.22c-.47,0-.81-.33-.81-.87v-3.99c0-.54,.34-.87,.81-.87s.81,.33,.81,.87v3.99c0,.54-.34,.87-.81,.87Z"/><path class="cls-2" d="M150.3,318.23c0-.54,.36-.87,.81-.87,.38,0,.63,.17,.76,.5,.33-.39,.78-.58,1.36-.58,1.39,0,2.28,.92,2.28,2.49v2.45c0,.54-.34,.87-.81,.87s-.81-.33-.81-.87v-2.33c0-.64-.3-1.1-.93-1.1-.69,0-1.03,.48-1.03,1.43v1.99c.07,1.15-1.7,1.15-1.63,0v-3.99Z"/><path class="cls-2" d="M157.28,323.59c.29-.31,.68-.32,1.17-.01,.33,.19,.65,.3,.97,.3,.86,0,1.41-.5,1.41-1.25v-.15c-.32,.29-.78,.42-1.36,.42-.8,0-1.47-.25-1.98-.76s-.77-1.19-.77-2.05,.26-1.56,.8-2.06,1.18-.76,1.95-.76c.6,0,1.08,.19,1.43,.6,.11-.36,.37-.53,.76-.53,.47,0,.81,.32,.81,.87v4.23c0,.87-.27,1.58-.81,2.12s-1.27,.81-2.22,.81c-.8,0-1.48-.21-2.04-.62-.42-.32-.42-.85-.11-1.17Zm2.34-4.84c-.69,0-1.24,.55-1.24,1.34s.55,1.33,1.24,1.33,1.25-.55,1.25-1.33-.55-1.34-1.25-1.34Z"/></g><g><path class="cls-2" d="M103.55,144.49v1.91c0,.63-.41,1.02-.97,1.02s-.95-.39-.95-1.02v-6.84c0-.77,.45-1.22,1.22-1.22h2.43c1.07,0,1.92,.27,2.56,.81,.64,.54,.97,1.28,.97,2.2s-.32,1.7-.98,2.28-1.51,.86-2.55,.86h-1.74Zm0-4.39v2.63h1.4c1.3,0,1.96-.45,1.96-1.34s-.63-1.29-1.96-1.29h-1.4Z"/><path class="cls-2" d="M112.52,140.89c.79,0,1.43,.23,1.93,.68,.5,.45,.75,1.06,.75,1.84v3.03c0,.61-.4,.98-.91,.98-.43,0-.71-.19-.85-.58-.44,.44-.98,.66-1.61,.66s-1.13-.18-1.53-.54c-.4-.37-.59-.84-.59-1.4,0-.66,.23-1.15,.71-1.48,.48-.33,1.08-.52,1.79-.54l1.16-.05c0-.64-.32-.97-.97-.97-.39,0-.73,.1-1.06,.32-.48,.32-.94,.28-1.21-.08-.3-.35-.21-.86,.22-1.21,.55-.44,1.29-.66,2.18-.66Zm-.24,5.06c.37,0,.73-.13,1.08-.39v-.75l-.81,.06c-.67,.04-1,.22-1,.57,0,.31,.27,.5,.73,.5Z"/><path class="cls-2" d="M121.72,141.91c0,.5-.35,.85-.8,.85-.09,0-.28-.03-.4-.03-.88,0-1.55,.71-1.55,1.98v1.73c.08,1.29-1.91,1.29-1.83,0v-4.48c0-.61,.4-.98,.91-.98,.48,0,.82,.31,.89,.76,.36-.5,.98-.79,1.53-.79,.22,0,.39,.01,.52,.05,.41,.1,.72,.43,.72,.9Z"/><path class="cls-2" d="M126.54,146.54c0,.48-.35,.84-.98,.84h-.17c-1.47,0-2.2-.75-2.2-2.25v-2.4h-.23c-.57,0-.91-.36-.91-.84s.35-.85,.91-.85h.23v-.85c-.08-1.29,1.91-1.29,1.82,0v.85h.62c.57,0,.91,.37,.91,.85s-.35,.84-.91,.84h-.62v2.18c0,.53,.22,.73,.64,.77,.58,.06,.89,.39,.89,.86Z"/><path class="cls-2" d="M128.06,141.96c0-.61,.4-.98,.91-.98,.42,0,.71,.19,.85,.57,.37-.44,.88-.66,1.53-.66,1.56,0,2.56,1.03,2.56,2.79v2.76c0,.61-.39,.98-.91,.98s-.91-.37-.91-.98v-2.61c0-.72-.33-1.24-1.04-1.24-.77,0-1.16,.54-1.16,1.61v2.24c.08,1.29-1.91,1.29-1.83,0v-4.48Z"/><path class="cls-2" d="M140.39,144.66h-3.23c.1,.68,.63,1.16,1.42,1.16,.44,0,.81-.13,1.13-.39,.5-.36,.97-.24,1.29,.18,.3,.36,.21,.88-.27,1.25-.55,.43-1.26,.63-2.1,.63-.97,0-1.75-.3-2.38-.89-.63-.61-.94-1.39-.94-2.37s.28-1.76,.86-2.4,1.33-.95,2.24-.95c.63,0,1.19,.15,1.66,.45,.97,.61,1.34,1.46,1.34,2.32,0,.67-.33,1-1.02,1Zm-3.14-1.22h2.27c-.04-.53-.46-.94-1.07-.94-.66,0-1.08,.39-1.2,.94Z"/><path class="cls-2" d="M147.53,141.91c0,.5-.35,.85-.8,.85-.09,0-.28-.03-.4-.03-.88,0-1.55,.71-1.55,1.98v1.73c.08,1.29-1.91,1.29-1.83,0v-4.48c0-.61,.4-.98,.91-.98,.48,0,.82,.31,.89,.76,.36-.5,.98-.79,1.53-.79,.22,0,.39,.01,.51,.05,.41,.1,.72,.43,.72,.9Z"/><path class="cls-2" d="M149.54,138.18c.6,0,1.07,.46,1.07,1.07s-.49,1.06-1.07,1.06-1.06-.48-1.06-1.06,.48-1.07,1.06-1.07Zm0,9.23c-.53,0-.91-.37-.91-.98v-4.48c0-.61,.39-.98,.91-.98s.91,.37,.91,.98v4.48c0,.61-.39,.98-.91,.98Z"/><path class="cls-2" d="M152.55,141.96c0-.61,.4-.98,.91-.98,.42,0,.71,.19,.85,.57,.37-.44,.88-.66,1.53-.66,1.56,0,2.56,1.03,2.56,2.79v2.76c0,.61-.39,.98-.91,.98s-.91-.37-.91-.98v-2.61c0-.72-.33-1.24-1.04-1.24-.77,0-1.16,.54-1.16,1.61v2.24c.08,1.29-1.91,1.29-1.83,0v-4.48Z"/><path class="cls-2" d="M160.41,147.98c.32-.35,.76-.36,1.31-.01,.37,.22,.73,.33,1.09,.33,.97,0,1.58-.57,1.58-1.4v-.17c-.36,.32-.88,.48-1.53,.48-.9,0-1.65-.28-2.23-.85-.58-.57-.86-1.34-.86-2.31s.3-1.75,.9-2.32c.6-.57,1.33-.85,2.19-.85,.67,0,1.21,.22,1.61,.67,.13-.4,.41-.59,.85-.59,.53,0,.91,.36,.91,.98v4.75c0,.98-.31,1.78-.91,2.38-.61,.61-1.43,.91-2.5,.91-.9,0-1.66-.23-2.29-.7-.48-.36-.48-.95-.13-1.31Zm2.63-5.43c-.77,0-1.39,.62-1.39,1.51s.62,1.49,1.39,1.49,1.4-.62,1.4-1.49-.62-1.51-1.4-1.51Z"/></g><g><path class="cls-2" d="M256.59,222.27c.19-.52,.56-.77,1.09-.77s.91,.25,1.1,.76l2.45,6.26c.19,.5-.05,.93-.5,1.08-.49,.15-.85-.03-1.07-.56l-.42-1.03h-3.11l-.41,1.03c-.19,.52-.62,.7-1.07,.56-.46-.15-.7-.57-.5-1.08l2.44-6.25Zm1.1,1.59l-1,2.62h1.99l-1-2.62Z"/><path class="cls-2" d="M264.99,225.34c-.81,0-1.36,.6-1.36,1.43s.55,1.43,1.36,1.43c.31,0,.62-.13,.93-.37,.45-.32,.86-.22,1.15,.16,.26,.32,.18,.78-.24,1.11-.53,.4-1.16,.6-1.89,.6-.85,0-1.56-.27-2.12-.84s-.85-1.26-.85-2.1,.29-1.54,.85-2.1c.57-.56,1.28-.85,2.12-.85,.65,0,1.23,.17,1.71,.53,.42,.33,.54,.81,.3,1.13-.26,.37-.68,.46-1.12,.15-.26-.19-.54-.3-.83-.3Z"/><path class="cls-2" d="M271.18,225.34c-.81,0-1.36,.6-1.36,1.43s.55,1.43,1.36,1.43c.31,0,.62-.13,.93-.37,.45-.32,.86-.22,1.15,.16,.26,.32,.18,.78-.24,1.11-.53,.4-1.16,.6-1.89,.6-.85,0-1.56-.27-2.12-.84s-.85-1.26-.85-2.1,.29-1.54,.85-2.1c.57-.56,1.28-.85,2.12-.85,.65,0,1.23,.17,1.71,.53,.42,.33,.54,.81,.3,1.13-.26,.37-.68,.46-1.12,.15-.26-.19-.54-.3-.83-.3Z"/><path class="cls-2" d="M278.87,227.19h-2.88c.09,.61,.56,1.03,1.26,1.03,.39,0,.72-.11,1.01-.34,.45-.32,.86-.22,1.15,.16,.26,.32,.18,.78-.24,1.11-.49,.38-1.12,.56-1.87,.56-.86,0-1.56-.26-2.12-.79-.56-.54-.84-1.24-.84-2.11s.25-1.57,.77-2.13c.52-.56,1.18-.85,1.99-.85,.56,0,1.05,.14,1.48,.4,.86,.54,1.19,1.29,1.19,2.06,0,.6-.3,.89-.91,.89Zm-2.8-1.09h2.02c-.03-.47-.41-.84-.95-.84-.58,0-.96,.34-1.07,.84Z"/><path class="cls-2" d="M282.79,228.77c.07,1.15-1.7,1.15-1.63,0v-6.39c-.07-1.15,1.7-1.15,1.63,0v6.39Z"/><path class="cls-2" d="M288.67,227.19h-2.88c.09,.61,.56,1.03,1.26,1.03,.39,0,.72-.11,1.01-.34,.45-.32,.86-.22,1.15,.16,.26,.32,.18,.78-.24,1.11-.49,.38-1.12,.56-1.87,.56-.86,0-1.56-.26-2.12-.79-.56-.54-.84-1.24-.84-2.11s.25-1.57,.77-2.13c.52-.56,1.18-.85,1.99-.85,.56,0,1.05,.14,1.48,.4,.86,.54,1.19,1.29,1.19,2.06,0,.6-.3,.89-.91,.89Zm-2.8-1.09h2.02c-.03-.47-.41-.84-.95-.84-.58,0-.96,.34-1.07,.84Z"/><path class="cls-2" d="M295.02,224.74c0,.45-.31,.76-.71,.76-.08,0-.25-.02-.36-.02-.78,0-1.38,.63-1.38,1.76v1.54c.07,1.15-1.7,1.15-1.63,0v-3.99c0-.54,.36-.87,.81-.87,.42,0,.73,.27,.79,.68,.32-.45,.87-.7,1.36-.7,.19,0,.34,.01,.46,.05,.37,.09,.64,.38,.64,.8Z"/><path class="cls-2" d="M298.03,223.83c.7,0,1.27,.21,1.72,.61,.45,.4,.67,.94,.67,1.64v2.69c0,.54-.36,.87-.81,.87-.38,0-.63-.17-.76-.52-.39,.39-.87,.58-1.43,.58s-1.01-.16-1.36-.48c-.35-.33-.53-.74-.53-1.25,0-.58,.21-1.02,.63-1.32,.42-.3,.96-.46,1.59-.48l1.03-.05c0-.57-.29-.86-.86-.86-.34,0-.65,.09-.94,.29-.42,.29-.84,.25-1.08-.07-.26-.31-.18-.77,.19-1.08,.49-.39,1.15-.58,1.94-.58Zm-.22,4.5c.33,0,.65-.11,.96-.34v-.66l-.72,.06c-.6,.03-.89,.19-.89,.5,0,.28,.24,.45,.65,.45Z"/><path class="cls-2" d="M305.13,228.86c0,.42-.31,.74-.87,.74h-.15c-1.31,0-1.96-.66-1.96-2.01v-2.13h-.21c-.5,0-.81-.32-.81-.74s.31-.76,.81-.76h.21v-.76c-.07-1.15,1.7-1.15,1.62,0v.76h.55c.5,0,.81,.33,.81,.76s-.31,.74-.81,.74h-.55v1.94c0,.47,.19,.65,.57,.69,.52,.06,.79,.34,.79,.77Z"/><path class="cls-2" d="M307.35,221.42c.54,0,.95,.41,.95,.95s-.44,.94-.95,.94-.94-.42-.94-.94,.42-.95,.94-.95Zm0,8.22c-.47,0-.81-.33-.81-.87v-3.99c0-.54,.34-.87,.81-.87s.81,.33,.81,.87v3.99c0,.54-.34,.87-.81,.87Z"/><path class="cls-2" d="M310.03,224.78c0-.54,.36-.87,.81-.87,.38,0,.63,.17,.76,.5,.33-.39,.78-.58,1.36-.58,1.39,0,2.28,.92,2.28,2.49v2.45c0,.54-.34,.87-.81,.87s-.81-.33-.81-.87v-2.33c0-.64-.3-1.1-.93-1.1-.69,0-1.03,.48-1.03,1.43v1.99c.07,1.15-1.7,1.15-1.63,0v-3.99Z"/><path class="cls-2" d="M317.02,230.15c.29-.31,.68-.32,1.17-.01,.33,.19,.65,.3,.97,.3,.86,0,1.41-.5,1.41-1.25v-.15c-.32,.29-.78,.42-1.36,.42-.8,0-1.47-.25-1.98-.76s-.77-1.19-.77-2.05,.26-1.56,.8-2.06,1.18-.76,1.95-.76c.6,0,1.08,.19,1.43,.6,.11-.36,.37-.53,.76-.53,.47,0,.81,.32,.81,.87v4.23c0,.87-.27,1.58-.81,2.12s-1.27,.81-2.22,.81c-.8,0-1.48-.21-2.04-.62-.42-.32-.42-.85-.11-1.17Zm2.34-4.84c-.69,0-1.24,.55-1.24,1.34s.55,1.33,1.24,1.33,1.25-.55,1.25-1.33-.55-1.34-1.25-1.34Z"/></g><g><path class="cls-2" d="M198.78,270.9c.58,0,.94,.37,.94,.89s-.36,.88-.94,.88h-1.78v6.3c0,.63-.41,1.02-.97,1.02s-.95-.39-.95-1.02v-6.3h-1.76c-.58,0-.94-.37-.94-.88s.36-.89,.94-.89h5.46Z"/><path class="cls-2" d="M202.64,273.45c.79,0,1.43,.23,1.93,.68,.5,.45,.75,1.06,.75,1.84v3.03c0,.61-.4,.98-.91,.98-.42,0-.71-.19-.85-.58-.44,.44-.98,.66-1.61,.66s-1.13-.18-1.53-.54c-.4-.37-.59-.84-.59-1.4,0-.66,.23-1.15,.71-1.48,.48-.33,1.08-.52,1.79-.54l1.16-.05c0-.64-.32-.97-.97-.97-.39,0-.73,.1-1.06,.32-.48,.32-.94,.28-1.21-.08-.3-.35-.21-.86,.22-1.21,.55-.44,1.29-.66,2.18-.66Zm-.24,5.06c.37,0,.73-.13,1.08-.39v-.75l-.81,.06c-.67,.04-1,.22-1,.57,0,.31,.27,.5,.73,.5Z"/><path class="cls-2" d="M209.09,279c.08,1.29-1.91,1.29-1.83,0v-7.19c-.08-1.29,1.91-1.29,1.83,0v7.19Z"/><path class="cls-2" d="M215.69,277.22h-3.23c.1,.68,.63,1.16,1.42,1.16,.44,0,.81-.13,1.13-.39,.5-.36,.97-.24,1.29,.18,.3,.36,.21,.88-.27,1.25-.55,.43-1.26,.63-2.1,.63-.97,0-1.75-.3-2.38-.89-.63-.61-.94-1.39-.94-2.37s.28-1.76,.86-2.4,1.33-.95,2.24-.95c.63,0,1.19,.15,1.66,.45,.97,.61,1.34,1.46,1.34,2.32,0,.67-.33,1-1.02,1Zm-3.14-1.22h2.27c-.04-.53-.46-.94-1.07-.94-.66,0-1.08,.39-1.2,.94Z"/><path class="cls-2" d="M218.27,274.52c0-.61,.4-.98,.91-.98,.42,0,.71,.19,.85,.57,.37-.44,.88-.66,1.53-.66,1.56,0,2.56,1.03,2.56,2.79v2.76c0,.61-.39,.98-.91,.98s-.91-.37-.91-.98v-2.61c0-.72-.33-1.24-1.04-1.24-.77,0-1.16,.54-1.16,1.61v2.24c.08,1.29-1.91,1.29-1.83,0v-4.48Z"/><path class="cls-2" d="M229.37,279.1c0,.48-.35,.84-.98,.84h-.17c-1.47,0-2.2-.75-2.2-2.25v-2.4h-.23c-.57,0-.91-.36-.91-.84s.35-.85,.91-.85h.23v-.85c-.08-1.29,1.91-1.29,1.82,0v.85h.62c.57,0,.91,.37,.91,.85s-.35,.84-.91,.84h-.62v2.18c0,.53,.22,.73,.64,.77,.58,.06,.89,.39,.89,.86Z"/></g><circle class="cls-1" cx="185.24" cy="229.58" r="5.7"/><circle class="cls-1" cx="5.7" cy="185.01" r="5.7"/><circle class="cls-1" cx="82.42" cy="318.74" r="5.7"/><circle class="cls-1" cx="185.24" cy="140.43" r="5.7"/><circle class="cls-1" cx="242.42" cy="318.74" r="5.7"/><circle class="cls-1" cx="262.45" cy="95.85" r="5.7"/><circle class="cls-1" cx="108.65" cy="185.01" r="5.7"/><circle class="cls-3" cx="236.71" cy="51.28" r="5.7"/><circle class="cls-3" cx="159.51" cy="363.31" r="5.7"/><circle class="cls-3" cx="313.92" cy="185.27" r="5.7"/><circle class="cls-3" cx="319.63" cy="274.16" r="5.7"/><circle class="cls-3" cx="159.51" cy="6.7" r="5.7"/><circle class="cls-1" cx="82.42" cy="51.28" r="5.7"/></g></g></svg>