<?xml version="1.0" encoding="UTF-8"?><svg id="Layer_2" xmlns="http://www.w3.org/2000/svg" viewBox="0 0 602.46 66.84"><defs><style>.cls-1{fill:#fff;}.cls-2{fill:#8e402b;}.cls-3{fill:#0d2175;}</style></defs><g id="Capa_1"><g><g><path class="cls-3" d="M62.47,0h-29.08C15.24,0,.18,14.5,0,32.65c-.18,18.33,14.68,33.3,32.97,33.3H105.97c3.49,0,6.32-2.83,6.32-6.32V6.32C112.3,2.83,109.47,0,105.97,0H62.47Z"/><path class="cls-1" d="M79.63,53.75c-11.46,0-20.78-9.32-20.78-20.78s9.32-20.78,20.78-20.78,20.78,9.32,20.78,20.78-9.32,20.78-20.78,20.78Zm0-35.23c-7.97,0-14.45,6.48-14.45,14.45s6.48,14.45,14.45,14.45,14.45-6.48,14.45-14.45-6.48-14.45-14.45-14.45Z"/><path class="cls-2" d="M79.63,42.46c-1.75,0-3.16-1.42-3.16-3.16v-12.65c0-1.75,1.42-3.16,3.16-3.16s3.16,1.42,3.16,3.16v12.65c0,1.75-1.42,3.16-3.16,3.16Z"/><path class="cls-1" d="M50.59,29.81h-16c-1.75,0-3.16,1.42-3.16,3.16s1.42,3.16,3.16,3.16h12.48c-1.45,6.45-7.22,11.29-14.1,11.29-7.97,0-14.45-6.48-14.45-14.45s6.48-14.45,14.45-14.45c3.38,0,6.67,1.2,9.27,3.37,1.34,1.12,3.33,.94,4.45-.39,1.12-1.34,.95-3.33-.39-4.45-3.73-3.13-8.46-4.85-13.33-4.85-11.46,0-20.78,9.32-20.78,20.78s9.32,20.78,20.78,20.78c5.61,0,10.71-2.24,14.45-5.87v2.71c0,1.75,1.42,3.16,3.16,3.16s3.16-1.42,3.16-3.16v-17.62c0-1.75-1.42-3.16-3.16-3.16Z"/></g><g><path class="cls-1" d="M149.99,52.29L167.02,4.52c1.01-2.85,4.33-4.42,7.18-3.31,2.85,1.01,4.14,4.23,3.04,7.09l-19.33,51.92c-1.38,4.05-4.05,6.08-8.01,6.08s-6.35-1.93-7.73-5.89L122.75,8.29c-1.1-2.85,.18-6.08,3.04-7.09,2.85-1.11,6.17,.46,7.18,3.31l17.03,47.78Z"/><path class="cls-1" d="M186.73,7.09c0-3.31,2.58-5.8,5.8-5.8h35.53c2.67,0,4.97,2.21,4.97,5.06,0,2.67-2.21,4.88-5.06,4.88h-30.29V27.9h28.81c2.67,0,4.97,2.21,4.97,5.06s-2.3,4.97-4.97,4.97h-28.81v17.95h30.29c2.85,0,5.06,2.21,5.06,4.88,0,2.85-2.3,5.06-4.97,5.06h-35.53c-3.22,0-5.8-2.49-5.8-5.8V7.09Z"/><path class="cls-1" d="M257.33,20.35V60.39c.55,7.83-11.6,7.83-10.95,0V8.29c0-4.79,2.95-7.46,7-7.46,2.49,0,4.33,.92,5.62,2.76l30.38,43.36V6.73c-.46-7.82,11.69-7.82,11.05,0V58.83c0,4.79-2.95,7.46-7,7.46-2.49,0-4.33-.92-5.62-2.76l-30.47-43.17Z"/><path class="cls-1" d="M355.47,1.29c7.55-.46,7.55,10.4,0,9.94h-14.91V60.85c0,3.04-2.49,5.43-5.52,5.43s-5.43-2.39-5.43-5.43V11.24h-14.45c-7.55,.46-7.55-10.4,0-9.94h40.32Z"/><path class="cls-1" d="M421.29,37.2c0,19.24-10.13,29.64-26.05,29.64s-26.05-10.4-26.05-29.64V6.27c0-3.04,2.49-5.43,5.52-5.43s5.52,2.3,5.52,5.34v31.12c0,13.07,4.97,19.61,15,19.61s15-6.54,15-19.7V6.27c0-3.04,2.49-5.43,5.52-5.43s5.52,2.39,5.52,5.43v30.93Z"/><path class="cls-1" d="M458.75,43.82h-13.35v17.03c0,3.04-2.49,5.43-5.52,5.43s-5.43-2.39-5.43-5.43V7.09c0-3.31,2.58-5.8,5.8-5.8h18.78c15.19,0,24.58,7.82,24.58,21.08,0,9.48-4.79,16.39-13.16,19.61l9.57,15.37c1.93,3.59,1.2,6.17-1.47,7.92-3.13,1.93-5.71,1.29-7.82-2.02l-11.97-19.42Zm-13.35-32.59v22.55h12.24c10.03,0,15-3.77,15-11.32s-4.97-11.23-15-11.23h-12.24Z"/><path class="cls-1" d="M495.3,7.09c0-3.31,2.58-5.8,5.8-5.8h35.53c2.67,0,4.97,2.21,4.97,5.06,0,2.67-2.21,4.88-5.06,4.88h-30.29V27.9h28.81c2.67,0,4.97,2.21,4.97,5.06s-2.3,4.97-4.97,4.97h-28.81v17.95h30.29c2.85,0,5.06,2.21,5.06,4.88,0,2.85-2.3,5.06-4.97,5.06h-35.53c-3.22,0-5.8-2.49-5.8-5.8V7.09Z"/><path class="cls-1" d="M554.5,50.64c1.93-2.3,5.52-2.67,7.82-.55,1.57,1.38,2.95,2.49,4.05,3.31,2.21,1.47,7.27,3.5,12.8,3.5,7.83,0,12.24-3.5,12.24-8.56s-3.5-8.01-10.59-9.21l-7.83-1.29c-12.24-2.21-19.33-8.75-19.33-19.15,0-5.52,2.21-9.94,6.63-13.35,4.42-3.41,9.76-5.06,16.11-5.06,3.41,0,6.44,.46,9.3,1.29,2.85,.83,4.88,1.66,6.26,2.49,1.38,.83,2.95,1.84,4.69,3.22,2.49,1.93,2.85,5.43,.92,7.73-1.93,2.3-5.34,2.58-7.64,.64-4.33-3.59-8.93-5.43-13.99-5.43-7.37,0-11.23,3.77-11.23,8.19s3.59,7.55,10.68,8.75l6.44,1.11c13.9,2.21,20.62,9.3,20.62,19.88,0,5.52-2.21,10.03-6.63,13.53-4.42,3.41-10.4,5.16-18.04,5.16-3.68,0-7.09-.55-10.31-1.57-3.13-1.01-5.43-2.02-6.81-2.95-1.38-1.01-3.13-2.3-5.16-3.96-2.49-1.93-2.95-5.43-1.01-7.73Z"/></g></g></g></svg>