<?xml version="1.0" encoding="UTF-8"?><svg id="Layer_2" xmlns="http://www.w3.org/2000/svg" viewBox="0 0 144.13 143.94"><defs><style>.cls-1{fill:#894533;}</style></defs><g id="Capa_1"><g><path class="cls-1" d="M56.35,79.31c-1.21,2-2.08,3.87-3.34,5.43-2.65,3.3-6.25,4.94-10.45,5.09-1.08,.04-1.43,.45-1.74,1.36-1.84,5.39-3.75,10.75-5.62,16.13-.65,1.87-.57,3.72,.22,5.56,3.09,7.21,6.16,14.43,9.25,21.63,1,2.33,1.08,4.77,.93,7.22-.08,1.32-1.17,2.23-2.41,2.2-1.25-.02-2.44-.98-2.3-2.28,.4-3.61-1.25-6.62-2.57-9.73-2.45-5.8-4.94-11.58-7.39-17.38-1.24-2.94-1.27-5.92-.21-8.93,1.96-5.56,3.89-11.13,5.85-16.75-6.07-3.07-9.4-7.88-8.8-14.72,.56-6.37,4.3-10.46,10.45-12.66-.4-.43-.74-.82-1.1-1.19-3.85-3.86-7.71-7.72-11.56-11.58-1.6-1.6-1.6-2.73,0-4.34,4.17-4.18,8.36-8.34,12.63-12.6-8.29-3.51-12.13-9.45-9.87-18.33,1.52-5.98,7.15-9.97,13.41-10.15,5.16-.15,11.63,2.63,14.27,10.56,.44-.4,.83-.75,1.19-1.11,3.83-3.82,7.64-7.64,11.47-11.46,1.73-1.72,2.83-1.72,4.57,.02,4.71,4.7,9.41,9.42,14.13,14.11,.82,.82,1.5,1.66,1.16,2.89-.36,1.3-1.44,1.65-2.62,1.9-4.76,1.04-7.87,5.23-7.55,10.12,.3,4.61,4.18,8.52,8.74,8.81,4.92,.32,9.14-2.76,10.18-7.48,.26-1.17,.54-2.28,1.85-2.67,1.29-.38,2.17,.34,3.02,1.2,4.69,4.72,9.41,9.42,14.11,14.13,1.67,1.68,1.68,2.81,.02,4.47-3.81,3.83-7.63,7.66-11.48,11.46-.38,.38-.97,.55-1.33,.94,7.29,3.24,10.79,7.96,10.72,14.38-.06,6.49-3.69,11.16-10.91,13.94,0,3.9-.24,7.86,.06,11.79,.45,6.06-3.6,10.41-10.93,8.62-2.96-.72-5.59-2.08-7.85-4.16l-.47,.28c.65,1.77,1.32,3.55,1.96,5.32,.86,2.39,1.97,4.72,2.5,7.18,.97,4.47,.29,8.85-1.65,13.01-.32,.68-.61,1.37-1,2.01-1.41,2.33-2.22,4.79-1.85,7.55,.02,.15,0,.3,0,.45-.12,1.42-1.1,2.39-2.41,2.38-1.31,0-2.3-.98-2.37-2.41-.16-3.07,.08-6.01,1.66-8.84,1.29-2.33,2.33-4.89,2.94-7.48,.86-3.7,.18-7.38-1.63-10.75-2.17-4.02-3.05-8.27-3-12.84,.1-9.11,.05-18.22,.02-27.32-.01-3.18-2.01-5.88-4.92-6.85-2.95-.98-6.32-.07-7.98,2.57-.86,1.36-1.43,3.14-1.45,4.74-.12,10.66-.06,21.32-.07,31.98,0,.5,.05,1.01-.04,1.5-.25,1.29-1.06,2.07-2.38,2.05-1.32-.01-2.12-.8-2.34-2.1-.08-.44-.03-.9-.03-1.35,0-7.26-.03-14.51,.03-21.77,.01-1.3-.3-2.26-1.3-3.13-.93-.81-1.69-1.81-2.43-2.64Zm27.94-5.06c.59-.68,1.02-1.2,1.48-1.71,.87-.96,1.89-1.55,3.19-.91,1.26,.63,1.45,1.75,1.33,3.06-.49,5.48,3.79,10.26,9.27,10.4,5.46,.14,9.91-4.24,9.85-9.71-.06-5.59-4.55-9.73-10.35-9.46-1.34,.06-2.56-.02-3.13-1.43-.54-1.32,.15-2.27,1.06-3.17,4.54-4.52,9.06-9.06,13.58-13.6,.37-.37,.73-.77,1.03-1.09-3.6-3.61-7.1-7.11-10.62-10.64-3.67,6.16-9.02,9.14-16.22,7.61-5.73-1.22-9.52-4.97-10.79-10.68-1.6-7.24,1.36-12.65,7.45-16.27l-10.81-10.76c-.31,.39-.67,.95-1.12,1.41-4.41,4.43-8.86,8.84-13.27,13.28-.91,.91-1.87,1.58-3.18,1.03-1.33-.55-1.52-1.69-1.43-3,.06-.84,.05-1.71-.1-2.54-.96-5.21-5.73-8.58-10.92-7.77-5.04,.79-8.64,5.37-8.09,10.26,.6,5.36,4.98,9.04,10.37,8.66,1.3-.09,2.42,.08,3.05,1.35,.64,1.31,0,2.29-.91,3.19-2.84,2.82-5.67,5.66-8.5,8.49-2.08,2.08-4.17,4.16-6.31,6.29,.46,.48,.83,.88,1.21,1.27,4.31,4.32,8.63,8.64,12.94,12.96,.35,.35,.71,.7,1.05,1.07,.75,.81,1.13,1.85,.45,2.72-.51,.65-1.46,1.02-2.29,1.33-.47,.18-1.09-.02-1.64-.02-4.4,.02-8.24,3.11-9.22,7.39-1,4.39,1.09,8.84,5.09,10.81,3.99,1.97,8.9,.91,11.68-2.54,1.46-1.82,2.21-3.9,2.17-6.24,0-.45-.19-.96-.03-1.34,.34-.82,.68-1.77,1.32-2.29,.87-.7,1.92-.33,2.71,.43,1.41,1.36,2.78,2.75,4.32,4.27,.53-8.71,4.52-13.65,11.11-14.07,6.86-.44,11.51,3.66,13.2,11.95Zm1.64,5.21l-.44-.14c-.47,.82-1.32,1.62-1.35,2.45-.13,4.14-.16,8.3-.02,12.44,.2,5.96,5.25,10.96,11.19,11.29,2.18,.12,3.17-.78,3.18-2.94,.01-3.8,0-7.59,0-11.39,0-.43-.06-.86-.09-1.31-6.28-.99-10.42-4.44-12.47-10.39Z"/><path class="cls-1" d="M9.52,50.27c-2.25,0-4.5,.02-6.76,0-1.67-.02-2.72-.92-2.76-2.33-.05-1.46,1.04-2.46,2.77-2.47,4.55-.02,9.11-.02,13.66,0,1.67,0,2.72,.92,2.76,2.32,.05,1.45-1.04,2.45-2.77,2.47-2.3,.02-4.6,0-6.91,0Z"/><path class="cls-1" d="M134.38,50.27c-2.2,0-4.4,.01-6.61,0-1.77-.02-2.84-.94-2.84-2.4,0-1.46,1.06-2.39,2.84-2.4,4.5-.02,9.01-.02,13.51,0,1.77,0,2.84,.94,2.84,2.39,0,1.45-1.08,2.39-2.84,2.4-2.3,.02-4.6,0-6.91,0Z"/><path class="cls-1" d="M21.82,75.99c-.3,.36-.72,1.23-1.41,1.65-4.02,2.41-8.09,4.74-12.18,7.05-1.34,.76-2.7,.37-3.38-.8-.69-1.19-.34-2.53,1-3.32,4.09-2.4,8.18-4.79,12.32-7.11,1.72-.96,3.68,.2,3.65,2.53Z"/><path class="cls-1" d="M124.29,72.85c.9,.34,1.44,.47,1.9,.74,3.99,2.28,7.97,4.56,11.93,6.88,1.46,.85,1.86,2.16,1.17,3.39-.69,1.24-2.07,1.6-3.5,.78-4.08-2.32-8.14-4.67-12.19-7.04-1.05-.61-1.68-1.61-1.13-2.77,.38-.79,1.22-1.36,1.81-1.98Z"/><path class="cls-1" d="M21.82,19.76c-.07,2.4-1.98,3.44-3.73,2.48-2.58-1.41-5.1-2.93-7.65-4.4-1.51-.87-3.04-1.72-4.53-2.62-1.35-.82-1.74-2.1-1.08-3.3,.68-1.25,2.07-1.63,3.48-.83,4.03,2.29,8.06,4.58,12.03,6.97,.72,.44,1.17,1.33,1.48,1.71Z"/><path class="cls-1" d="M139.6,13.57c-.27,.33-.64,1.18-1.29,1.56-4.06,2.43-8.17,4.79-12.29,7.12-1.32,.75-2.71,.34-3.37-.84-.66-1.18-.29-2.53,1.04-3.32,4.04-2.37,8.09-4.73,12.17-7.03,1.8-1.01,3.8,.12,3.74,2.5Z"/></g></g></svg>