<?xml version="1.0" encoding="UTF-8"?><svg id="Layer_2" xmlns="http://www.w3.org/2000/svg" viewBox="0 0 598.88 66.44"><defs><style>.cls-1{fill:#fff;}</style></defs><g id="Capa_1"><g><g><path class="cls-1" d="M79.15,18.41c-7.92,0-14.37,6.45-14.37,14.37s6.45,14.37,14.37,14.37,14.37-6.45,14.37-14.37-6.45-14.37-14.37-14.37Zm3.14,20.65c0,1.74-1.41,3.14-3.14,3.14s-3.14-1.41-3.14-3.14v-12.57c0-1.74,1.41-3.14,3.14-3.14s3.14,1.41,3.14,3.14v12.57Z"/><path class="cls-1" d="M105.35,0H33.2C15.15,0,.18,14.41,0,32.46c-.18,18.22,14.6,33.1,32.78,33.1H105.35c3.47,0,6.29-2.81,6.29-6.29V6.29c0-3.47-2.81-6.29-6.29-6.29ZM53.43,50.29c0,1.74-1.41,3.14-3.14,3.14s-3.14-1.41-3.14-3.14v-2.69c-3.72,3.61-8.79,5.84-14.37,5.84-11.39,0-20.65-9.27-20.65-20.66S21.39,12.12,32.78,12.12c4.83,0,9.54,1.71,13.25,4.82,1.33,1.11,1.51,3.1,.39,4.43-1.11,1.33-3.1,1.51-4.43,.39-2.58-2.16-5.85-3.35-9.21-3.35-7.92,0-14.37,6.45-14.37,14.37s6.45,14.37,14.37,14.37c6.84,0,12.58-4.81,14.02-11.23h-12.41c-1.74,0-3.14-1.41-3.14-3.14s1.41-3.14,3.14-3.14h15.9c1.74,0,3.14,1.41,3.14,3.14v17.51Zm25.72,3.14c-11.39,0-20.66-9.27-20.66-20.66s9.27-20.66,20.66-20.66,20.66,9.27,20.66,20.66-9.27,20.66-20.66,20.66Z"/></g><g><path class="cls-1" d="M149.1,51.99L166.03,4.49c1.01-2.84,4.3-4.39,7.14-3.29,2.84,1.01,4.12,4.21,3.02,7.05l-19.22,51.61c-1.37,4.03-4.03,6.04-7.96,6.04s-6.31-1.92-7.69-5.86L122.02,8.25c-1.1-2.84,.18-6.04,3.02-7.05,2.84-1.1,6.13,.46,7.14,3.29l16.93,47.49Z"/><path class="cls-1" d="M185.62,7.06c0-3.29,2.56-5.76,5.76-5.76h35.32c2.65,0,4.94,2.2,4.94,5.03,0,2.65-2.2,4.85-5.03,4.85h-30.11V27.74h28.64c2.65,0,4.94,2.2,4.94,5.03s-2.29,4.94-4.94,4.94h-28.64v17.84h30.11c2.84,0,5.03,2.2,5.03,4.85,0,2.84-2.29,5.03-4.94,5.03h-35.32c-3.2,0-5.76-2.47-5.76-5.76V7.06Z"/><path class="cls-1" d="M255.81,20.23V60.04c.55,7.78-11.53,7.78-10.89,0V8.25c0-4.76,2.93-7.41,6.95-7.41,2.47,0,4.3,.92,5.58,2.75l30.2,43.1V6.69c-.46-7.78,11.62-7.78,10.98,0V58.48c0,4.76-2.93,7.41-6.95,7.41-2.47,0-4.3-.92-5.58-2.75l-30.29-42.92Z"/><path class="cls-1" d="M353.36,1.29c7.5-.46,7.5,10.34,0,9.88h-14.82V60.5c0,3.02-2.47,5.4-5.49,5.4s-5.4-2.38-5.4-5.4V11.17h-14.37c-7.5,.46-7.5-10.34,0-9.88h40.08Z"/><path class="cls-1" d="M418.79,36.98c0,19.12-10.07,29.47-25.9,29.47s-25.9-10.34-25.9-29.47V6.23c0-3.02,2.47-5.4,5.49-5.4s5.49,2.29,5.49,5.31v30.93c0,12.99,4.94,19.49,14.92,19.49s14.92-6.5,14.92-19.58V6.23c0-3.02,2.47-5.4,5.49-5.4s5.49,2.38,5.49,5.4v30.75Z"/><path class="cls-1" d="M456.04,43.57h-13.27v16.93c0,3.02-2.47,5.4-5.49,5.4s-5.4-2.38-5.4-5.4V7.06c0-3.29,2.56-5.76,5.76-5.76h18.67c15.1,0,24.43,7.78,24.43,20.96,0,9.43-4.76,16.29-13.09,19.49l9.52,15.28c1.92,3.57,1.19,6.13-1.46,7.87-3.11,1.92-5.67,1.28-7.78-2.01l-11.9-19.31Zm-13.27-32.39v22.42h12.17c9.97,0,14.92-3.75,14.92-11.25s-4.94-11.16-14.92-11.16h-12.17Z"/><path class="cls-1" d="M492.37,7.06c0-3.29,2.56-5.76,5.76-5.76h35.32c2.65,0,4.94,2.2,4.94,5.03,0,2.65-2.2,4.85-5.03,4.85h-30.11V27.74h28.64c2.65,0,4.94,2.2,4.94,5.03s-2.29,4.94-4.94,4.94h-28.64v17.84h30.11c2.84,0,5.03,2.2,5.03,4.85,0,2.84-2.29,5.03-4.94,5.03h-35.32c-3.2,0-5.76-2.47-5.76-5.76V7.06Z"/><path class="cls-1" d="M551.21,50.34c1.92-2.29,5.49-2.65,7.78-.55,1.56,1.37,2.93,2.47,4.03,3.29,2.2,1.46,7.23,3.48,12.72,3.48,7.78,0,12.17-3.48,12.17-8.51s-3.48-7.96-10.52-9.15l-7.78-1.28c-12.17-2.2-19.22-8.69-19.22-19.03,0-5.49,2.2-9.88,6.59-13.27,4.39-3.39,9.7-5.03,16.01-5.03,3.39,0,6.41,.46,9.24,1.28,2.84,.82,4.85,1.65,6.22,2.47,1.37,.82,2.93,1.83,4.67,3.2,2.47,1.92,2.84,5.4,.92,7.69-1.92,2.29-5.31,2.56-7.6,.64-4.3-3.57-8.88-5.4-13.91-5.4-7.32,0-11.16,3.75-11.16,8.14s3.57,7.5,10.61,8.69l6.41,1.1c13.82,2.2,20.5,9.24,20.5,19.77,0,5.49-2.2,9.97-6.59,13.45-4.39,3.39-10.34,5.12-17.94,5.12-3.66,0-7.05-.55-10.25-1.56-3.11-1.01-5.4-2.01-6.77-2.93-1.37-1.01-3.11-2.29-5.12-3.93-2.47-1.92-2.93-5.4-1.01-7.69Z"/></g></g></g></svg>