<?xml version="1.0" encoding="UTF-8"?><svg id="Layer_2" xmlns="http://www.w3.org/2000/svg" viewBox="0 0 28.06 28.02"><defs><style>.cls-1{fill:#fff;}</style></defs><g id="Capa_1"><path class="cls-1" d="M25.09,16.56v.38c0,2.63,0,5.27,0,7.9,0,1.9-1.29,3.19-3.18,3.19-1.39,0-2.78,0-4.17,0-.67,0-.98-.32-.98-1,0-2.09,0-4.19,0-6.28,0-.99-.55-1.54-1.55-1.54-.79,0-1.57,0-2.36,0-.92,0-1.49,.57-1.49,1.49,0,2.1,0,4.21,0,6.31,0,.72-.3,1.02-1.01,1.02-1.39,0-2.78,0-4.17,0-1.86,0-3.15-1.3-3.15-3.16,0-2.64,0-5.28,0-7.93v-.38c-.13,0-.24,0-.35,0-1.13,0-2.07-.6-2.46-1.6C-.21,13.89,0,12.92,.81,12.11c1.72-1.74,3.46-3.47,5.2-5.2,2.03-2.03,4.09-4.03,6.08-6.1,1.03-1.07,2.89-1.07,3.94,0,3.72,3.79,7.49,7.54,11.26,11.27,1.17,1.16,1.01,3.31-.45,4.13-.39,.22-.8,.35-1.25,.35-.15,0-.31,0-.49,0Zm-6.69,9.82c1.19,0,2.33,0,3.47,0,1.03,0,1.57-.54,1.57-1.57,0-2.98,0-5.96,0-8.94,0-.62,.33-.94,.95-.95,.38,0,.77,0,1.15,0,.42,0,.75-.27,.87-.67,.14-.46-.08-.78-.39-1.09-3.72-3.72-7.44-7.43-11.16-11.15-.57-.57-1.05-.57-1.62,0-3.31,3.31-6.62,6.62-9.93,9.93-.45,.45-.91,.9-1.36,1.36-.3,.3-.39,.66-.22,1.06,.17,.38,.48,.57,.89,.56,.31,0,.62,0,.93,0,.83,0,1.11,.27,1.11,1.09,0,2.94,.02,5.87-.01,8.81-.01,1,.71,1.6,1.56,1.57,1.06-.04,2.12,0,3.18,0h.31c0-.15,0-.26,0-.36,0-1.86-.02-3.71,.01-5.57,.02-1.46,1.19-2.74,2.65-2.84,1.12-.08,2.25-.02,3.37-.01,.09,0,.18,.02,.27,.04,1.43,.33,2.37,1.5,2.38,2.99,.01,1.8,0,3.6,0,5.4,0,.11,0,.21,0,.35Z"/></g></svg>