<?xml version="1.0" encoding="utf-8"?>
<!-- Generator: Adobe Illustrator 26.3.1, SVG Export Plug-In . SVG Version: 6.00 Build 0)  -->
<svg version="1.1" id="Layer_2_00000147186133197139504940000014697100673576920738_"
	 xmlns="http://www.w3.org/2000/svg" xmlns:xlink="http://www.w3.org/1999/xlink" x="0px" y="0px" viewBox="0 0 30.6 30.6"
	 style="enable-background:new 0 0 30.6 30.6;" xml:space="preserve">
<style type="text/css">
	.st0{fill:#FFFFFF;}
</style>
<path class="st0" d="M16.4,25.6c-0.6,0-1.2-0.2-1.6-0.6l-1.1-1L13,24.7c-0.5,0.5-1.1,0.7-1.7,0.7l0,0c-0.6,0-1.2-0.2-1.7-0.7
	l-0.2-0.2c-0.1-0.1-0.3-0.3-0.4-0.4c-0.2,0.1-0.5,0.1-0.7,0.1l0,0c-0.6,0-1.2-0.2-1.7-0.7l-0.2-0.2c-0.2-0.2-0.3-0.4-0.5-0.6
	c-0.1,0-0.2,0-0.4,0l0,0c-0.6,0-1.2-0.2-1.7-0.7l-0.2-0.2c-0.5-0.4-0.7-1.1-0.7-1.7c0-0.2,0-0.4,0.1-0.5c-0.2-0.1-0.3-0.2-0.5-0.3
	L2.2,19c-0.5-0.4-0.7-1.1-0.7-1.7s0.2-1.2,0.7-1.7L3,14.7l-2.1-1.8C0.3,12.5,0,11.8,0,11.1c0-0.6,0.2-1.1,0.6-1.6l2.8-3.1
	c0.3-0.3,0.6-0.6,1-0.7c0.4-0.2,0.8-0.2,1.2-0.2s0.8,0.1,1.1,0.2l1.5,0.6C8.4,6.4,8.7,6.5,9,6.5l0,0c0.3,0,0.6-0.1,0.8-0.1l1.5-0.6
	c0.5-0.2,1-0.3,1.6-0.3c0.7,0,1.2,0.1,1.7,0.4L14.9,6c0.1,0,0.2,0,0.3,0.1c0.5-0.4,1.2-0.6,1.9-0.6c0.5,0,1,0.1,1.4,0.3l2.2,1.1
	c0.2,0,0.4,0.1,0.6,0.1l0,0l0,0c0.3,0,0.6-0.1,0.7-0.2l0,0l2.3-1.4C24.7,5.1,25.2,5,25.7,5c0.8,0,1.5,0.4,2,1L30,9
	c0.4,0.5,0.5,1,0.5,1.6l0,0c0,0.7-0.2,1.3-0.7,1.8l-3.6,4l0,0c0.5,0.5,0.8,1.1,0.8,1.8c0,0.6-0.2,1.2-0.6,1.6L26.2,20
	c-0.2,0.3-0.6,0.5-0.9,0.6c0,0.6-0.2,1.2-0.6,1.6l-0.2,0.3c-0.5,0.5-1.1,0.8-1.8,0.8l0,0c-0.1,0.3-0.3,0.5-0.5,0.8L22,24.2
	c-0.5,0.5-1.1,0.8-1.8,0.8l0,0c-0.6,0-1.2-0.2-1.6-0.6l0,0c-0.1,0.1-0.1,0.1-0.2,0.2l-0.2,0.3C17.7,25.3,17.1,25.6,16.4,25.6
	L16.4,25.6z M15,22.2l1.2,1.1c0,0,0.1,0.1,0.2,0.1s0.1,0,0.2-0.1l0.2-0.3c0,0,0.1-0.1,0.1-0.2s0-0.1-0.1-0.2L16.1,22
	c-0.2-0.2-0.3-0.5-0.3-0.7c0-0.3,0.1-0.6,0.3-0.8l0,0c0.4-0.4,1.1-0.5,1.5-0.1l2.4,2.2c0,0,0.1,0.1,0.2,0.1c0,0,0.1,0,0.2-0.1
	l0.2-0.3c0,0,0.1-0.1,0.1-0.2s0-0.1-0.1-0.2L17.5,19c-0.2-0.2-0.3-0.5-0.3-0.7c0-0.3,0.1-0.6,0.3-0.8c0.4-0.4,1.1-0.5,1.5-0.1
	l3.6,3.3c0.1,0.1,0.1,0.1,0.2,0.1s0.1,0,0.2-0.1l0.2-0.2c0,0,0.1-0.1,0.1-0.2s0-0.1-0.1-0.2l-3.9-3.6C19.1,16.3,19,16,19,15.8
	c0-0.3,0.1-0.6,0.3-0.8l0,0c0.4-0.4,1.1-0.5,1.5-0.1l3.6,3.3c0,0,0.1,0.1,0.2,0.1s0.1,0,0.2-0.1l0.2-0.3l0,0c0,0,0.1-0.1,0.1-0.2
	s0-0.1-0.1-0.2l-3-2.7c-0.5-0.5-1.4-1.2-2-1.6l-2.6-1.8l0,0c-0.1-0.1-0.3-0.1-0.6-0.1l0,0l0,0c-0.2,0-0.4,0.1-0.5,0.1L15.4,12
	c-0.4,0.2-0.8,0.4-1.3,0.4c-0.8,0-1.6-0.4-2.1-1l-0.2-0.3l0,0c-0.3-0.4-0.5-0.9-0.5-1.4c0-0.8,0.4-1.5,1-1.9l0.6-0.4
	c-0.1,0-0.1,0-0.2,0l0,0c-0.3,0-0.6,0.1-0.7,0.1l-1.5,0.6c-0.5,0.2-1,0.3-1.6,0.3S7.7,8.3,7.3,8.1L5.9,7.7c0,0-0.1,0-0.3,0
	c-0.1,0-0.3,0-0.4,0.1C5.1,7.7,5,7.8,5,7.9L2.2,11c0,0-0.1,0.1-0.1,0.2c0,0.1,0,0.1,0.1,0.2l2.2,1.9L4.7,13c0.5-0.5,1.1-0.7,1.7-0.7
	l0,0c0.6,0,1.2,0.2,1.7,0.7l0.2,0.2l0,0c0.3,0.3,0.5,0.7,0.6,1.1c0.5,0.1,1,0.3,1.3,0.6l0.2,0.2c0.5,0.4,0.7,1.1,0.7,1.7
	c0,0.1,0,0.1,0,0.2c0.2,0.1,0.5,0.3,0.6,0.4l0.2,0.2l0.1,0.1c0.1,0.2,0.4,0.6,0.6,1.1c0.5,0.1,0.9,0.3,1.3,0.6l0.2,0.2
	c0.5,0.4,0.7,1.1,0.7,1.7C15.1,21.8,15.1,22,15,22.2z M12.4,21c-0.1,0-0.1,0-0.2,0.1l-1.4,1.5c0,0-0.1,0.1-0.1,0.2
	c0,0,0,0.1,0.1,0.2l0.2,0.2c0,0,0.1,0.1,0.2,0.1c0.1,0,0.1,0,0.2-0.1l0,0l1.4-1.5c0,0,0.1-0.1,0.1-0.2c0,0,0-0.1-0.1-0.2l-0.2-0.2
	C12.6,21.1,12.5,21,12.4,21z M7.8,21.4v0.1c0,0.1,0,0.1,0.1,0.2L8.1,22c0,0,0.1,0.1,0.2,0.1c0.1,0,0.1,0,0.2-0.1l2.2-2.3
	c0,0,0.1-0.1,0.1-0.2c0,0,0-0.1-0.1-0.2L10.4,19c0,0-0.1-0.1-0.2-0.1c-0.1,0-0.1,0-0.2,0.1L7.8,21.4z M5.1,20.3L5.1,20.3l0.3,0.2
	c0,0,0.1,0.1,0.2,0.1s0.1,0,0.2-0.1L9.1,17c0,0,0.1-0.1,0.1-0.2c0,0,0-0.1-0.1-0.2l-0.3-0.2c0,0-0.1-0.1-0.2-0.1c0,0-0.1,0-0.2,0.1
	c-0.1,0.1-0.7,0.7-3.4,3.5C5,20,5,20,5,20.1C5,20.1,5,20.2,5.1,20.3z M6.4,14.3c-0.1,0-0.1,0-0.2,0.1L3.7,17c0,0-0.1,0.1-0.1,0.2
	s0,0.1,0.1,0.2l0,0l0.2,0.2C4,17.7,4,17.7,4.1,17.7h0.1c2-2.1,2.5-2.6,2.6-2.7v-0.1c0-0.1-0.1-0.2-0.1-0.3l-0.2-0.2
	C6.5,14.4,6.5,14.3,6.4,14.3z M16.8,9.5c0.7,0,1.3,0.2,1.8,0.5l2.6,1.8c0.6,0.5,1.6,1.2,2.2,1.8l1.4,1.3l3.6-3.9l0,0
	c0.1-0.1,0.1-0.2,0.1-0.3s0-0.3-0.1-0.3l-2.3-3c-0.1-0.1-0.2-0.1-0.3-0.1c-0.1,0-0.1,0-0.2,0.1l-2.3,1.4c-0.5,0.3-1.2,0.5-1.9,0.5
	c-0.6,0-1.1-0.1-1.5-0.3l-2.2-1.1c-0.1,0-0.3-0.1-0.5-0.1l0,0c-0.3,0-0.6,0.1-0.7,0.2l0,0l-2.7,1.9c-0.1,0.1-0.1,0.1-0.1,0.2v0.1
	l0,0l0.2,0.3c0.1,0.1,0.2,0.2,0.3,0.2l0,0c0.1,0,0.1,0,0.2,0l0.9-0.6C15.7,9.6,16.3,9.5,16.8,9.5z"/>
</svg>
