<?xml version="1.0" encoding="utf-8"?>
<!-- Generator: Adobe Illustrator 26.3.1, SVG Export Plug-In . SVG Version: 6.00 Build 0)  -->
<svg version="1.1" id="Layer_1" xmlns="http://www.w3.org/2000/svg" xmlns:xlink="http://www.w3.org/1999/xlink" x="0px" y="0px"
	 viewBox="0 0 141 93" style="enable-background:new 0 0 141 93;" xml:space="preserve">
<style type="text/css">
	.st0{fill:#FFFFFF;}
</style>
<path class="st0" d="M123.6,1.6L123.6,1.6l-0.1-0.1c-2-0.9-4.2-1.5-6.5-1.5H24c-2.1,0-4.1,0.4-6,1.2L17.9,1l-0.5,0.5
	c-5.2,2.5-8.9,7.8-8.9,14v62C8.5,86,15.5,93,24,93h93c8.5,0,15.5-7,15.5-15.5v-62C132.5,9.3,128.9,4.1,123.6,1.6L123.6,1.6z
	 M114.5,10.3L74.9,48.9c-2.1,2.1-5.7,2.1-7.9,0L27.4,10.3H114.5z M117,82.7H24c-2.9,0-5.2-2.3-5.2-5.2V16.4l40.9,39.9
	c3.1,3,7.1,4.5,11.2,4.5c4,0,8.1-1.5,11.2-4.5l40.1-39.1v60.2C122.2,80.3,119.9,82.7,117,82.7L117,82.7z"/>
</svg>
