<?xml version="1.0" encoding="UTF-8"?><svg id="Layer_2" xmlns="http://www.w3.org/2000/svg" viewBox="0 0 24.35 24.72"><defs><style>.cls-1{fill:#fff;}</style></defs><g id="Capa_1"><g><path class="cls-1" d="M.44,24.72C.1,24.55,0,24.27,0,23.89c.02-1.33,.01-2.66,0-3.98,0-.3,.09-.52,.3-.73,2.56-2.56,5.12-5.12,7.69-7.68,.12-.12,.18-.21,.11-.41C6.57,6.77,8.91,1.94,13.26,.46c4.59-1.57,9.49,1.02,10.79,5.69,1.27,4.57-1.6,9.33-6.25,10.36-1.54,.34-3.07,.26-4.56-.27-.16-.06-.26-.03-.37,.09-.55,.56-1.12,1.11-1.67,1.68-.19,.2-.41,.29-.69,.29-.38,0-.75,0-1.17,0,0,.35,0,.69,0,1.02,0,.12,0,.24-.01,.36-.03,.29-.24,.49-.54,.52-.21,.02-.41,0-.65,0,0,.2,0,.37,0,.54-.01,.44-.23,.67-.67,.67-.46,0-.93,0-1.42,0,0,.47,0,.91,0,1.34,0,.28-.08,.5-.28,.69-.29,.27-.56,.56-.84,.83-.17,.16-.35,.3-.52,.45H.44Zm7.68-5.76c0-.41,0-.79,0-1.18,0-.48,.23-.71,.71-.72,.46,0,.92,0,1.38,0,.11,0,.25-.06,.33-.14,.59-.57,1.18-1.15,1.74-1.74,.31-.33,.61-.39,1.03-.22,1.13,.48,2.31,.62,3.52,.48,3.88-.44,6.7-4.02,6.25-7.91-.49-4.15-4.44-7.01-8.54-6.17-4.34,.89-6.84,5.55-5.17,9.66,.21,.51,.18,.64-.2,1.03-2.59,2.59-5.18,5.18-7.77,7.77-.06,.06-.16,.13-.17,.2-.02,.34,0,.68,0,1.02l.08,.04c.06-.08,.1-.17,.17-.23,2.08-2.08,4.16-4.17,6.25-6.25,.07-.07,.13-.14,.21-.2,.22-.18,.53-.16,.73,.03,.2,.19,.22,.5,.05,.72-.06,.08-.13,.14-.2,.21-2.37,2.37-4.75,4.75-7.12,7.12-.07,.07-.16,.15-.16,.23-.02,.26,0,.52,0,.77,.05,.02,.06,.03,.08,.03,.55,0,1.09,0,1.64,0,.34,0,.71,.09,1-.04,.3-.13,.51-.45,.75-.7,.07-.08,.13-.2,.13-.31,.01-.51,0-1.01,0-1.52,0-.53,.22-.75,.74-.75,.44,0,.88,0,1.33,0,.07-.35-.08-.72,.19-1.01,.29-.3,.67-.15,1.03-.21Z"/><path class="cls-1" d="M16.25,5.78c.03-1.27,1.07-2.28,2.32-2.25,1.26,.03,2.27,1.08,2.24,2.33-.03,1.25-1.09,2.27-2.32,2.23-1.27-.04-2.27-1.07-2.24-2.31Zm2.28,1.09c.58,0,1.06-.47,1.07-1.05,0-.58-.49-1.08-1.07-1.07-.58,0-1.05,.48-1.05,1.07,0,.59,.47,1.05,1.06,1.06Z"/></g></g></svg>