<?xml version="1.0" encoding="UTF-8"?><svg id="Layer_2" xmlns="http://www.w3.org/2000/svg" viewBox="0 0 33 35.83"><defs><style>.cls-1{fill:#fff;}</style></defs><g id="Capa_1"><g><path class="cls-1" d="M16.71,0c.14,.19,.31,.37,.41,.58,.42,.88,.83,1.77,1.21,2.67,.13,.32,.33,.42,.65,.45,1.01,.1,2.01,.22,3.02,.33,.28,.03,.5,.11,.6,.39,.1,.3-.05,.51-.26,.7-.78,.7-1.55,1.42-2.33,2.12-.18,.16-.24,.3-.18,.54,.23,1.03,.43,2.07,.65,3.11,.06,.27,.05,.52-.19,.7-.25,.19-.5,.11-.75-.03-.92-.53-1.85-1.04-2.76-1.58-.2-.12-.34-.11-.54,0-.92,.53-1.84,1.05-2.76,1.57-.25,.14-.5,.21-.75,.03-.24-.18-.24-.43-.19-.7,.22-1.04,.42-2.08,.65-3.11,.05-.24,0-.38-.19-.54-.78-.7-1.55-1.41-2.33-2.12-.21-.19-.37-.4-.26-.7,.1-.29,.32-.36,.6-.39,1.01-.11,2.01-.23,3.02-.33,.32-.03,.51-.13,.65-.45,.38-.91,.8-1.81,1.22-2.71C15.99,.35,16.16,.18,16.29,0c.14,0,.28,0,.42,0Zm2.41,10.04c-.02-.17-.03-.28-.05-.39-.13-.65-.24-1.31-.41-1.95-.12-.46,0-.77,.35-1.07,.59-.49,1.14-1.03,1.74-1.57-.13-.03-.2-.06-.28-.07-.71-.08-1.41-.17-2.12-.23-.4-.03-.66-.18-.82-.57-.27-.67-.59-1.32-.89-1.97-.03-.08-.09-.14-.16-.25-.34,.75-.68,1.44-.96,2.15-.18,.44-.45,.62-.92,.66-.76,.05-1.52,.16-2.28,.25l-.07,.11c.1,.06,.21,.11,.29,.18,.54,.48,1.06,.98,1.6,1.46,.24,.21,.31,.45,.24,.75-.11,.49-.21,.98-.31,1.47-.07,.33-.13,.66-.2,1.06,.77-.44,1.46-.81,2.14-1.22,.36-.22,.66-.2,1.01,0,.67,.41,1.37,.79,2.1,1.21Z"/><path class="cls-1" d="M25.91,28.25c-.14,1.75-.81,2.44-2.46,2.49,0,.58-.15,1.12-.54,1.57-.39,.44-.88,.67-1.49,.75,.09,1.05-.26,1.88-1.24,2.35-.99,.48-1.85,.06-2.66-.47-1.51,1.36-2.98,1.16-3.87-.53-1.26,.42-2.25,.06-2.91-1.11-1.88,.81-3.43-.52-3.25-2.27-.14-.02-.29-.05-.43-.07-1.44-.23-2.22-1.73-1.63-3.06,.19-.42,.61-.76,.53-1.28-.07-.46-.2-.91-.31-1.36-.07-.31-.25-.5-.55-.63-1.13-.49-2.26-1-3.39-1.5-.58-.26-.66-.49-.39-1.07,1.22-2.59,2.44-5.19,3.66-7.78,.25-.53,.48-.62,1.03-.37,1.21,.56,2.41,1.11,3.61,1.67,.54,.25,1.09,.23,1.64,.12,.65-.13,1.3-.29,1.95-.4,1.13-.19,2.2-.02,3.22,.52,.11,.06,.32,.06,.43,0,1.53-.88,3.12-1,4.78-.38,.59,.22,1.17,.45,1.76,.67,.59,.22,1.15,.18,1.71-.15,.79-.46,1.6-.86,2.4-1.29,.48-.26,.79-.15,.99,.36,1.08,2.78,2.16,5.56,3.23,8.34,.18,.47,.08,.72-.39,.92-1.04,.45-2.08,.89-3.12,1.33-.14,.06-.26,.09-.26,.31-.01,1.37-.66,2.09-2.07,2.33Zm-19.07-2.85c.69-.6,1.44-.8,2.27-.52,.85,.29,1.28,.95,1.46,1.8,1.3-.13,2.14,.42,2.57,1.59,1.11-.29,2.29,.06,2.83,1.5,0,0,.02,.02,.03,.02,.03,0,.07-.02,.1-.02,.84-.21,1.57,0,2.18,.62,.07,.07,.16,.13,.25,.18,.71,.4,1.43,.79,2.14,1.18,.61,.33,1.22,.19,1.52-.35,.3-.53,.09-1.14-.5-1.48-.75-.43-1.5-.85-2.25-1.27-.34-.19-.67-.37-1-.57-.34-.2-.44-.5-.29-.79,.16-.3,.49-.37,.85-.18,.08,.04,.16,.09,.24,.14,1.29,.72,2.58,1.44,3.88,2.16,.62,.35,1.25,.21,1.54-.34,.29-.53,.09-1.13-.51-1.48-.76-.43-1.52-.86-2.28-1.29-.35-.2-.71-.39-1.06-.61-.26-.16-.33-.48-.19-.73,.14-.26,.43-.36,.72-.24,.1,.04,.19,.1,.28,.15,1.21,.68,2.41,1.37,3.62,2.05,.59,.33,1.22,.19,1.52-.34,.29-.51,.1-1.13-.47-1.46-1.81-1.04-3.62-2.08-5.44-3.09-.31-.17-.71-.26-1.06-.25-.42,0-.86,.11-1.26,.25-.95,.32-1.87,.73-2.82,1.03-2.17,.69-3.8,.17-5.1-1.57-.31-.41-.25-.72,.18-.99,.31-.19,.62-.37,.93-.56,1.44-.9,2.7-2.02,3.91-3.24-.53-.26-1.08-.39-1.63-.32-.76,.09-1.51,.25-2.27,.4-.85,.16-1.69,.24-2.5-.15-.97-.45-1.94-.9-2.92-1.35-.13-.06-.27-.12-.44-.19l-3.37,7.17c1.04,.46,2.03,.93,3.05,1.34,.65,.27,1.04,.72,1.2,1.39,.03,.12,.07,.24,.11,.42Zm23.71-2l-2.92-7.52c-.71,.38-1.4,.73-2.06,1.11-.76,.43-1.54,.5-2.36,.23-.54-.18-1.06-.42-1.61-.59-.61-.18-1.23-.39-1.86-.45-1.25-.1-2.29,.47-3.21,1.23-.84,.7-1.62,1.48-2.46,2.17-.71,.58-1.48,1.08-2.24,1.62,.46,.51,1.01,.87,1.71,.98,.83,.13,1.59-.11,2.35-.38,.81-.29,1.6-.63,2.42-.91,1.19-.41,2.33-.36,3.45,.34,1.34,.84,2.75,1.58,4.12,2.36,.43,.25,.91,.45,1.27,.78,.32,.29,.54,.26,.87,.1,.82-.38,1.66-.72,2.52-1.09Zm-20.93,9.03c.39,0,.72-.16,.9-.5,.49-.89,.97-1.78,1.43-2.68,.25-.5,.02-1.11-.45-1.36-.47-.25-1.11-.09-1.38,.39-.5,.88-.98,1.77-1.43,2.68-.34,.68,.17,1.46,.92,1.47Zm3.1,1.02c.36,0,.7-.15,.88-.47,.41-.74,.82-1.48,1.2-2.25,.24-.49,.01-1.07-.46-1.32-.48-.26-1.09-.11-1.37,.37-.42,.73-.82,1.46-1.18,2.21-.33,.68,.19,1.45,.93,1.45Zm-4.3-7.57c-.39,0-.72,.15-.91,.49-.38,.67-.74,1.34-1.08,2.03-.24,.48-.02,1.07,.44,1.33,.46,.26,1.09,.14,1.36-.32,.41-.69,.8-1.39,1.13-2.12,.3-.66-.22-1.39-.93-1.4Zm9.32,5.97c-.04-.48-.33-.88-.77-1-.47-.14-.95,.04-1.2,.48-.33,.58-.63,1.16-.94,1.75-.32,.61-.17,1.22,.38,1.51,.55,.29,1.13,.09,1.46-.52,.3-.55,.6-1.1,.88-1.66,.09-.17,.13-.37,.19-.55Zm.3,2.11c.27,.15,.53,.31,.8,.43,.49,.22,1.04,.04,1.31-.4,.26-.42,.19-1.02-.22-1.33-.33-.25-.71-.43-1.02-.61l-.88,1.9Z"/><path class="cls-1" d="M4.93,3.5c.23,.24,.44,.38,.53,.57,.34,.69,.66,1.39,.95,2.1,.11,.27,.27,.36,.54,.39,.74,.07,1.48,.16,2.23,.23,.27,.03,.51,.09,.62,.37,.11,.28,0,.5-.21,.68-.59,.53-1.17,1.07-1.76,1.6-.16,.15-.23,.27-.17,.51,.18,.75,.31,1.51,.47,2.26,.06,.28,.08,.54-.18,.73-.27,.21-.52,.1-.78-.04-.66-.38-1.32-.74-1.97-1.13-.2-.12-.36-.13-.57,0-.67,.4-1.35,.78-2.03,1.16-.24,.14-.48,.2-.72,.02-.23-.18-.26-.41-.2-.69,.17-.76,.3-1.53,.48-2.29,.05-.22,.02-.36-.16-.51-.59-.52-1.16-1.05-1.74-1.57-.2-.18-.35-.38-.26-.67,.1-.31,.34-.39,.62-.42,.75-.08,1.51-.17,2.26-.24,.26-.02,.41-.12,.51-.37,.3-.72,.62-1.43,.97-2.13,.1-.19,.31-.32,.54-.56Zm-.01,2.06c-.25,.55-.48,1.01-.67,1.5-.15,.38-.41,.53-.8,.56-.51,.04-1.01,.11-1.6,.17,.29,.27,.53,.48,.77,.7,.98,.91,.86,.62,.61,1.9-.06,.31-.12,.62-.19,1,.51-.29,.94-.5,1.35-.77,.37-.24,.69-.25,1.06,0,.41,.27,.85,.49,1.37,.78-.12-.56-.19-1.03-.31-1.49-.12-.45-.04-.78,.34-1.07,.39-.31,.73-.66,1.15-1.05-.61-.07-1.12-.13-1.64-.17-.36-.03-.6-.19-.74-.53-.2-.49-.44-.97-.69-1.52Z"/><path class="cls-1" d="M24.83,12.42c.14-.7,.27-1.46,.46-2.2,.11-.41,.03-.66-.3-.92-.54-.44-1.04-.94-1.56-1.41-.2-.18-.35-.38-.26-.67,.1-.3,.34-.39,.63-.42,.76-.08,1.53-.17,2.29-.24,.23-.02,.36-.11,.46-.34,.3-.71,.63-1.4,.94-2.1,.12-.26,.27-.47,.59-.46,.3,0,.45,.2,.56,.46,.32,.71,.65,1.42,.96,2.14,.08,.19,.19,.29,.41,.31,.73,.07,1.46,.16,2.19,.24,.32,.03,.64,.05,.77,.42,.13,.38-.14,.58-.37,.79-.53,.49-1.06,.98-1.61,1.46-.17,.15-.22,.28-.17,.51,.18,.77,.32,1.55,.49,2.33,.06,.26,.02,.49-.2,.66-.22,.17-.45,.13-.69,0-.7-.4-1.4-.79-2.09-1.2-.18-.11-.32-.11-.5,0-.7,.41-1.41,.82-2.13,1.21-.45,.25-.89-.01-.87-.55Zm3.25-6.85c-.23,.5-.45,.92-.61,1.37-.17,.49-.49,.69-.99,.71-.46,.02-.93,.1-1.46,.16,.47,.43,.88,.81,1.3,1.19,.21,.19,.29,.4,.22,.69-.11,.44-.19,.89-.28,1.33-.02,.1-.02,.21-.04,.37,.49-.28,.93-.5,1.33-.76,.37-.24,.7-.23,1.06,0,.41,.27,.85,.49,1.35,.77-.12-.59-.19-1.09-.33-1.59-.1-.39,0-.67,.3-.92,.4-.33,.77-.7,1.2-1.1-.59-.06-1.09-.13-1.6-.17-.39-.03-.65-.19-.8-.56-.19-.49-.43-.96-.67-1.5Z"/></g></g></svg>