<?xml version="1.0" encoding="utf-8"?>
<!-- Generator: Adobe Illustrator 26.3.1, SVG Export Plug-In . SVG Version: 6.00 Build 0)  -->
<svg version="1.1" id="Layer_2_00000014634037688172477980000002820039832160128191_"
	 xmlns="http://www.w3.org/2000/svg" xmlns:xlink="http://www.w3.org/1999/xlink" x="0px" y="0px" viewBox="0 0 32.2 32.2"
	 style="enable-background:new 0 0 32.2 32.2;" xml:space="preserve">
<style type="text/css">
	.st0{fill:#FFFFFF;}
</style>
<g>
	<path class="st0" d="M24.1,2.4h-1.6c0-0.6-0.3-1.3-0.7-1.7S20.7,0,20.1,0h-8c-0.6,0-1.3,0.3-1.7,0.7C9.9,1.2,9.7,1.8,9.7,2.4H8
		c-1.3,0-2.5,0.5-3.4,1.4S3.2,6,3.2,7.2v20.1c0,1.3,0.5,2.5,1.4,3.4s2.1,1.4,3.4,1.4h16.1c1.3,0,2.5-0.5,3.4-1.4s1.4-2.1,1.4-3.4
		V7.2c0-1.3-0.5-2.5-1.4-3.4S25.4,2.4,24.1,2.4L24.1,2.4z M12.9,2.4h6.4c0.2,0,0.4,0.1,0.6,0.2C20,2.8,20.1,3,20.1,3.2V4
		c0,0.2-0.1,0.4-0.2,0.6c-0.2,0.2-0.4,0.2-0.6,0.2h-6.4c-0.4,0-0.8-0.4-0.8-0.8V3.2C12.1,2.8,12.4,2.4,12.9,2.4L12.9,2.4z
		 M26.5,27.3c0,0.6-0.3,1.3-0.7,1.7c-0.5,0.5-1.1,0.7-1.7,0.7H8c-0.6,0-1.3-0.3-1.7-0.7c-0.5-0.5-0.7-1.1-0.7-1.7V7.2
		c0-0.6,0.3-1.3,0.7-1.7C6.8,5.1,7.4,4.8,8,4.8h1.6c0,0.6,0.3,1.3,0.7,1.7C10.8,7,11.4,7.2,12,7.2h8c0.6,0,1.3-0.3,1.7-0.7
		c0.5-0.5,0.7-1.1,0.7-1.7H24c0.6,0,1.3,0.3,1.7,0.7c0.5,0.5,0.7,1.1,0.7,1.7L26.5,27.3z"/>
	<path class="st0" d="M15.7,22.5h-4.8c-0.4,0-0.8,0.2-1,0.6s-0.2,0.8,0,1.2c0.2,0.4,0.6,0.6,1,0.6h4.8c0.4,0,0.8-0.2,1-0.6
		s0.2-0.8,0-1.2C16.5,22.7,16.1,22.5,15.7,22.5z"/>
	<path class="st0" d="M21.3,16.9H10.9l0,0c-0.4,0-0.8,0.2-1,0.6s-0.2,0.8,0,1.2c0.2,0.4,0.6,0.6,1,0.6h10.5l0,0c0.4,0,0.8-0.2,1-0.6
		s0.2-0.8,0-1.2C22.1,17.1,21.7,16.9,21.3,16.9L21.3,16.9z"/>
	<path class="st0" d="M21.3,11.3H10.9l0,0c-0.4,0-0.8,0.2-1,0.6s-0.2,0.8,0,1.2s0.6,0.6,1,0.6h10.5l0,0c0.4,0,0.8-0.2,1-0.6
		c0.2-0.4,0.2-0.8,0-1.2C22.1,11.5,21.7,11.3,21.3,11.3L21.3,11.3z"/>
</g>
</svg>
