<?xml version="1.0" encoding="UTF-8"?><svg id="Layer_2" xmlns="http://www.w3.org/2000/svg" viewBox="0 0 26.81 17.62"><defs><style>.cls-1{fill:#fff;}</style></defs><g id="Capa_1"><path class="cls-1" d="M13.41,17.62c-3.81,0-7.62,0-11.43,0-.99,0-1.75-.62-1.94-1.56-.03-.15-.03-.31-.03-.47C0,11.07,0,6.55,0,2.03,0,.8,.8,0,2.03,0c7.59,0,15.17,0,22.76,0,1.23,0,2.03,.8,2.03,2.02,0,4.52,0,9.04,0,13.57,0,1.23-.8,2.03-2.03,2.03-3.79,0-7.59,0-11.38,0Zm0-5.87L25.74,1.14c-.27-.31-.61-.38-.98-.38-7.57,0-15.14,0-22.7,0-.09,0-.19,0-.28,0-.28,.03-.51,.14-.7,.37L13.41,11.75ZM1.37,16.77c.24,.03,.41,.08,.58,.08,6.36,.09,23.1,.02,23.36-.1l-7.28-7.94c-.07,.05-.13,.1-.18,.14-1.35,1.16-2.7,2.32-4.05,3.48-.33,.28-.44,.28-.76,0-.99-.85-1.97-1.7-2.96-2.55-.44-.38-.89-.76-1.35-1.15L1.37,16.77Zm24.51-.53h.08c.03-.23,.08-.45,.08-.67,0-4.45,0-8.89,0-13.34,0-.09,0-.17-.02-.32l-7.43,6.39,7.28,7.94Zm-25.07-.11l.09,.03,7.25-7.91L.81,1.93v14.2Z"/></g></svg>