<svg width="141" height="93" viewBox="0 0 141 93" fill="none" xmlns="http://www.w3.org/2000/svg">
<path d="M70.17 92.21C50.22 92.21 30.28 92.21 10.33 92.21C5.15 92.21 1.15 88.99 0.17 84.06C0.01 83.26 0 82.43 0 81.61C0 57.94 0 34.28 0 10.62C0 4.19 4.19 0 10.61 0C50.31 0 90.01 0 129.7 0C136.12 0 140.32 4.18 140.32 10.59C140.32 34.25 140.32 57.92 140.32 81.58C140.32 88 136.12 92.19 129.71 92.19C109.86 92.19 90.01 92.19 70.16 92.19L70.17 92.21ZM70.17 61.51C91.72 42.98 113.2 24.5 134.71 5.99C133.29 4.35 131.52 4.02 129.56 4.02C89.95 4.04 50.35 4.03 10.74 4.03C10.26 4.03 9.77 4.02 9.29 4.07C7.85 4.22 6.62 4.8 5.61 5.99C27.14 24.49 48.62 42.97 70.17 61.51V61.51ZM7.18 87.75C8.45 87.93 9.32 88.16 10.2 88.17C43.48 88.64 131.08 88.3 132.45 87.65C119.74 73.79 107.06 59.96 94.33 46.09C93.97 46.37 93.66 46.59 93.37 46.84C86.3 52.92 79.24 59 72.18 65.07C70.47 66.54 69.86 66.54 68.19 65.1C63.03 60.66 57.87 56.21 52.71 51.77C50.38 49.77 48.05 47.77 45.66 45.73C32.86 59.7 20.16 73.57 7.18 87.75V87.75ZM135.45 84.98L135.88 84.93C136.03 83.77 136.3 82.62 136.3 81.46C136.33 58.19 136.32 34.91 136.32 11.64C136.32 11.18 136.27 10.73 136.23 9.98C123.16 21.22 110.3 32.29 97.34 43.43C110.09 57.33 122.77 71.15 135.45 84.98V84.98ZM4.24 84.39L4.7 84.53C17.33 70.74 29.96 56.94 42.64 43.11C29.77 32.04 17.02 21.08 4.23 10.08V84.39H4.24Z" fill="white"/>
</svg>
