<?xml version="1.0" encoding="UTF-8"?><svg id="Layer_2" xmlns="http://www.w3.org/2000/svg" viewBox="0 0 161.31 38.97"><defs><style>.cls-1{fill:#ec1e24;}.cls-2{fill:#231f20;}</style></defs><g id="Capa_1"><g><g><path class="cls-2" d="M14.99,25.38c-5.65,0-9.91-3.54-9.91-8.24V2.45C5.08,.64,3.74,0,2.59,0,1.34,0,0,.77,0,2.45v14.96c0,7.2,6.57,13.05,14.64,13.05,.89,0,1.63-.27,2.13-.78,.43-.45,.67-1.06,.67-1.73,0-1.24-.86-2.56-2.45-2.56Z"/><path class="cls-2" d="M65.59,9.75c-.51-.63-1.36-1.04-2.17-1.04-.95,0-1.73,.52-2.21,1.46l-6.81,14.48-6.87-14.49c-.47-.94-1.25-1.45-2.2-1.45-.81,0-1.66,.41-2.18,1.05-.49,.66-.49,1.23-.49,1.45,0,.4,.1,.76,.29,1.11,1.29,2.77,2.42,5.22,3.38,7.29,4.99,10.81,5.02,10.81,6.75,10.81,.66,0,1.17,.02,1.51,.03h.21c.11,0,.2,.01,.26,.01,1.04,0,2.21-.11,2.86-1.42l7.87-16.71c.2-.37,.3-.73,.3-1.13,0-.21,0-.79-.5-1.45h0Z"/><path class="cls-2" d="M94.87,0c-1.24,0-2.58,.79-2.58,2.54V27.92c0,1.67,1.3,2.54,2.58,2.54s2.54-.79,2.54-2.54V2.54c0-1.75-1.27-2.54-2.54-2.54Z"/><path class="cls-2" d="M87.89,12.63c-.77-1.15-1.75-2.16-2.9-2.97-.99-.67-2.1-1.2-3.3-1.54-1.11-.33-2.15-.48-3.37-.48-2.18,0-4.32,.6-6.17,1.74-3.41,2.09-5.44,5.7-5.44,9.66s1.88,7.3,5.16,9.42c.05,.04,.1,.07,.15,.1,1.91,1.2,4.1,1.83,6.35,1.83,1.87,0,3.6-.4,5.29-1.2l.18-.09c.08-.05,.17-.1,.26-.15,.92-.58,1.05-1.26,1.05-1.86,0-.23-.08-.51-.21-.9-.21-.79-1.2-1.65-2.3-1.65-.33,0-.65,.06-.93,.18-.99,.59-2.16,.91-3.34,.91-1.27,0-2.49-.36-3.56-1.04-.07-.04-.15-.1-.23-.15-.7-.47-1.31-1.08-1.8-1.8-.21-.29-.4-.6-.55-.91l-.16-.32h16.5c.3,0,.58-.12,.76-.32l.04-.04c.22-.22,.37-.56,.41-.94,.04-.36,.05-.73,.05-1.1,0-.88-.1-1.74-.29-2.57-.32-1.37-.88-2.66-1.65-3.81Zm-3.68,4.03c-.21,0-.42-.01-.62-.03-.18,0-.36-.02-.53-.02h-10.94l.07-.22,.05-.1c.41-.84,.95-1.57,1.62-2.14,1.2-1.05,2.8-1.63,4.49-1.63,1.97,0,3.79,.78,5,2.16,.11,.12,.21,.24,.3,.37,.07,.1,.15,.2,.22,.31l.13,.22c.06,.1,.11,.19,.16,.29,.03,.04,.06,.11,.08,.17,.01,.02,.04,.07,.07,.13,.02,.03,.03,.06,.05,.1l.05,.11,.09,.29h-.3Z"/><path class="cls-2" d="M39.17,12.63c-.77-1.15-1.75-2.16-2.9-2.97-.99-.67-2.1-1.2-3.3-1.54-1.11-.33-2.15-.48-3.37-.48-2.18,0-4.32,.6-6.17,1.74-3.41,2.09-5.44,5.7-5.44,9.66s1.88,7.3,5.16,9.42c.05,.04,.1,.07,.15,.1,1.91,1.2,4.1,1.83,6.35,1.83,1.87,0,3.6-.4,5.29-1.2l.18-.09c.08-.05,.17-.1,.26-.15,.92-.58,1.05-1.26,1.05-1.86,0-.23-.08-.51-.21-.9-.21-.79-1.2-1.65-2.3-1.65-.33,0-.65,.06-.93,.18-.99,.59-2.16,.91-3.34,.91-1.27,0-2.49-.36-3.56-1.04-.07-.04-.15-.1-.23-.15-.7-.47-1.31-1.08-1.8-1.8-.21-.29-.4-.6-.55-.91l-.16-.32h16.5c.3,0,.58-.12,.76-.32l.04-.04c.22-.22,.37-.56,.41-.94,.04-.36,.05-.73,.05-1.1,0-.88-.1-1.74-.29-2.57-.32-1.37-.88-2.66-1.65-3.81Zm-3.68,4.03c-.21,0-.42-.01-.62-.03-.18,0-.36-.02-.53-.02h-10.94l.07-.22,.05-.1c.41-.84,.95-1.57,1.62-2.14,1.2-1.05,2.8-1.63,4.49-1.63,1.97,0,3.79,.78,5,2.16,.11,.12,.21,.24,.3,.37,.07,.1,.15,.2,.22,.31l.13,.22c.06,.1,.11,.19,.16,.29,.03,.04,.06,.11,.08,.17,.01,.02,.04,.07,.07,.13,.02,.03,.03,.06,.05,.1l.05,.11,.09,.29h-.3Z"/></g><g><circle class="cls-2" cx="113.69" cy="12.65" r="2.63"/><g><path class="cls-1" d="M149.24,6.96c-6.63,0-12.02,5.29-12.02,11.8v17.64c0,1.77,1.36,2.57,2.62,2.57s2.71-.81,2.71-2.57V18.76c0-4.28,3.35-6.52,6.65-6.52s6.74,2.04,6.74,6.52c0,3.65-2.94,6.52-6.7,6.52-.08,0-.22-.01-.36-.02h-.08c-.1-.02-.19-.02-.24-.02-.35,0-1.06,.07-1.8,.57-.62,.41-1,1.52-1,2.32v.05c0,.28,0,.85,.64,1.45,.65,.65,1.69,.98,3.1,.98,4.11,0,11.8-3.47,11.8-11.84,0-6.62-5.3-11.8-12.07-11.8Z"/><path class="cls-1" d="M129.98,13.52c-1.41,0-2.56,1.15-2.56,2.56v3.8c-.03,2.92-2.23,5.33-5.14,5.61-.36,.04-.8,.04-1.14,0-2.91-.3-5.11-2.73-5.11-5.66v-.07c0-.13-.01-.27-.03-.39-.17-1.1-1.02-1.96-2.11-2.13-.25-.05-.58-.05-.82,0-1.12,.18-1.97,1.04-2.13,2.15-.02,.12-.03,.25-.03,.37,0,.12,0,.27,.04,.39,.14,4.97,3.78,9.28,8.65,10.26,.18,.04,.36,.06,.52,.09,.34,.05,.69,.09,1.04,.11,.18,0,.37,.01,.56,.01s.39,0,.58-.01c.35-.02,.7-.05,1.04-.11,.16-.03,.34-.05,.52-.09,4.84-.96,8.38-5.05,8.66-9.97h.04v-4.35c0-1.41-1.15-2.56-2.56-2.56Z"/></g><path class="cls-1" d="M134.12,10.3c0,.3-.12,.6-.35,.83l-1.16,1.16c-.15,.15-.39,.15-.53,0l-1.82-1.82c-.08-.08-.18-.12-.28-.13-.03,0-.05,0-.08,0-.1,0-.2,.05-.28,.13l-1.82,1.82c-.15,.15-.39,.15-.53,0l-1.16-1.16c-.23-.23-.35-.53-.35-.83,0-.31,.11-.63,.35-.87l2.37-2.37c.4-.4,.93-.6,1.46-.59,.51,0,1.03,.2,1.42,.59l2.41,2.41c.23,.23,.35,.53,.35,.83Z"/></g></g></g></svg>