<?xml version="1.0" encoding="UTF-8"?><svg id="Layer_2" xmlns="http://www.w3.org/2000/svg" viewBox="0 0 187.93 66.68"><defs><style>.cls-1{fill:#8e402b;}.cls-2{fill:#0d2175;}.cls-3{fill:#383838;}</style></defs><g id="Capa_1"><g><path class="cls-3" d="M181.53,6.39V60.28H33.34c-14.88,0-26.94-12.06-26.94-26.94h0c0-14.88,12.06-26.94,26.94-26.94H120.89c1.75,0,3.28-1.35,3.33-3.1s-1.4-3.29-3.2-3.29H33.76C15.41,0,.18,14.66,0,33.01c-.18,18.53,14.84,33.67,33.34,33.67H181.53c3.53,0,6.39-2.86,6.39-6.39V6.39C187.93,2.86,185.06,0,181.53,0h-36.69c-1.77,0-3.2,1.43-3.2,3.2h0c0,1.77,1.43,3.2,3.2,3.2h36.69"/><path class="cls-2" d="M154.89,54.35c-11.58,0-21.01-9.42-21.01-21.01s9.42-21.01,21.01-21.01,21.01,9.42,21.01,21.01-9.42,21.01-21.01,21.01Zm0-35.62c-8.06,0-14.61,6.56-14.61,14.61s6.56,14.61,14.61,14.61,14.61-6.56,14.61-14.61-6.56-14.61-14.61-14.61Z"/><path class="cls-2" d="M51.15,30.14h-16.18c-1.77,0-3.2,1.43-3.2,3.2s1.43,3.2,3.2,3.2h12.62c-1.46,6.53-7.3,11.42-14.26,11.42-8.06,0-14.61-6.56-14.61-14.61s6.56-14.61,14.61-14.61c3.42,0,6.74,1.21,9.37,3.41,1.35,1.13,3.37,.96,4.5-.4,1.13-1.35,.96-3.37-.4-4.5-3.77-3.16-8.56-4.9-13.47-4.9-11.58,0-21.01,9.42-21.01,21.01s9.42,21.01,21.01,21.01c5.68,0,10.83-2.27,14.61-5.94v2.74c0,1.77,1.43,3.2,3.2,3.2s3.2-1.43,3.2-3.2v-17.81c0-1.77-1.43-3.2-3.2-3.2Z"/><path class="cls-2" d="M98.07,12.33H62.57c-1.77,0-3.2,1.43-3.2,3.2V51.15c0,1.77,1.43,3.2,3.2,3.2h23.98c1.77,0,3.2-1.43,3.2-3.2s-1.43-3.2-3.2-3.2h-20.78v-11.42h12.96c1.77,0,3.2-1.43,3.2-3.2s-1.43-3.2-3.2-3.2h-12.96v-11.42h32.31c1.77,0,3.2-1.43,3.2-3.2s-1.43-3.2-3.2-3.2Z"/><path class="cls-2" d="M135.5,48.89l-17.75-17.75,18-22.76c1.1-1.38,.86-3.4-.52-4.49-1.38-1.09-3.4-.86-4.49,.52l-29.69,37.54v-15.24c0-1.77-1.43-3.2-3.2-3.2s-3.2,1.43-3.2,3.2v24.43c0,1.36,.86,2.57,2.15,3.02,.34,.12,.7,.18,1.05,.18,.96,0,1.89-.43,2.51-1.21l13.4-16.95,17.22,17.22c.62,.62,1.44,.94,2.26,.94s1.64-.31,2.26-.94c1.25-1.25,1.25-3.27,0-4.52Z"/><path class="cls-1" d="M154.89,43.16c-1.77,0-3.2-1.43-3.2-3.2v-12.79c0-1.77,1.43-3.2,3.2-3.2s3.2,1.43,3.2,3.2v12.79c0,1.77-1.43,3.2-3.2,3.2Z"/></g></g></svg>