<?xml version="1.0" encoding="UTF-8"?><svg id="Layer_2" xmlns="http://www.w3.org/2000/svg" viewBox="0 0 172.11 94.17"><g id="Capa_1"><g><path d="M28.49,0c.28,.07,.56,.13,.83,.22,1.79,.55,2.94,2.13,2.95,4.1,.01,4.09,0,8.18,0,12.28,0,2.64,.02,5.28,0,7.92-.03,2.08-1.59,3.81-3.59,4.06-2.15,.28-4.12-.99-4.67-3.05-.12-.45-.15-.93-.15-1.39,0-6.55,0-13.1,0-19.65,0-2.4,1.28-3.93,3.65-4.4,.06-.01,.12-.05,.18-.08h.81Z"/><path d="M160.93,43.1v-6.69h11.17v57.5h-11.14v-7.07c-6.55,5.41-13.95,7.77-22.27,6.8-8.34-.98-15.06-4.95-20.01-11.72-8.08-11.06-7.26-26.13,1.96-36.29,5.24-5.77,11.82-8.96,19.61-9.45,7.76-.49,14.61,1.9,20.68,6.92Zm-18.93,39.53c9.77,0,17.71-7.9,17.72-17.63,.01-9.71-7.97-17.7-17.68-17.68-9.65,.02-17.64,7.94-17.64,17.5,0,9.85,7.86,17.8,17.61,17.8Z"/><path d="M18.91,7.82c.24,3.75,.43,7.45,.74,11.15,.09,1.1-.17,1.79-1,2.61-3.57,3.52-4.47,7.83-3.12,12.58,.69,2.45,2.57,3.91,4.78,4.97,3,1.44,6.22,2.23,9.43,3.02,3.76,.92,7.48,1.94,10.97,3.65,5.35,2.62,9.74,6.28,12.62,11.61,4.94,9.16,3.29,20.58-4.06,27.93-5.62,5.62-12.44,8.55-20.35,8.81-8.01,.26-15-2.36-20.74-7.98-4.42-4.33-6.98-9.66-7.89-15.78-.13-.88-.2-1.78-.26-2.67-.04-.51,0-1.03,0-1.6H11.67c.14,1.15,.23,2.3,.44,3.44,1.27,6.89,7.05,12.12,14.07,12.74,5.41,.48,10.21-1.02,14.18-4.74,6.43-6.01,4.52-14.59-1.14-18.92-3.07-2.35-6.6-3.62-10.29-4.55-4.1-1.03-8.22-1.96-12.13-3.61-4.18-1.77-7.79-4.27-10.34-8.12-1.9-2.88-2.9-6.08-3.19-9.49-.52-6.02,.84-11.59,4.32-16.58,2.52-3.61,7.55-7.38,11.32-8.48Z"/><path d="M87.32,8.61h11.21V79.42c3.41-1.69,6.68-3.32,10.02-4.97,1.67,3.36,3.32,6.67,5,10.05-.35,.18-.68,.35-1.01,.51-5.6,2.78-11.21,5.57-16.81,8.35-2.5,1.24-5.1,.85-6.89-1.06-1.04-1.11-1.51-2.44-1.51-3.97,0-22.15,0-44.3,0-66.45V8.61Z"/><path d="M64.27,46.76h11.12v46.77h-11.12V46.76Z"/><path d="M40.3,29.55c-.11-.79-.17-1.57-.33-2.32-.5-2.29-1.65-4.22-3.29-5.88-.16-.17-.33-.45-.31-.66,.24-4.31,.5-8.61,.76-12.91,0-.04,.03-.08,.08-.22,4.13,1.83,7.47,4.63,10.17,8.18,3.09,4.05,4.61,8.67,4.65,13.82h-11.72Z"/><path d="M77.86,27.49c.09,4.45-3.45,8.11-7.93,8.19-4.37,.09-8.05-3.5-8.12-7.94-.08-4.38,3.5-8.05,7.94-8.13,4.36-.08,8.02,3.48,8.11,7.87Z"/></g></g></svg>