<?xml version="1.0" encoding="UTF-8"?><svg id="Layer_2" xmlns="http://www.w3.org/2000/svg" viewBox="0 0 350.12 84.88"><defs><style>.cls-1{fill:#fff;}.cls-2{fill:#d61f27;}.cls-3{fill:#e21522;}.cls-4{fill:#dfdfdf;}</style></defs><g id="Capa_1"><g id="Logo_GTA" transform="translate(-5643 128)"><path id="Trazado_1" class="cls-1" d="M46.93,0H10.41C4.68-.01,.01,4.62,0,10.36c0,.01,0,.03,0,.04V74.48c0,5.73,4.62,10.39,10.35,10.4h63.86c5.73-.02,10.36-4.67,10.35-10.4V37.79C84.57,16.98,67.74,.08,46.93,0Z"/><path id="Trazado_2" class="cls-2" d="M65.74,10.71s2.57,3.8,9.75,6.17c-2.67-3.63-6.01-6.72-9.85-9.08-.64,.88-.6,2.08,.09,2.91h0Z"/><path id="Trazado_3" class="cls-3" d="M47.58,32.33s12.5,9.99,34.35,12.82v-7.59c.01-.62-.01-1.24-.08-1.86-6.98-.52-13.86-1.95-20.47-4.24,0,0-11.44-3.81-16.15-9.07,0,0-4.82-3.81-2.16-8.5,1.61-1.55,3.51-2.76,5.59-3.55-2.57,2.23-2.85,6.12-.62,8.7l.05,.06s6.16,10.95,33.73,15.95c-.22-3.01-.83-5.99-1.81-8.84-5.39-.33-16.32-1.81-25.32-8.37,0,0-7.53-5.09-2.73-8.94l5.27-1.44s-2.74,2.18-1.86,4.67c0,0,3,9.29,24.5,13.52-.99-2.75-2.32-5.37-3.97-7.79-3.85-.47-7.55-1.75-10.87-3.75,0,0-8-3.55-4.1-7.32,0,0,1.18-.09,2.5-.12-5.02-2.68-10.62-4.08-16.31-4.06H10.19c-4.17,.02-7.54,3.41-7.54,7.58V74.75c0,4.17,3.37,7.56,7.54,7.58H45.94c-3.57-1.92-6.71-4.53-9.26-7.68,3.09,3.12,6.67,5.71,10.6,7.68h5.64c-3.47-1.15-6.84-2.59-10.06-4.32,0,0-10.75-5.1-13.14-14.29,0,0,5.52,13.02,27.74,18.61h16.92c1.53,0,3.02-.48,4.28-1.35-5.98,.18-11.95-.48-17.75-1.94,0,0-26.33-5.71-32.21-18.35,0,0-2.94-5.37-2.07-9.99-.15,1.53-.33,10.48,15.14,18.94,11.52,6.71,24.58,10.31,37.9,10.45,1.43-1.41,2.24-3.33,2.26-5.34v-.65c-7.55,.17-15.09-.73-22.38-2.69,0,0-33.16-8.03-32.82-23.2-.37-2.06-.39-4.17-.06-6.24,.05-.48,.16-.95,.33-1.4-.14,.46-.25,.93-.33,1.4-.48,3.82,.84,14.86,27.95,25.82,8.78,3.16,17.99,4.96,27.31,5.35v-7.68c-10.03,.07-19.98-1.78-29.32-5.43,0,0-22.27-7.73-24.41-16.91-.91-3.62-.6-7.43,.88-10.85,.12-.38,.27-.75,.45-1.1-.19,.38-.29,.73-.45,1.1-.58,1.82-1.18,5.8,2.6,10.96,0,0,15.8,18.7,50.24,21.47v-8.75c-8.63-.2-17.17-1.85-25.26-4.88,0,0-18.39-6.02-24.34-14.13,0,0-3.07-3.55-1.71-7.77,1.08-2.24,2.29-4.41,3.62-6.51,0,0-3.69,5.37,1.1,11.34,0,0,4.17,7.84,23.25,15.46,0,0,8.76,3.93,23.34,5.65v-9.47c-9.87-.59-29.32-3.28-42.62-15.11,0,0-7.39-5.78-2.05-11.76l3.35-3.09s-7.52,6.97,6.97,16.64Z"/><path id="Trazado_4" class="cls-3" d="M109.54,43.49v-2.36c.02-.36,.02-.71,0-1.07-.01-.23-.09-.44-.22-.62-.13-.15-.3-.25-.49-.29-.26-.06-.53-.08-.8-.08-.28,0-.57,.02-.85,.08-.19,.05-.36,.16-.48,.32-.14,.18-.22,.41-.23,.64-.02,.35-.02,.69,0,1.04v15.68c-.02,.36-.02,.72,0,1.08,.03,.24,.11,.46,.25,.66,.14,.16,.32,.27,.53,.32,.31,.05,.63,.08,.94,.07h.9c.21-.01,.41-.05,.61-.11v-11.96h3.53v15.09c-.59,.11-1.18,.18-1.78,.21-.88,.08-1.91,.12-3.1,.12-.98,.02-1.97-.05-2.94-.19-.65-.09-1.25-.36-1.75-.79-.45-.46-.74-1.05-.84-1.68-.16-.93-.23-1.88-.21-2.83v-15.69c-.02-.96,.05-1.92,.22-2.86,.19-1.27,1.23-2.25,2.51-2.36,.88-.13,1.77-.19,2.66-.18,.87-.01,1.73,.05,2.59,.18,1.23,.15,2.2,1.12,2.36,2.36,.17,.95,.25,1.91,.22,2.87v2.36h-3.62Z"/><path id="Trazado_5" class="cls-3" d="M119.32,61.97h-3.33v-25.91h3.36l-.02,25.91Z"/><path id="Trazado_6" class="cls-3" d="M131.34,58.15c.02,.74-.04,1.48-.19,2.2-.11,.48-.35,.92-.71,1.26-.41,.33-.91,.53-1.44,.58-1.57,.17-3.15,.17-4.71,0-.53-.05-1.03-.25-1.45-.57-.37-.33-.62-.77-.71-1.26-.15-.73-.23-1.47-.23-2.21v-12.02c-.02-.74,.04-1.48,.18-2.2,.08-.49,.33-.94,.71-1.27,.42-.32,.92-.52,1.45-.57,1.57-.17,3.15-.17,4.71,0,.52,.06,1.02,.26,1.44,.58,.36,.34,.6,.79,.71,1.27,.16,.72,.24,1.46,.23,2.2v12.02Zm-3.25-11.65c.2-.57-.11-1.18-.67-1.38-.23-.08-.48-.08-.71,0-.41-.04-.82,.05-1.18,.26-.25,.34-.35,.76-.28,1.18v11.32c-.06,.41,.04,.83,.27,1.18,.34,.24,.76,.34,1.18,.28,.42,.05,.84-.05,1.18-.29,.2-.34,.29-.73,.25-1.12l-.04-11.43Z"/><path id="Trazado_7" class="cls-3" d="M143.42,58.14c.01,.64-.03,1.28-.13,1.92-.06,.44-.22,.87-.47,1.24-.25,.31-.58,.54-.95,.66-.51,.14-1.04,.2-1.57,.19-.69,.03-1.37-.09-2-.35-.51-.25-.92-.67-1.18-1.18v1.41h-3.13v-25.92h3.36v7.49c.25-.43,.61-.78,1.05-1.01,.6-.28,1.25-.4,1.91-.37,.92-.13,1.85,.22,2.46,.92,.5,.95,.71,2.03,.62,3.1l.02,11.9Zm-6.14,0c.13,.31,.34,.59,.61,.79,.31,.17,.65,.25,1,.22,.38,.05,.75-.08,1.02-.34,.21-.4,.3-.85,.26-1.3v-10.74c.04-.45-.05-.9-.26-1.3-.27-.26-.65-.39-1.02-.34-.35-.02-.7,.05-1,.22-.27,.2-.48,.48-.61,.79v11.99Z"/><path id="Trazado_8" class="cls-3" d="M150.3,62.31c-.75,.01-1.5-.03-2.25-.12-.47-.05-.91-.22-1.28-.51-.35-.3-.59-.72-.67-1.18-.14-.67-.21-1.36-.19-2.05v-4.71c-.11-.93,.11-1.88,.62-2.66,.61-.63,1.48-.93,2.36-.83h.62c.53-.02,1.06,.01,1.58,.08,.24,.04,.48,.11,.7,.21v-4.03c.03-.46-.07-.93-.31-1.33-.31-.27-.72-.39-1.12-.33-.64,0-1.04,.12-1.18,.34-.21,.42-.29,.9-.25,1.37v1.94h-3.07v-2.36c-.02-.75,.04-1.49,.19-2.23,.08-.48,.31-.93,.67-1.26,.38-.31,.85-.51,1.34-.56,.74-.09,1.49-.14,2.24-.13,.79,0,1.57,.04,2.36,.13,.52,.06,1.02,.26,1.44,.58,.36,.34,.61,.78,.71,1.27,.15,.72,.22,1.45,.2,2.18v15.84c-.6,.15-1.21,.23-1.83,.25-.84,.06-1.79,.08-2.89,.08Zm.2-2.76c.39,.01,.79,0,1.18-.07v-6.44c-.17-.09-.36-.15-.55-.16-.23-.01-.47-.01-.7,0-.29,0-.58,.02-.87,.07-.18,.03-.35,.12-.47,.26-.12,.16-.19,.34-.2,.54v4.91c0,.2,.07,.4,.2,.56,.13,.14,.3,.23,.48,.26,.31,.06,.63,.08,.95,.07h-.02Z"/><path id="Trazado_9" class="cls-3" d="M161.12,61.97h-3.36v-25.91h3.36v25.91Z"/><path id="Trazado_10" class="cls-3" d="M178,39.15h-2.85v22.82h-3.77v-22.82h-2.86v-3.16h9.42l.05,3.16Z"/><path id="Trazado_11" class="cls-3" d="M182.38,61.98h-3.36v-19.7h3.13v1.32c.25-.46,.63-.83,1.1-1.07,.64-.31,1.35-.45,2.06-.41,.47-.01,.94,.05,1.39,.2,.37,.11,.7,.35,.93,.66,.24,.35,.41,.75,.49,1.18,.1,.64,.15,1.28,.14,1.93v5h-3.03v-4.56c.03-.36-.05-.73-.22-1.05-.15-.22-.48-.33-.99-.33-.38-.02-.75,.07-1.07,.26-.28,.21-.48,.5-.58,.83v15.75Z"/><path id="Trazado_12" class="cls-3" d="M196.29,42.29h3.38v19.7h-3.16v-1.28c-.23,.48-.62,.87-1.1,1.11-.65,.27-1.36,.38-2.06,.34-.54,.01-1.07-.05-1.59-.19-.4-.12-.75-.35-1.02-.66-.27-.37-.46-.79-.54-1.24-.12-.63-.17-1.28-.16-1.92v-15.86h3.36v15.52c-.03,.36,.06,.71,.26,1.01,.27,.26,.65,.38,1.02,.33,.38,.03,.76-.06,1.08-.27,.23-.2,.42-.46,.53-.74v-15.85Z"/><path id="Trazado_13" class="cls-3" d="M208.41,47.98v-1.48c.05-.41-.03-.82-.25-1.18-.16-.19-.55-.28-1.18-.28s-1.04,.09-1.18,.28c-.2,.36-.28,.77-.23,1.18v1.58c0,.25,.02,.49,.07,.73,.04,.17,.12,.33,.23,.47,.14,.16,.31,.3,.49,.4,.29,.15,.58,.29,.88,.41,.13,.07,.27,.13,.41,.19l.68,.32,.77,.34,.6,.29c.37,.2,.73,.44,1.06,.7,.24,.2,.43,.44,.58,.71,.14,.26,.22,.54,.26,.83,.05,.33,.07,.67,.07,1v3.7c.02,.74-.04,1.49-.19,2.22-.08,.49-.32,.94-.68,1.28-.41,.33-.9,.53-1.41,.58-1.57,.17-3.15,.17-4.71,0-.53-.05-1.03-.25-1.45-.58-.37-.34-.62-.79-.72-1.28-.15-.73-.22-1.47-.2-2.22v-3.08h3.29v2.66c-.05,.41,.04,.83,.27,1.18,.34,.24,.76,.34,1.18,.28,.64,0,1.04-.09,1.18-.29,.19-.36,.27-.77,.22-1.18v-2.36c.02-.22,.02-.43,0-.65-.03-.17-.1-.33-.2-.47-.12-.14-.25-.27-.4-.38-.23-.15-.48-.27-.73-.38l-.72-.33-.65-.25-.64-.26c-.25-.11-.49-.24-.73-.38-.36-.18-.7-.4-1.01-.66-.54-.42-.89-1.04-.99-1.72-.06-.44-.08-.89-.08-1.33v-2.36c-.02-.74,.05-1.49,.2-2.22,.09-.49,.34-.94,.71-1.28,.41-.32,.91-.52,1.42-.58,.78-.09,1.57-.14,2.36-.13,.79,0,1.57,.04,2.36,.13,.52,.06,1.02,.26,1.44,.58,.36,.34,.61,.79,.68,1.28,.14,.73,.21,1.47,.19,2.22v1.81l-3.26-.05Z"/><path id="Trazado_14" class="cls-3" d="M220,45.01h-2.36v12.36c-.05,.49,.06,.98,.33,1.39,.38,.28,.85,.41,1.32,.35h.62v2.86h-.86c-.77,.01-1.53-.07-2.27-.25-.51-.14-.98-.4-1.38-.75-.38-.35-.65-.8-.79-1.3-.16-.61-.24-1.24-.23-1.87v-12.8h-1.18v-2.73h1.18v-5.98h3.38v5.98h2.36l-.12,2.73Z"/><path id="Trazado_15" class="cls-4" d="M234.48,61.97v-5.79h-3.19v5.78h-3.68v-20.85c-.02-.96,.05-1.92,.21-2.86,.1-.62,.37-1.2,.8-1.66,.45-.41,1.01-.67,1.6-.75,.85-.13,1.72-.19,2.58-.18,.91-.02,1.81,.05,2.71,.19,.62,.1,1.21,.37,1.68,.78,.44,.45,.73,1.03,.84,1.65,.17,.94,.25,1.89,.22,2.84v20.85h-3.78Zm-1.62-22.92c-.27,0-.54,.03-.8,.08-.19,.04-.36,.15-.49,.29-.13,.18-.21,.4-.22,.62-.04,.36-.06,.71-.06,1.07v11.97h3.19v-11.97c.02-.36,.02-.71,0-1.07-.02-.22-.1-.44-.23-.62-.13-.15-.3-.26-.49-.29-.29-.06-.59-.09-.89-.08Z"/><path id="Trazado_16" class="cls-4" d="M246.82,47.98v-1.48c.05-.41-.03-.82-.25-1.18-.16-.19-.56-.28-1.18-.28s-1.04,.09-1.18,.28c-.2,.36-.28,.77-.22,1.18v1.58c-.02,.24-.02,.49,0,.73,.05,.17,.13,.33,.23,.47,.14,.16,.31,.3,.49,.4,.29,.15,.58,.29,.88,.41,.13,.07,.27,.13,.41,.19l.7,.32,.75,.34,.61,.29c.37,.2,.72,.43,1.05,.7,.24,.2,.43,.44,.58,.71,.13,.26,.23,.54,.27,.83,.04,.33,.06,.67,.06,1v3.7c.02,.74-.04,1.49-.18,2.22-.09,.49-.34,.94-.7,1.28-.41,.33-.9,.53-1.41,.58-1.57,.17-3.15,.17-4.71,0-.53-.05-1.03-.25-1.45-.58-.38-.33-.64-.79-.73-1.28-.14-.73-.21-1.47-.19-2.22v-3.08h3.29v2.66c-.05,.41,.04,.83,.26,1.18,.35,.23,.76,.33,1.18,.28,.64,0,1.02-.09,1.18-.29,.2-.36,.28-.77,.23-1.18v-2.36c.02-.22,.02-.43,0-.65-.04-.17-.1-.33-.2-.47-.12-.14-.26-.27-.41-.38-.23-.15-.48-.27-.73-.38l-.72-.33-.64-.25c-.21-.07-.42-.16-.65-.26-.25-.11-.49-.24-.72-.38-.36-.18-.71-.4-1.02-.66-.25-.21-.46-.46-.62-.74-.16-.3-.27-.62-.31-.95-.06-.44-.09-.89-.08-1.33v-2.36c-.02-.74,.04-1.49,.19-2.22,.09-.49,.34-.94,.71-1.28,.42-.32,.91-.52,1.44-.58,.78-.09,1.57-.14,2.36-.13,.79,0,1.57,.04,2.36,.13,.52,.05,1.01,.25,1.42,.58,.36,.34,.61,.79,.7,1.28,.13,.73,.19,1.47,.18,2.22v1.81l-3.24-.08Z"/><path id="Trazado_17" class="cls-4" d="M258.51,47.98v-1.48c.05-.41-.03-.82-.25-1.18-.16-.19-.56-.28-1.18-.28s-1.02,.09-1.18,.28c-.2,.36-.28,.77-.23,1.18v1.58c0,.25,.02,.49,.07,.73,.04,.17,.12,.33,.22,.47,.14,.16,.31,.29,.49,.4,.22,.12,.52,.26,.9,.41,.13,.07,.27,.14,.41,.19l.68,.32,.75,.34,.61,.29c.37,.2,.72,.43,1.05,.7,.24,.2,.45,.44,.6,.71,.13,.26,.22,.54,.26,.83,.05,.33,.07,.67,.07,1v3.7c.01,.74-.05,1.49-.19,2.22-.08,.49-.32,.94-.68,1.28-.41,.33-.9,.53-1.41,.58-1.57,.17-3.15,.17-4.71,0-.53-.05-1.03-.25-1.45-.58-.38-.34-.63-.79-.72-1.28-.15-.73-.22-1.47-.2-2.22v-3.08h3.22v2.66c-.05,.41,.04,.83,.27,1.18,.34,.24,.76,.34,1.18,.28,.64,0,1.02-.09,1.18-.29,.19-.36,.27-.77,.22-1.18v-2.36c.02-.22,.02-.43,0-.65-.03-.17-.1-.33-.2-.47-.12-.15-.26-.27-.41-.38-.23-.15-.47-.27-.72-.38-.26-.13-.51-.23-.73-.33l-.64-.25c-.21-.07-.42-.16-.64-.26-.25-.11-.5-.24-.73-.38-.36-.18-.7-.4-1.01-.66-.26-.21-.47-.46-.64-.74-.16-.3-.26-.62-.31-.95-.06-.44-.09-.89-.08-1.33v-2.36c-.02-.74,.05-1.49,.2-2.22,.09-.49,.34-.94,.71-1.28,.41-.32,.91-.52,1.42-.58,.78-.09,1.57-.14,2.36-.13,.79,0,1.57,.04,2.36,.13,.52,.06,1.02,.26,1.44,.58,.36,.34,.6,.79,.68,1.28,.14,.73,.2,1.47,.19,2.22v1.81l-3.24-.08Z"/><path id="Trazado_18" class="cls-4" d="M273.52,58.15c.02,.74-.04,1.48-.19,2.2-.1,.48-.35,.92-.71,1.26-.41,.33-.91,.53-1.44,.58-1.57,.17-3.15,.17-4.71,0-.53-.05-1.03-.25-1.45-.58-.37-.33-.62-.77-.71-1.26-.13-.73-.19-1.46-.18-2.2v-12.02c-.02-.74,.04-1.48,.18-2.2,.09-.49,.34-.94,.71-1.27,.42-.32,.92-.52,1.45-.58,1.57-.17,3.15-.17,4.71,0,.52,.06,1.02,.26,1.44,.58,.36,.34,.61,.78,.71,1.27,.14,.72,.21,1.46,.19,2.2v12.02Zm-3.25-11.65c.2-.57-.11-1.18-.67-1.38-.23-.08-.48-.08-.71,0-.41-.04-.82,.05-1.18,.26-.25,.34-.35,.76-.28,1.18v11.32c-.06,.41,.04,.83,.27,1.18,.74,.38,1.62,.38,2.36,0,.2-.34,.29-.73,.25-1.12l-.04-11.44Z"/><path id="Trazado_19" class="cls-4" d="M282.04,49.59v-3.1c.2-.57-.11-1.18-.67-1.38-.23-.08-.48-.08-.71,0-.41-.05-.83,.04-1.18,.26-.22,.35-.31,.77-.25,1.18v11.32c-.06,.41,.03,.83,.26,1.18,.34,.25,.76,.35,1.18,.28,.42,.05,.83-.06,1.18-.29,.21-.33,.3-.73,.26-1.12v-5.21h3.06v5.44c.02,.74-.05,1.49-.2,2.22-.09,.49-.34,.94-.71,1.27-.4,.31-.87,.5-1.37,.55-.72,.09-1.44,.14-2.17,.13-.79,.01-1.58-.04-2.36-.14-.52-.07-1.01-.28-1.42-.6-.37-.33-.62-.77-.71-1.26-.13-.71-.19-1.44-.18-2.17v-12.02c-.02-.73,.04-1.46,.19-2.18,.1-.48,.34-.92,.7-1.26,.39-.32,.87-.53,1.38-.58,.75-.12,1.51-.17,2.27-.15,.79-.01,1.58,.04,2.36,.15,.52,.06,1,.27,1.4,.6,.35,.35,.58,.8,.66,1.28,.12,.71,.18,1.43,.16,2.14v3.45h-3.15Z"/><path id="Trazado_20" class="cls-4" d="M291.33,39.41h-3.32v-3.42h3.32v3.42Zm0,22.56h-3.32v-19.7h3.32v19.7Z"/><path id="Trazado_21" class="cls-4" d="M298.48,62.31c-.75,.01-1.5-.03-2.25-.12-.49-.03-.97-.21-1.37-.51-.35-.3-.59-.72-.67-1.18-.14-.67-.21-1.36-.19-2.05v-4.71c-.08-.92,.16-1.84,.68-2.6,.61-.63,1.48-.93,2.36-.83h.64c.52-.02,1.05,.01,1.57,.08,.24,.04,.48,.11,.7,.21v-4.08c.04-.46-.06-.93-.28-1.33-.31-.27-.72-.39-1.12-.33-.64,0-1.04,.12-1.18,.34-.21,.42-.29,.9-.25,1.37v1.94h-3.07v-2.36c-.02-.75,.05-1.49,.19-2.23,.08-.48,.31-.93,.67-1.26,.38-.31,.85-.51,1.34-.56,.74-.09,1.49-.14,2.24-.13,.79,0,1.57,.04,2.36,.13,.52,.06,1.02,.26,1.44,.58,.36,.34,.61,.78,.71,1.27,.15,.72,.22,1.45,.2,2.18v15.84c-.6,.15-1.21,.23-1.83,.25-.87,.06-1.83,.08-2.89,.08Zm.2-2.76c.39,.01,.79,0,1.18-.07v-6.44c-.17-.09-.36-.15-.55-.16-.23-.01-.47-.01-.7,0-.29,0-.58,.02-.87,.07-.18,.03-.35,.12-.47,.26-.12,.16-.19,.34-.2,.54v4.91c0,.2,.07,.4,.2,.56,.13,.14,.3,.23,.48,.26,.3,.06,.61,.08,.92,.07h.01Z"/><path id="Trazado_22" class="cls-4" d="M311.49,45.01h-2.36v12.36c-.05,.49,.07,.98,.33,1.39,.38,.28,.85,.41,1.32,.35h.65v2.86h-.86c-.76,.02-1.52-.07-2.26-.25-.55-.13-1.06-.39-1.48-.75-.38-.35-.65-.8-.79-1.3-.16-.61-.24-1.24-.23-1.87v-12.8h-1.17v-2.73h1.18v-5.98h3.36v5.98h2.36l-.03,2.73Z"/><path id="Trazado_23" class="cls-4" d="M317.06,39.41h-3.27v-3.42h3.32l-.05,3.42Zm0,22.56h-3.27v-19.7h3.32l-.05,19.7Z"/><path id="Trazado_24" class="cls-4" d="M329.11,58.15c.02,.74-.05,1.48-.19,2.2-.11,.48-.35,.92-.71,1.26-.41,.33-.91,.53-1.44,.58-1.57,.17-3.15,.17-4.71,0-.53-.05-1.03-.25-1.45-.57-.37-.33-.62-.77-.71-1.26-.15-.73-.23-1.47-.23-2.21v-12.02c-.02-.74,.04-1.48,.18-2.2,.08-.49,.33-.94,.71-1.27,.42-.32,.92-.52,1.45-.57,1.57-.17,3.15-.17,4.71,0,.52,.06,1.02,.26,1.44,.58,.36,.34,.6,.79,.71,1.27,.16,.72,.24,1.46,.23,2.2v12.02Zm-3.25-11.65c.06-.41-.03-.83-.26-1.18-.33-.22-.73-.31-1.12-.26-.43-.05-.86,.04-1.24,.26-.25,.34-.35,.76-.28,1.18v11.32c-.05,.41,.04,.83,.26,1.18,.35,.23,.76,.33,1.18,.28,.42,.05,.84-.05,1.18-.29,.2-.34,.29-.73,.25-1.12l.04-11.37Z"/><path id="Trazado_25" class="cls-4" d="M335.11,61.98h-3.35v-19.7h3.12v1.32c.25-.5,.67-.89,1.18-1.12,.66-.28,1.38-.41,2.1-.37,.54-.02,1.08,.05,1.6,.2,.4,.12,.76,.35,1.04,.67,.28,.37,.47,.79,.55,1.25,.12,.62,.18,1.26,.16,1.9v15.84h-3.36v-15.49c.04-.37-.06-.74-.27-1.05-.29-.23-.67-.34-1.04-.29-.73-.12-1.45,.31-1.68,1.01l-.06,15.82Z"/><path id="Trazado_26" class="cls-4" d="M342.43,37.98c0-.51,.1-1.02,.31-1.5,.39-.93,1.14-1.67,2.07-2.06,.48-.21,.99-.31,1.51-.31,.52,0,1.03,.1,1.5,.31,.44,.2,.84,.48,1.18,.83,.35,.36,.64,.78,.84,1.24,.2,.47,.3,.98,.29,1.5,0,.52-.1,1.03-.29,1.51-.2,.46-.48,.88-.84,1.24-.34,.34-.74,.62-1.18,.83-.47,.2-.98,.31-1.5,.31-2.14,0-3.88-1.73-3.89-3.87h0Zm1.18,0c0,.37,.07,.73,.22,1.07,.14,.32,.33,.62,.58,.87,.51,.52,1.21,.81,1.94,.8,.36,0,.72-.07,1.06-.21,.32-.14,.62-.34,.87-.58,.24-.26,.44-.55,.58-.87,.14-.34,.21-.7,.21-1.07,0-.36-.07-.72-.21-1.06-.14-.32-.34-.62-.58-.87-.25-.25-.55-.45-.87-.58-.34-.14-.7-.21-1.06-.21-1.1-.03-2.11,.62-2.54,1.63-.16,.35-.24,.73-.22,1.11h.02Zm1.18-1.91h1.74c.26-.01,.51,.04,.74,.15,.38,.17,.65,.52,.72,.93,0,.09,0,.17,0,.26,.05,.3-.05,.61-.26,.83-.13,.16-.29,.28-.48,.35l.92,1.34h-1.25l-.84-1.26h-.22v1.26h-1.06v-3.86Zm1.71,1.73c.12,.01,.24-.04,.32-.13,.06-.08,.09-.17,.09-.27,0-.1-.04-.2-.11-.28-.08-.08-.2-.13-.32-.13h-.65v.82h.66Z"/></g></g></svg>