<?xml version="1.0" encoding="utf-8"?>
<!-- Generator: Adobe Illustrator 26.3.1, SVG Export Plug-In . SVG Version: 6.00 Build 0)  -->
<svg version="1.1" id="Layer_2_00000049928663183045154400000009308068019459385502_"
	 xmlns="http://www.w3.org/2000/svg" xmlns:xlink="http://www.w3.org/1999/xlink" x="0px" y="0px" viewBox="0 0 24.4 24.7"
	 style="enable-background:new 0 0 24.4 24.7;" xml:space="preserve">
<style type="text/css">
	.st0{fill:#FFFFFF;}
</style>
<g>
	<path class="st0" d="M8.7,11c-0.5,0-0.8,0.4-0.8,0.8c0,0.5,0.4,0.8,0.8,0.8h11.4c0.5,0,0.8-0.4,0.8-0.8c0-0.5-0.4-0.8-0.8-0.8H8.7z
		"/>
	<path class="st0" d="M20.1,15H8.7c-0.5,0-0.8,0.4-0.8,0.8c0,0.5,0.4,0.8,0.8,0.8h11.4c0.5,0,0.8-0.4,0.8-0.8
		C20.9,15.4,20.5,15,20.1,15z"/>
	<path class="st0" d="M12.3,19.1H8.7c-0.5,0-0.8,0.4-0.8,0.8s0.4,0.8,0.8,0.8h3.6c0.5,0,0.8-0.4,0.8-0.8S12.7,19.1,12.3,19.1z"/>
	<path class="st0" d="M22.4,7.4h-0.5V5.5c0-1-0.8-1.8-1.8-1.8H8.9L6.8,1C6.4,0.6,5.9,0.3,5.4,0.3H2c-1,0-1.8,0.8-1.8,1.8V21
		c0,1.7,1.3,3.1,2.9,3.3l0,0h17.8c1.8,0,3.3-1.5,3.3-3.3V9.2C24.2,8.2,23.4,7.4,22.4,7.4z M19.8,7.4H6.5c-1,0-1.8,0.8-1.8,1.8V21
		c0,0.7-0.6,1.2-1.2,1.2c-0.7,0-1.2-0.6-1.2-1.2V2.4h3l2.1,2.7c0.3,0.4,0.9,0.7,1.4,0.7h11.1v1.6H19.8z M6.5,22.3
		c0.2-0.4,0.2-0.8,0.2-1.2V9.5H22v11.6c0,0.7-0.6,1.2-1.2,1.2C20.8,22.3,6.5,22.3,6.5,22.3z"/>
</g>
</svg>
