<?xml version="1.0" encoding="UTF-8"?><svg id="Layer_2" xmlns="http://www.w3.org/2000/svg" viewBox="0 0 30.58 20.19"><defs><style>.cls-1{fill:#fff;}</style></defs><g id="Capa_1"><path class="cls-1" d="M9.9,10.19c-.67-.68-1.44-1.04-2.34-1.06-1-.03-2.01-.02-3.01,0-1.79,.05-3.25,1.53-3.3,3.32-.01,.5,0,.99-.01,1.49-.01,.24,.08,.36,.29,.42,.95,.28,1.89,.59,2.84,.84,.47,.13,.72,.38,.63,.78-.08,.34-.37,.51-.81,.44-1.2-.19-2.35-.55-3.44-1.08-.13-.06-.28-.1-.37-.19-.14-.13-.33-.31-.33-.47-.02-.9-.08-1.82,.04-2.71,.24-1.86,1.3-3.13,3.06-3.81,.07-.03,.14-.06,.21-.09-2.08-2.14-1.32-4.72,.07-5.93,1.55-1.36,3.82-1.34,5.35,.07,1.35,1.25,2.03,3.75,.02,5.83,.4,.21,.82,.38,1.2,.63,.37,.24,.69,.56,1.05,.85l1.13-.39c-1.39-1.2-2.11-2.68-1.95-4.51,.12-1.35,.74-2.48,1.76-3.37,2.06-1.79,5.04-1.67,6.95,.24,1.91,1.91,2.26,5.33-.43,7.64,.34,.12,.67,.25,1.01,.35,.07,.02,.19-.02,.25-.08,.33-.26,.62-.57,.97-.8,.35-.23,.74-.39,1.14-.59-.94-.94-1.43-2.09-1.24-3.45,.14-1.04,.64-1.9,1.46-2.56,1.62-1.31,3.88-1.17,5.33,.31,1.33,1.35,1.77,3.79-.07,5.66,.58,.38,1.23,.72,1.76,1.18,1.01,.88,1.48,2.05,1.49,3.39,0,.66,0,1.32,0,1.99,0,.31-.14,.5-.4,.63-1.18,.59-2.41,1.03-3.72,1.22-.23,.03-.53-.03-.69-.16-.13-.11-.2-.45-.13-.6,.1-.19,.35-.34,.57-.41,.93-.3,1.87-.57,2.8-.84,.29-.08,.36-.26,.34-.54-.04-.62,.02-1.25-.08-1.86-.23-1.53-1.45-2.71-2.99-2.81-1.2-.08-2.42-.05-3.62,.01-.77,.04-1.42,.44-1.98,1.02,.14,.12,.26,.22,.38,.33,1.42,1.28,2.08,2.88,2.06,4.78,0,.76,0,1.53,.01,2.29,0,.36-.11,.6-.45,.76-4.94,2.45-9.88,2.44-14.82,0-.27-.13-.43-.33-.43-.62,0-1.02-.01-2.04,.04-3.05,.09-1.78,.88-3.21,2.24-4.34,.05-.04,.09-.08,.17-.15Zm5.4-.01v.07c-.64,0-1.28,0-1.91,0-2.21,.03-4.21,1.64-4.57,3.81-.17,1.03-.1,2.1-.12,3.15,0,.1,.14,.23,.24,.28,4.23,1.95,8.47,1.95,12.71,0,.12-.06,.25-.26,.25-.39,.02-.7,0-1.4-.01-2.1-.01-2.21-1.5-4.16-3.66-4.6-.95-.2-1.94-.16-2.92-.22Zm-3.9-5.05c0,2.11,1.78,3.89,3.89,3.89,2.11,0,3.9-1.77,3.9-3.88,0-2.13-1.78-3.92-3.91-3.91-2.11,0-3.89,1.79-3.88,3.9Zm-5.39,2.75c1.54,0,2.79-1.21,2.8-2.73,0-1.52-1.23-2.78-2.75-2.79-1.52,0-2.78,1.24-2.78,2.76,0,1.51,1.23,2.76,2.73,2.76Zm18.52,0c1.54,0,2.78-1.22,2.79-2.74,0-1.52-1.24-2.78-2.76-2.78-1.52,0-2.77,1.25-2.77,2.77,0,1.5,1.24,2.75,2.74,2.75Z"/></g></svg>