<?xml version="1.0" encoding="UTF-8"?><svg id="Layer_2" xmlns="http://www.w3.org/2000/svg" viewBox="0 0 32.17 32.17"><defs><style>.cls-1{fill:#fff;}</style></defs><g id="Capa_1"><g><path class="cls-1" d="M32.17,15.08v2.01c-.02,.08-.05,.16-.05,.24-.28,3.52-1.57,6.63-3.89,9.3-2.49,2.86-5.62,4.63-9.37,5.3-.58,.1-1.18,.16-1.77,.24h-2.01c-.08-.02-.16-.05-.24-.05-2.7-.21-5.19-1.05-7.47-2.51C1.71,25.98-1.13,19.01,.42,12.47,2.53,3.53,11.45-1.81,20.33,.56c5.96,1.59,10.6,6.69,11.6,12.75,.1,.59,.16,1.18,.24,1.77ZM16.08,2.25c-7.64,.01-13.84,6.22-13.82,13.85,.02,7.64,6.2,13.81,13.83,13.81,7.64,0,13.84-6.2,13.84-13.84,0-7.64-6.21-13.84-13.84-13.83Z"/><path class="cls-1" d="M15.64,8.01c1.12,0,1.96,.15,2.75,.52,1.9,.91,2.54,2.86,1.54,4.71-.44,.82-1.07,1.46-1.79,2.04-.19,.15-.37,.3-.55,.47-.48,.44-.72,.99-.74,1.64,0,.21,0,.42-.01,.63-.02,.41-.19,.64-.57,.77-.07,.02-.14,.04-.21,.06-1.17,.2-1.6-.14-1.62-1.33-.03-1.4,.46-2.55,1.59-3.41,.36-.27,.71-.56,1.04-.86,.38-.36,.65-.79,.66-1.34,.01-.56-.23-.96-.72-1.22-1.09-.58-2.41-.26-3.11,.75-.45,.64-.87,.78-1.49,.5-.57-.26-.83-.85-.62-1.54,.3-.99,1.02-1.58,1.93-1.97,.69-.3,1.42-.4,1.92-.4Z"/><path class="cls-1" d="M17.24,21.96c0,.9-.73,1.65-1.62,1.65-.87,0-1.59-.73-1.6-1.6-.01-.9,.69-1.65,1.57-1.66,.91-.01,1.65,.71,1.65,1.61Z"/></g></g></svg>