<?xml version="1.0" encoding="UTF-8"?><svg id="Layer_2" xmlns="http://www.w3.org/2000/svg" viewBox="0 0 602.46 96.87"><defs><style>.cls-1,.cls-2{fill:#fff;}.cls-3{letter-spacing:-.03em;}.cls-4{letter-spacing:-.02em;}.cls-5{letter-spacing:-.01em;}.cls-2{font-family:MaaxRounded-Medium, 'Maax Rounded';font-size:91.51px;}</style></defs><g id="Capa_1"><g><g><path class="cls-1" d="M79.15,30.81c-7.92,0-14.37,6.45-14.37,14.37s6.45,14.37,14.37,14.37,14.37-6.45,14.37-14.37-6.45-14.37-14.37-14.37Zm3.14,20.65c0,1.74-1.41,3.14-3.14,3.14s-3.14-1.41-3.14-3.14v-12.57c0-1.74,1.41-3.14,3.14-3.14s3.14,1.41,3.14,3.14v12.57Z"/><path class="cls-1" d="M105.35,12.39H33.2C15.15,12.39,.18,26.81,0,44.85c-.18,18.22,14.6,33.1,32.78,33.1H105.35c3.47,0,6.29-2.81,6.29-6.29V18.68c0-3.47-2.81-6.29-6.29-6.29ZM53.43,62.69c0,1.74-1.41,3.14-3.14,3.14s-3.14-1.41-3.14-3.14v-2.69c-3.72,3.61-8.79,5.84-14.37,5.84-11.39,0-20.65-9.27-20.65-20.66s9.27-20.66,20.65-20.66c4.83,0,9.54,1.71,13.25,4.82,1.33,1.11,1.51,3.1,.39,4.43-1.11,1.33-3.1,1.51-4.43,.39-2.58-2.16-5.85-3.35-9.21-3.35-7.92,0-14.37,6.45-14.37,14.37s6.45,14.37,14.37,14.37c6.84,0,12.58-4.81,14.02-11.23h-12.41c-1.74,0-3.14-1.41-3.14-3.14s1.41-3.14,3.14-3.14h15.9c1.74,0,3.14,1.41,3.14,3.14v17.51Zm25.72,3.14c-11.39,0-20.66-9.27-20.66-20.66s9.27-20.66,20.66-20.66,20.66,9.27,20.66,20.66-9.27,20.66-20.66,20.66Z"/></g><text class="cls-2" transform="translate(116.8 77.83)"><tspan class="cls-3" x="0" y="0">V</tspan><tspan class="cls-5" x="60.58" y="0">E</tspan><tspan class="cls-4" x="119.88" y="0">NTURES</tspan></text></g></g></svg>