<?xml version="1.0" encoding="UTF-8"?><svg id="Layer_2" xmlns="http://www.w3.org/2000/svg" viewBox="0 0 140.33 92.21"><defs><style>.cls-1{fill:#1f2dd9;}</style></defs><g id="Capa_1"><path class="cls-1" d="M70.17,92.21c-19.95,0-39.89,0-59.84,0-5.18,0-9.18-3.22-10.16-8.15-.16-.8-.17-1.63-.17-2.45C0,57.94,0,34.28,0,10.62,0,4.19,4.19,0,10.61,0c39.7,0,79.4,0,119.09,0,6.42,0,10.62,4.18,10.62,10.59,0,23.66,0,47.33,0,70.99,0,6.42-4.2,10.61-10.61,10.61-19.85,0-39.7,0-59.55,0Zm0-30.7c21.55-18.53,43.03-37.01,64.54-55.52-1.42-1.64-3.19-1.97-5.15-1.97-39.61,.02-79.21,.01-118.82,.01-.48,0-.97-.01-1.45,.04-1.44,.15-2.67,.73-3.68,1.92C27.14,24.49,48.62,42.97,70.17,61.51ZM7.18,87.75c1.27,.18,2.14,.41,3.02,.42,33.28,.47,120.88,.13,122.25-.52-12.71-13.86-25.39-27.69-38.12-41.56-.36,.28-.67,.5-.96,.75-7.07,6.08-14.13,12.16-21.19,18.23-1.71,1.47-2.32,1.47-3.99,.03-5.16-4.44-10.32-8.89-15.48-13.33-2.33-2-4.66-4-7.05-6.04-12.8,13.97-25.5,27.84-38.48,42.02Zm128.27-2.77l.43-.05c.15-1.16,.42-2.31,.42-3.47,.03-23.27,.02-46.55,.02-69.82,0-.46-.05-.91-.09-1.66-13.07,11.24-25.93,22.31-38.89,33.45,12.75,13.9,25.43,27.72,38.11,41.55Zm-131.21-.59l.46,.14c12.63-13.79,25.26-27.59,37.94-41.42C29.77,32.04,17.02,21.08,4.23,10.08V84.39Z"/></g></svg>