<?xml version="1.0" encoding="UTF-8"?><svg id="Layer_2" xmlns="http://www.w3.org/2000/svg" viewBox="0 0 1061.83 724.34"><defs><style>.cls-1{letter-spacing:-.02em;}.cls-2{letter-spacing:.01em;}.cls-3{letter-spacing:.01em;}.cls-4{letter-spacing:.01em;}.cls-5{fill:#e59f3c;}.cls-6{letter-spacing:-.03em;}.cls-7{letter-spacing:-.07em;}.cls-8{font-size:35.98px;}.cls-8,.cls-9{fill:#0d2175;font-family:MaaxRounded-Bold, 'Maax Rounded';}.cls-10{fill:#fff;stroke:#e59f3c;}.cls-10,.cls-11{stroke-miterlimit:10;stroke-width:4px;}.cls-9{font-size:32px;}.cls-12{letter-spacing:0em;}.cls-13{letter-spacing:0em;}.cls-14{letter-spacing:0em;}.cls-15{letter-spacing:0em;}.cls-16{letter-spacing:0em;}.cls-17{letter-spacing:.02em;}.cls-11{fill:none;stroke:#1f2dd9;}.cls-18{letter-spacing:-.01em;}.cls-19{letter-spacing:-.01em;}.cls-20{letter-spacing:-.09em;}.cls-21{letter-spacing:-.02em;}.cls-22{letter-spacing:-.02em;}</style></defs><g id="Capa_1"><g><text class="cls-9" transform="translate(0 373.28)"><tspan x="0" y="0">I</tspan><tspan class="cls-21" x="10.11" y="0">nv</tspan><tspan x="44.74" y="0">e</tspan><tspan class="cls-12" x="62.88" y="0">s</tspan><tspan x="78.94" y="0">tme</tspan><tspan class="cls-12" x="137.95" y="0">n</tspan><tspan x="156.64" y="0">t</tspan></text><text class="cls-8" transform="translate(652.31 474.37)"><tspan x="0" y="0">L</tspan><tspan class="cls-15" x="21.05" y="0">e</tspan><tspan x="41.66" y="0">g</tspan><tspan class="cls-3" x="63.89" y="0">a</tspan><tspan x="83.79" y="0">l</tspan></text><text class="cls-8" transform="translate(204.14 481.18)"><tspan x="0" y="0">Cons</tspan><tspan class="cls-3" x="88.39" y="0">u</tspan><tspan class="cls-16" x="109.62" y="0">lt</tspan><tspan class="cls-3" x="134.23" y="0">i</tspan><tspan x="145.38" y="0">ng</tspan></text><text class="cls-8" transform="translate(648.75 221.4)"><tspan x="0" y="0">Di</tspan><tspan class="cls-3" x="37.74" y="0">g</tspan><tspan x="60.37" y="0">it</tspan><tspan class="cls-3" x="85.37" y="0">a</tspan><tspan x="105.27" y="0">l</tspan><tspan x="-29.27" y="43.17">M</tspan><tspan class="cls-3" x="1.39" y="43.17">a</tspan><tspan x="21.28" y="43.17">r</tspan><tspan class="cls-6" x="36.93" y="43.17">k</tspan><tspan class="cls-19" x="56.03" y="43.17">e</tspan><tspan x="76.04" y="43.17">t</tspan><tspan class="cls-3" x="90.28" y="43.17">i</tspan><tspan x="101.43" y="43.17">ng</tspan></text><text class="cls-9" transform="translate(461.35 559.26)"><tspan class="cls-20" x="0" y="0">T</tspan><tspan class="cls-14" x="17.15" y="0">e</tspan><tspan x="35.49" y="0">ch </tspan><tspan x="-58.8" y="38.4">d</tspan><tspan class="cls-21" x="-38.64" y="38.4">ev</tspan><tspan x="-4.75" y="38.4">elopme</tspan><tspan class="cls-12" x="108.56" y="38.4">n</tspan><tspan x="127.25" y="38.4">t</tspan></text><text class="cls-9" transform="translate(416.7 146.7)"><tspan x="0" y="0">Inc</tspan><tspan class="cls-4" x="46.82" y="0">u</tspan><tspan x="65.69" y="0">b</tspan><tspan class="cls-12" x="85.89" y="0">a</tspan><tspan x="103.04" y="0">t</tspan><tspan class="cls-4" x="115.71" y="0">i</tspan><tspan x="125.63" y="0">ng</tspan></text><text class="cls-8" transform="translate(408.94 371.23)"><tspan class="cls-22" x="0" y="0">P</tspan><tspan class="cls-3" x="23.64" y="0">a</tspan><tspan class="cls-17" x="43.53" y="0">r</tspan><tspan x="59.79" y="0">tner</tspan><tspan class="cls-2" x="131.31" y="0">i</tspan><tspan x="142.47" y="0">ng</tspan></text><text class="cls-9" transform="translate(831.39 134.99)"><tspan class="cls-1" x="0" y="0">A</tspan><tspan class="cls-21" x="22.69" y="0">cc</tspan><tspan x="57.25" y="0">ele</tspan><tspan class="cls-18" x="102.75" y="0">r</tspan><tspan class="cls-12" x="116.32" y="0">a</tspan><tspan x="133.47" y="0">t</tspan><tspan class="cls-4" x="146.14" y="0">i</tspan><tspan x="156.06" y="0">ng</tspan></text><text class="cls-8" transform="translate(858.27 355.96)"><tspan class="cls-7" x="0" y="0">T</tspan><tspan class="cls-3" x="20.07" y="0">a</tspan><tspan x="39.97" y="0">le</tspan><tspan class="cls-13" x="70.73" y="0">n</tspan><tspan x="91.74" y="0">t</tspan></text><g><polyline class="cls-11" points="163.56 235.13 229.58 356.16 159.52 470.63 31.53 472.78"/><polyline class="cls-11" points="828.11 10.68 775.3 120.7 638.87 120.7 566.49 11.76"/><polygon class="cls-11" points="565.52 241.12 432.16 241.12 365.48 355.85 434.95 470.58 565.52 470.58 632.2 355.85 565.52 241.12"/><polygon class="cls-11" points="365.48 353.96 229.94 353.96 162.16 467.74 229.94 581.53 371.61 581.53 434.95 470.58 365.48 353.96"/><polygon class="cls-11" points="567.05 470.58 436.76 470.58 371.61 581.53 436.76 692.47 567.05 692.47 632.2 581.53 567.05 470.58"/><polygon class="cls-11" points="773.15 120.7 636.82 120.7 565.21 239.12 632.2 355.85 773.15 353.96 841.31 237.33 773.15 120.7"/><polygon class="cls-11" points="980.81 237.33 841.71 237.33 772.17 355.85 841.71 474.37 980.81 474.37 1050.36 355.85 980.81 237.33"/><circle class="cls-5" cx="161.65" cy="239.28" r="15.93"/><circle class="cls-5" cx="434.95" cy="708.41" r="15.93"/><circle class="cls-5" cx="570.65" cy="708.41" r="15.93"/><circle class="cls-5" cx="973.33" cy="474.37" r="15.93"/><circle class="cls-5" cx="1045.9" cy="355.85" r="15.93"/><circle class="cls-5" cx="827.49" cy="21.51" r="15.93"/><circle class="cls-5" cx="23.72" cy="472.78" r="15.93"/><circle class="cls-10" cx="225.32" cy="590.92" r="15.93"/><circle class="cls-10" cx="841.71" cy="474.37" r="15.93"/><circle class="cls-10" cx="979.5" cy="237.33" r="15.93"/><circle class="cls-10" cx="636.91" cy="581.53" r="15.93"/></g><polyline class="cls-11" points="427.39 229.65 371.61 120.7 440.46 11.76 566.49 11.76"/><circle class="cls-10" cx="434.95" cy="241.12" r="15.93"/><circle class="cls-5" cx="570.14" cy="15.93" r="15.93"/></g></g></svg>