<?xml version="1.0" encoding="UTF-8"?><svg id="Layer_2" xmlns="http://www.w3.org/2000/svg" viewBox="0 0 647.05 500.99"><defs><style>.cls-1{fill:#e59f3c;}.cls-2{fill:#fff;stroke:#e59f3c;}.cls-2,.cls-3{stroke-miterlimit:10;stroke-width:4px;}.cls-3{fill:none;stroke:#1f2dd9;}</style></defs><g id="Capa_1"><g><polyline class="cls-3" points="155.77 11.78 221.79 132.81 151.73 247.28 23.74 249.44"/><polygon class="cls-3" points="557.73 17.77 424.37 17.77 357.69 132.5 427.16 247.24 557.73 247.24 624.41 132.5 557.73 17.77"/><polygon class="cls-3" points="357.69 130.61 222.15 130.61 154.37 244.39 222.15 358.18 363.82 358.18 427.16 247.24 357.69 130.61"/><polygon class="cls-3" points="559.26 247.24 428.97 247.24 363.82 358.18 428.97 469.12 559.26 469.12 624.41 358.18 559.26 247.24"/><circle class="cls-1" cx="153.86" cy="15.93" r="15.93"/><circle class="cls-1" cx="427.16" cy="485.06" r="15.93"/><circle class="cls-1" cx="562.86" cy="485.06" r="15.93"/><circle class="cls-1" cx="15.93" cy="249.44" r="15.93"/><circle class="cls-2" cx="217.53" cy="367.57" r="15.93"/><circle class="cls-2" cx="629.12" cy="358.18" r="15.93"/></g></g></svg>